SplineFontDB: 3.2
FontName: SeriousShannsLightItalic
FullName: Serious Shanns Light Italic
FamilyName: Serious Shanns Light Italic
Weight: Light
Copyright: https://github.com/kaBeech/serious-sans/blob/main/LICENSE
Version: 6.0.0
ItalicAngle: -11.8
UnderlinePosition: 0
UnderlineWidth: 0
Ascent: 800
Descent: 200
InvalidEm: 0
sfntRevision: 0x00001999
LayerCount: 2
Layer: 0 0 "Back" 1
Layer: 1 0 "Fore" 0
XUID: [1021 329 -1817886000 6804199]
StyleMap: 0x0040
FSType: 0
OS2Version: 3
OS2_WeightWidthSlopeOnly: 0
OS2_UseTypoMetrics: 0
CreationTime: 1532631502
ModificationTime: 315532800
PfmFamily: 49
TTFWeight: 300
TTFWidth: 5
LineGap: 0
VLineGap: 0
Panose: 0 0 0 0 0 0 0 0 0 0
OS2TypoAscent: 613
OS2TypoAOffset: 0
OS2TypoDescent: -188
OS2TypoDOffset: 0
OS2TypoLinegap: 98
OS2WinAscent: 778
OS2WinAOffset: 0
OS2WinDescent: 308
OS2WinDOffset: 0
HheadAscent: 796
HheadAOffset: 0
HheadDescent: -317
HheadDOffset: 0
OS2SubXSize: 317
OS2SubYSize: 293
OS2SubXOff: 0
OS2SubYOff: 37
OS2SupXSize: 317
OS2SupYSize: 293
OS2SupXOff: 0
OS2SupYOff: 171
OS2StrikeYSize: 0
OS2StrikeYPos: 132
OS2CapHeight: 576
OS2XHeight: 485
OS2Vendor: 'NONE'
OS2CodePages: 00000001.00000000
OS2UnicodeRanges: 00000001.00000000.00000000.00000000
MarkAttachClasses: 1
DEI: 91125
LangName: 1033 "" "" "Normal" "FontForge 2.0 : Serious Shanns Light Italic : 11-6-2024" "" "Version 0.1.2"
Encoding: UnicodeBmp
Compacted: 1
UnicodeInterp: none
NameList: AGL For New Fonts
DisplaySize: -48
AntiAlias: 1
FitToEm: 0
WinInfo: 48 16 2
BeginPrivate: 8
BlueValues 32 [-39 -6 490 521 685 718 765 769]
OtherBlues 11 [-304 -292]
BlueScale 9 0.0291667
BlueShift 1 3
StdHW 4 [67]
StdVW 4 [65]
StemSnapH 23 [61 62 63 65 67 94 130]
StemSnapV 14 [40 58 65 125]
EndPrivate
BeginChars: 65537 122

StartChar: .notdef
Encoding: 65536 -1 0
Width: 548
VWidth: 886
GlyphClass: 1
Flags: HMW
HStem: 620.95 17G<251.1 525.65 251.1 251.1>
LayerCount: 2
Fore
SplineSet
235.799804688 662.599609375 m 1
 552.849609375 662.599609375 l 1
 358.200195312 -180.599609375 l 1
 41.150390625 -180.599609375 l 1
 235.799804688 662.599609375 l 1
525.650390625 637.950195312 m 1
 251.099609375 637.950195312 l 1
 67.5 -155.950195312 l 1
 342.900390625 -155.950195312 l 1
 525.650390625 637.950195312 l 1
EndSplineSet
Validated: 524289
EndChar

StartChar: exclam
Encoding: 33 33 11
Width: 548
VWidth: 907
GlyphClass: 2
Flags: HMW
HStem: 46.25 110.5<211.65 265.2>
VStem: 183.175 111.35<80.675 125.725>
LayerCount: 2
Fore
SplineSet
311.525390625 290.200195312 m 0
 308.125 280 303.025390625 272.349609375 295.375 267.25 c 0
 287.724609375 262.150390625 280.924804688 258.75 273.275390625 258.75 c 2
 270.724609375 258.75 l 2
 263.075195312 258.75 257.974609375 261.299804688 255.424804688 265.549804688 c 0
 253.724609375 267.25 252.875 269.799804688 252.875 273.200195312 c 0
 252.875 276.599609375 253.724609375 281.700195312 255.424804688 288.5 c 0
 257.974609375 296.150390625 260.525390625 303.799804688 263.924804688 312.299804688 c 0
 267.325195312 320.799804688 269.875 327.599609375 271.575195312 333.549804688 c 0
 273.275390625 339.5 275.825195312 352.25 280.924804688 372.650390625 c 0
 286.025390625 393.049804688 291.125 416.849609375 296.224609375 443.200195312 c 0
 301.325195312 469.549804688 306.424804688 495.049804688 312.375 519.700195312 c 0
 318.325195312 544.349609375 322.575195312 561.349609375 324.275390625 569.849609375 c 0
 325.974609375 578.349609375 331.075195312 596.200195312 338.724609375 625.099609375 c 0
 346.375 654 350.625 672.700195312 352.325195312 679.5 c 0
 355.724609375 692.25 361.674804688 702.450195312 368.474609375 708.400390625 c 0
 375.275390625 714.349609375 383.775390625 717.75 392.275390625 717.75 c 2
 394.825195312 717.75 l 2
 401.625 717.75 406.724609375 716.049804688 409.275390625 712.650390625 c 0
 410.974609375 710.950195312 411.825195312 706.700195312 411.825195312 702.450195312 c 0
 411.825195312 698.200195312 410.125 693.099609375 409.275390625 688 c 0
 408.424804688 682.900390625 398.224609375 644.650390625 380.375 574.950195312 c 0
 362.525390625 505.25 348.924804688 450 339.575195312 406.650390625 c 0
 330.224609375 363.299804688 324.275390625 337.799804688 321.724609375 329.299804688 c 0
 319.174804688 320.799804688 314.924804688 308.049804688 311.525390625 290.200195312 c 0
294.525390625 121.049804688 m 0
 294.525390625 116.799804688 293.674804688 111.700195312 292.825195312 105.75 c 0
 289.424804688 90.4501953125 282.625 77.7001953125 269.875 66.650390625 c 0
 257.125 55.599609375 241.825195312 48.7998046875 223.974609375 47.099609375 c 0
 222.275390625 47.099609375 219.724609375 46.25 218.025390625 46.25 c 0
 205.275390625 46.25 195.924804688 51.349609375 189.974609375 59.849609375 c 0
 184.875 67.5 183.174804688 76 183.174804688 85.349609375 c 0
 183.174804688 89.599609375 184.025390625 94.7001953125 184.875 100.650390625 c 0
 189.125 115.099609375 196.775390625 127.849609375 211.224609375 138.900390625 c 0
 227.375 150.799804688 242.674804688 156.75 258.825195312 156.75 c 0
 271.575195312 156.75 282.625 152.5 288.575195312 144 c 0
 292.825195312 138.049804688 294.525390625 130.400390625 294.525390625 121.049804688 c 0
EndSplineSet
Validated: 524289
EndChar

StartChar: quotedbl
Encoding: 34 34 12
Width: 548
VWidth: 941
GlyphClass: 2
Flags: HMW
HStem: 472.225 274.55<194.575 269.8 198.4 269.8 264.7 325.05 264.7 325.9>
LayerCount: 2
Fore
SplineSet
269.799804688 746.775390625 m 2
 276.599609375 746.775390625 282.549804688 745.075195312 287.650390625 741.674804688 c 0
 288.5 739.974609375 290.200195312 737.424804688 291.049804688 734.025390625 c 0
 291.900390625 730.625 291.900390625 727.224609375 291.049804688 721.275390625 c 0
 285.950195312 698.325195312 276.599609375 660.075195312 263 607.375 c 0
 249.400390625 554.674804688 240.049804688 518.125 233.25 498.575195312 c 0
 229.849609375 489.224609375 224.75 483.275390625 217.950195312 479.025390625 c 0
 211.150390625 474.775390625 205.200195312 472.224609375 199.25 472.224609375 c 2
 198.400390625 472.224609375 l 2
 190.75 472.224609375 183.950195312 475.625 178.849609375 479.875 c 0
 177.150390625 481.575195312 175.450195312 484.125 175.450195312 487.525390625 c 0
 175.450195312 490.924804688 176.299804688 494.325195312 177.150390625 497.724609375 c 0
 186.5 526.625 195.849609375 564.025390625 205.200195312 609.075195312 c 0
 214.549804688 654.125 222.200195312 691.525390625 228.150390625 721.275390625 c 0
 229 727.224609375 231.549804688 731.474609375 234.099609375 734.875 c 0
 236.650390625 739.125 240.049804688 741.674804688 243.450195312 742.525390625 c 0
 251.099609375 745.075195312 258.75 746.775390625 264.700195312 746.775390625 c 2
 269.799804688 746.775390625 l 2
390.5 607.375 m 0
 377.75 554.674804688 367.549804688 518.125 360.75 498.575195312 c 0
 357.349609375 489.224609375 352.25 483.275390625 345.450195312 479.025390625 c 0
 338.650390625 474.775390625 331.849609375 472.224609375 325.900390625 472.224609375 c 2
 325.049804688 472.224609375 l 2
 317.400390625 472.224609375 310.599609375 475.625 305.5 479.875 c 0
 303.799804688 481.575195312 302.950195312 484.974609375 302.950195312 487.525390625 c 0
 302.950195312 490.075195312 303.799804688 493.474609375 304.650390625 497.724609375 c 0
 313.150390625 526.625 322.5 564.025390625 331.849609375 609.075195312 c 0
 341.200195312 654.125 348.849609375 691.525390625 354.799804688 721.275390625 c 0
 355.650390625 727.224609375 358.200195312 731.474609375 361.599609375 734.875 c 0
 365 738.275390625 367.549804688 741.674804688 370.950195312 742.525390625 c 0
 378.599609375 745.075195312 385.400390625 746.775390625 391.349609375 746.775390625 c 2
 396.450195312 746.775390625 l 2
 400.700195312 746.775390625 404.099609375 746.775390625 406.650390625 745.924804688 c 0
 409.200195312 745.075195312 412.599609375 743.375 415.150390625 741.674804688 c 0
 417.700195312 739.974609375 418.549804688 735.724609375 418.549804688 729.775390625 c 0
 418.549804688 722.974609375 409.200195312 682.174804688 390.5 607.375 c 0
EndSplineSet
Validated: 524289
EndChar

StartChar: numbersign
Encoding: 35 35 13
Width: 548
VWidth: 904
GlyphClass: 2
Flags: HMW
HStem: 228.4 48.45<383.625 415.925 364.075 432.075> 442.6 51<299.475 392.975 279.075 413.375 299.475 484.775 299.475 448.225>
LayerCount: 2
Fore
SplineSet
197.474609375 226.700195312 m 1
 189.825195312 226.700195312 l 1
 162.625 161.25 143.924804688 117.049804688 133.724609375 94.099609375 c 0
 127.775390625 84.75 120.125 76.25 109.075195312 69.4501953125 c 0
 101.424804688 65.2001953125 94.625 62.650390625 89.525390625 62.650390625 c 0
 87.8251953125 62.650390625 84.4248046875 63.5 82.724609375 64.349609375 c 0
 79.3251953125 64.349609375 77.625 66.0498046875 76.775390625 67.75 c 0
 75.0751953125 71.150390625 73.375 76.25 73.375 83.0498046875 c 0
 73.375 91.5498046875 75.0751953125 100.900390625 80.1748046875 111.099609375 c 0
 87.8251953125 127.25 106.525390625 165.5 132.875 225.849609375 c 1
 92.9248046875 225.849609375 l 2
 82.724609375 225.849609375 75.9248046875 227.549804688 72.525390625 230.950195312 c 0
 70.8251953125 232.650390625 68.275390625 236.049804688 68.275390625 238.599609375 c 0
 68.275390625 239.450195312 69.125 242 69.125 243.700195312 c 0
 70.8251953125 251.349609375 75.0751953125 259 81.025390625 264.099609375 c 0
 86.974609375 269.200195312 97.1748046875 272.599609375 108.224609375 272.599609375 c 0
 112.474609375 272.599609375 118.424804688 273.450195312 126.924804688 273.450195312 c 0
 135.424804688 273.450195312 143.075195312 275.150390625 152.424804688 275.150390625 c 1
 222.125 441.75 l 1
 205.974609375 441.75 l 1
 173.674804688 440.900390625 l 1
 170.275390625 440.900390625 l 2
 161.775390625 440.900390625 155.825195312 442.599609375 153.275390625 446 c 0
 151.575195312 448.549804688 150.724609375 451.950195312 150.724609375 456.200195312 c 2
 150.724609375 462.150390625 l 2
 151.575195312 469.799804688 155.825195312 476.599609375 162.625 481.700195312 c 0
 169.424804688 486.799804688 177.924804688 491.049804688 188.974609375 491.049804688 c 2
 189.825195312 491.049804688 l 2
 200.025390625 491.049804688 216.174804688 491.900390625 236.575195312 491.900390625 c 2
 242.525390625 491.900390625 l 1
 298.625 629.599609375 l 2
 304.575195312 642.349609375 313.075195312 650.849609375 320.724609375 655.099609375 c 0
 326.674804688 657.650390625 330.924804688 659.349609375 335.174804688 659.349609375 c 0
 336.875 659.349609375 341.125 658.5 342.825195312 658.5 c 0
 350.474609375 656.799804688 355.575195312 653.400390625 357.275390625 647.450195312 c 0
 358.125 645.75 358.974609375 642.349609375 358.974609375 639.799804688 c 0
 358.974609375 634.700195312 356.424804688 627.900390625 353.025390625 620.25 c 2
 299.474609375 493.599609375 l 1
 413.375 493.599609375 l 1
 465.224609375 623.650390625 l 2
 471.174804688 636.400390625 477.974609375 644.900390625 486.474609375 649.150390625 c 0
 491.575195312 651.700195312 496.674804688 653.400390625 501.775390625 653.400390625 c 0
 503.474609375 653.400390625 506.025390625 652.549804688 508.575195312 652.549804688 c 0
 516.224609375 650.849609375 522.174804688 647.450195312 523.875 641.5 c 0
 523.875 639.799804688 524.724609375 637.25 524.724609375 635.549804688 c 0
 524.724609375 629.599609375 523.875 622.799804688 519.625 614.299804688 c 0
 508.575195312 592.200195312 491.575195312 552.25 469.474609375 495.299804688 c 1
 485.625 495.299804688 l 1
 494.125 495.299804688 l 2
 503.474609375 495.299804688 511.974609375 491.900390625 516.224609375 486.799804688 c 0
 520.474609375 482.549804688 522.174804688 479.150390625 522.174804688 474.900390625 c 0
 522.174804688 474.049804688 521.325195312 472.349609375 521.325195312 471.5 c 0
 519.625 463.849609375 514.525390625 456.200195312 508.575195312 451.099609375 c 0
 502.625 446 494.974609375 442.599609375 484.775390625 442.599609375 c 2
 448.224609375 442.599609375 l 1
 383.625 276.849609375 l 1
 432.075195312 276.849609375 l 2
 440.575195312 276.849609375 445.674804688 275.150390625 446.525390625 273.450195312 c 0
 448.224609375 270.049804688 449.075195312 264.950195312 448.224609375 257.299804688 c 0
 446.525390625 247.950195312 441.424804688 240.299804688 437.174804688 236.049804688 c 0
 432.075195312 230.950195312 425.275390625 228.400390625 415.924804688 228.400390625 c 2
 364.075195312 228.400390625 l 1
 337.724609375 159.549804688 319.875 113.650390625 309.674804688 90.7001953125 c 0
 303.724609375 80.5 295.224609375 72.849609375 285.025390625 67.75 c 0
 278.224609375 64.349609375 272.275390625 62.650390625 267.174804688 62.650390625 c 0
 265.474609375 62.650390625 261.224609375 63.5 258.674804688 64.349609375 c 0
 253.575195312 65.2001953125 251.025390625 69.4501953125 250.174804688 75.400390625 c 0
 250.174804688 77.9501953125 249.325195312 81.349609375 249.325195312 83.0498046875 c 0
 249.325195312 90.7001953125 251.875 98.349609375 256.125 107.700195312 c 0
 267.174804688 130.650390625 284.174804688 170.599609375 307.125 227.549804688 c 1
 290.974609375 227.549804688 l 1
 197.474609375 226.700195312 l 1
392.974609375 442.599609375 m 1
 279.075195312 442.599609375 l 1
 209.375 276 l 1
 241.674804688 276.849609375 279.075195312 277.700195312 319.875 277.700195312 c 2
 326.674804688 277.700195312 l 1
 347.924804688 328.700195312 370.025390625 383.099609375 392.974609375 442.599609375 c 1
EndSplineSet
Validated: 524289
EndChar

StartChar: dollar
Encoding: 36 36 14
Width: 548
VWidth: 901
GlyphClass: 2
Flags: HMW
HStem: 36.775 51<195.85 224.75 204.35 224.75 207.75 224.75>
VStem: 178 53.55 404.1 58.65<250.975 295.175>
LayerCount: 2
Fore
SplineSet
158.450195312 44.4248046875 m 0
 144 49.525390625 132.950195312 54.625 123.599609375 62.275390625 c 0
 105.75 77.5751953125 93.849609375 95.4248046875 87.900390625 115.825195312 c 0
 87.0498046875 120.924804688 86.2001953125 126.875 86.2001953125 131.974609375 c 0
 86.2001953125 137.075195312 87.900390625 142.174804688 89.599609375 146.424804688 c 0
 93 154.075195312 98.099609375 159.174804688 105.75 162.575195312 c 0
 111.700195312 165.125 116.799804688 167.674804688 119.349609375 167.674804688 c 0
 121.900390625 167.674804688 125.299804688 168.525390625 126.150390625 168.525390625 c 2
 130.400390625 168.525390625 l 2
 131.25 168.525390625 132.950195312 165.974609375 134.650390625 164.275390625 c 0
 136.349609375 162.575195312 139.75 157.474609375 142.299804688 151.525390625 c 0
 149.950195312 132.825195312 159.299804688 116.674804688 172.049804688 105.625 c 0
 184.799804688 93.724609375 201.799804688 87.775390625 223.049804688 87.775390625 c 2
 224.75 87.775390625 l 1
 231.549804688 87.775390625 l 1
 254.5 188.075195312 274.049804688 279.025390625 291.049804688 361.474609375 c 1
 281.700195312 362.325195312 274.049804688 364.025390625 268.950195312 364.875 c 0
 263.849609375 365.724609375 258.75 366.575195312 255.349609375 366.575195312 c 0
 240.049804688 368.275390625 227.299804688 372.525390625 216.25 380.174804688 c 0
 205.200195312 387.825195312 196.700195312 396.325195312 190.75 407.375 c 0
 182.25 423.525390625 178 440.525390625 178 459.224609375 c 0
 178 465.174804688 178.849609375 471.125 180.549804688 478.775390625 c 0
 184.799804688 498.325195312 191.599609375 517.025390625 200.950195312 534.875 c 0
 209.450195312 552.724609375 220.5 569.724609375 234.099609375 585.025390625 c 0
 247.700195312 600.325195312 264.700195312 613.075195312 283.400390625 624.125 c 0
 302.099609375 635.174804688 323.349609375 643.674804688 346.299804688 647.924804688 c 2
 352.25 649.625 l 1
 356.5 667.474609375 361.599609375 686.174804688 365.849609375 704.875 c 0
 368.400390625 717.625 372.650390625 726.974609375 377.75 733.775390625 c 0
 382.849609375 740.575195312 387.950195312 743.974609375 395.599609375 743.974609375 c 2
 397.299804688 743.974609375 l 2
 403.25 743.974609375 407.5 743.125 409.200195312 740.575195312 c 0
 410.900390625 738.025390625 411.75 733.775390625 411.75 728.674804688 c 0
 411.75 723.575195312 410.049804688 718.474609375 409.200195312 712.525390625 c 2
 397.299804688 655.575195312 l 1
 408.349609375 654.724609375 l 2
 419.400390625 654.724609375 434.700195312 651.325195312 453.400390625 646.224609375 c 0
 472.099609375 641.125 485.700195312 636.875 495.049804688 632.625 c 0
 501 630.075195312 505.25 625.825195312 506.950195312 620.724609375 c 0
 506.950195312 619.025390625 507.799804688 615.625 507.799804688 612.224609375 c 0
 507.799804688 608.825195312 506.099609375 604.575195312 504.400390625 598.625 c 0
 503.549804688 594.375 501.849609375 590.125 498.450195312 587.575195312 c 0
 495.049804688 585.025390625 491.650390625 583.325195312 489.099609375 583.325195312 c 2
 481.450195312 583.325195312 l 2
 476.349609375 583.325195312 471.25 584.174804688 466.150390625 585.875 c 0
 461.900390625 586.724609375 456.799804688 590.125 450.849609375 593.525390625 c 0
 444.900390625 596.924804688 437.25 600.325195312 427.900390625 602.875 c 0
 418.549804688 605.424804688 406.650390625 607.974609375 393.900390625 607.974609375 c 2
 386.25 608.825195312 l 1
 375.200195312 557.825195312 359.900390625 491.525390625 342.049804688 409.075195312 c 1
 352.25 407.375 l 2
 372.650390625 403.974609375 389.650390625 398.025390625 404.099609375 390.375 c 0
 419.400390625 381.875 430.450195312 372.525390625 438.950195312 362.325195312 c 0
 447.450195312 352.125 453.400390625 341.075195312 456.799804688 328.325195312 c 0
 460.200195312 315.575195312 462.75 301.974609375 462.75 288.375 c 0
 462.75 274.775390625 461.049804688 261.174804688 456.799804688 244.174804688 c 0
 450.849609375 219.525390625 442.349609375 195.724609375 428.75 173.625 c 0
 415.150390625 151.525390625 400.700195312 132.825195312 383.700195312 115.825195312 c 0
 366.700195312 98.8251953125 348.849609375 85.224609375 329.299804688 73.3251953125 c 0
 309.75 61.4248046875 289.349609375 52.0751953125 268.099609375 46.125 c 2
 263 44.4248046875 l 1
 255.349609375 7.025390625 250.25 -18.474609375 248.549804688 -30.375 c 0
 245.150390625 -39.724609375 240.049804688 -48.224609375 233.25 -53.3251953125 c 0
 226.450195312 -58.4248046875 219.650390625 -60.974609375 212 -60.974609375 c 2
 211.150390625 -60.974609375 l 2
 209.450195312 -60.974609375 206.900390625 -60.125 205.200195312 -60.125 c 0
 202.650390625 -58.4248046875 200.950195312 -55.025390625 200.950195312 -49.0751953125 c 0
 200.950195312 -44.8251953125 201.799804688 -38.875 203.5 -31.224609375 c 0
 207.75 -17.625 212.849609375 5.3251953125 219.650390625 36.775390625 c 1
 207.75 36.775390625 l 1
 204.349609375 36.775390625 l 2
 187.349609375 36.775390625 172.900390625 39.3251953125 158.450195312 44.4248046875 c 0
243.450195312 449.025390625 m 0
 254.5 433.724609375 270.650390625 422.674804688 292.75 415.875 c 2
 302.099609375 413.325195312 l 1
 312.299804688 459.224609375 325.900390625 522.974609375 342.900390625 604.575195312 c 1
 327.599609375 599.474609375 l 2
 303.799804688 591.825195312 283.400390625 580.775390625 266.400390625 563.775390625 c 0
 249.400390625 546.775390625 238.349609375 527.224609375 234.099609375 504.275390625 c 0
 232.400390625 498.325195312 231.549804688 493.224609375 231.549804688 487.275390625 c 0
 231.549804688 472.825195312 235.799804688 460.075195312 243.450195312 449.025390625 c 0
404.099609375 256.075195312 m 0
 404.099609375 266.275390625 402.400390625 277.325195312 398.150390625 290.075195312 c 0
 394.75 301.125 387.950195312 311.325195312 377.75 320.674804688 c 0
 367.549804688 330.025390625 354.799804688 338.525390625 338.650390625 345.325195312 c 2
 328.450195312 350.424804688 l 1
 325.900390625 338.525390625 l 1
 325.900390625 338.525390625 316.549804688 295.174804688 298.700195312 211.025390625 c 0
 288.5 164.275390625 280 126.025390625 273.200195312 96.275390625 c 1
 290.200195312 103.924804688 l 2
 317.400390625 115.825195312 341.200195312 131.974609375 361.599609375 153.224609375 c 0
 382 174.474609375 394.75 198.275390625 400.700195312 225.474609375 c 0
 402.400390625 235.674804688 404.099609375 245.875 404.099609375 256.075195312 c 0
EndSplineSet
Validated: 524289
EndChar

StartChar: percent
Encoding: 37 37 15
Width: 548
VWidth: 899
GlyphClass: 2
Flags: HMW
HStem: 35.45 44.2<326.325 356.5 333.55 356.5> 205.45 41.65<379.875 380.725> 426.45 43.35<214.125 243.45 221.35 243.45> 597.3 40.8<268.525 272.35>
VStem: 166.1 34.85<493.175 513.575> 278.3 34.85<103.025 122.575> 304.65 34.85<550.125 582.85> 416 29.75<133.2 170.6> 416 38.25<159.125 192.7>
LayerCount: 2
Fore
SplineSet
185.650390625 440.900390625 m 0xfa
 176.299804688 450.25 169.5 462.150390625 167.799804688 476.599609375 c 0
 166.950195312 482.549804688 166.099609375 489.349609375 166.099609375 497 c 0
 166.099609375 504.650390625 166.950195312 514.849609375 169.5 525.900390625 c 0
 177.150390625 559.049804688 190.75 585.400390625 210.299804688 606.650390625 c 0
 229.849609375 627.900390625 254.5 638.099609375 282.549804688 638.099609375 c 0
 304.650390625 638.099609375 320.799804688 629.599609375 331 613.450195312 c 0
 336.950195312 604.099609375 339.5 591.349609375 339.5 574.349609375 c 0
 339.5 559.900390625 336.950195312 542.900390625 331.849609375 524.200195312 c 0
 324.200195312 491.900390625 310.599609375 468.099609375 292.75 451.099609375 c 0
 274.900390625 434.099609375 251.950195312 426.450195312 222.200195312 426.450195312 c 2
 221.349609375 426.450195312 l 2
 206.900390625 426.450195312 195 431.549804688 185.650390625 440.900390625 c 0xfa
81.099609375 59.25 m 0
 99.7998046875 86.4501953125 137.200195312 137.450195312 192.450195312 212.25 c 2
 358.200195312 448.549804688 l 2
 414.299804688 527.599609375 453.400390625 583.700195312 475.5 618.549804688 c 0
 482.299804688 627.049804688 489.950195312 632.150390625 498.450195312 633.849609375 c 0
 501 633.849609375 504.400390625 634.700195312 506.099609375 634.700195312 c 0
 510.349609375 634.700195312 513.75 633 518 630.450195312 c 0
 520.549804688 629.599609375 522.25 627.900390625 523.099609375 627.049804688 c 0
 523.950195312 626.200195312 524.799804688 622.799804688 524.799804688 621.099609375 c 0
 524.799804688 614.299804688 521.400390625 604.950195312 512.049804688 593.900390625 c 0
 484 559.049804688 419.400390625 471.5 319.099609375 329.549804688 c 0
 221.349609375 187.599609375 154.200195312 92.400390625 118.5 41.400390625 c 0
 110.849609375 31.2001953125 104.049804688 24.400390625 98.099609375 20.150390625 c 0
 93.849609375 17.599609375 89.599609375 15.900390625 86.2001953125 15.900390625 c 0
 82.7998046875 15.900390625 80.25 16.75 77.7001953125 18.4501953125 c 0
 75.150390625 20.150390625 71.75 22.7001953125 70.900390625 24.400390625 c 0
 70.0498046875 26.099609375 69.2001953125 28.650390625 69.2001953125 31.2001953125 c 0
 69.2001953125 38.849609375 73.4501953125 48.2001953125 81.099609375 59.25 c 0
241.75 469.799804688 m 2
 243.450195312 469.799804688 l 2
 257.900390625 469.799804688 269.799804688 474.900390625 279.150390625 485.950195312 c 0
 288.5 497 296.150390625 510.599609375 301.25 527.599609375 c 0
 302.950195312 536.950195312 304.650390625 546.299804688 304.650390625 553.950195312 c 0
 304.650390625 563.299804688 303.799804688 571.799804688 299.549804688 578.599609375 c 0
 291.900390625 591.349609375 280.849609375 597.299804688 263.849609375 597.299804688 c 0
 249.400390625 597.299804688 236.650390625 591.349609375 226.450195312 578.599609375 c 0
 217.099609375 567.549804688 209.450195312 552.25 204.349609375 533.549804688 c 0
 202.650390625 525.049804688 200.950195312 517.400390625 200.950195312 509.75 c 0
 200.950195312 502.099609375 201.799804688 496.150390625 204.349609375 490.200195312 c 0
 210.299804688 478.299804688 223.049804688 471.5 241.75 469.799804688 c 2
297.849609375 49.900390625 m 0
 288.5 59.25 282.549804688 71.150390625 280 85.599609375 c 0
 279.150390625 91.5498046875 278.299804688 99.2001953125 278.299804688 106.849609375 c 0xfc80
 278.299804688 114.5 280 123.849609375 281.700195312 134.900390625 c 0
 288.5 168.049804688 302.950195312 194.400390625 322.5 215.650390625 c 0
 342.049804688 236.900390625 365.849609375 247.099609375 393.900390625 247.099609375 c 0
 404.950195312 247.099609375 415.150390625 245.400390625 422.799804688 241.150390625 c 0
 431.299804688 236.900390625 438.950195312 230.950195312 444.900390625 222.450195312 c 0
 450.849609375 213.950195312 454.25 201.200195312 454.25 184.200195312 c 0
 454.25 169.75 451.700195312 152.75 445.75 134.049804688 c 1xfd
 445.75 133.200195312 l 1
 436.400390625 100.900390625 422.799804688 76.25 404.950195312 59.25 c 0
 387.099609375 43.099609375 364.150390625 35.4501953125 336.099609375 35.4501953125 c 2
 333.549804688 35.4501953125 l 2
 319.099609375 35.4501953125 307.200195312 40.5498046875 297.849609375 49.900390625 c 0
353.950195312 79.650390625 m 2
 356.5 79.650390625 l 2
 370.099609375 79.650390625 382 84.75 391.349609375 95.7998046875 c 0
 400.700195312 106.849609375 408.349609375 119.599609375 412.599609375 136.599609375 c 0
 414.299804688 145.950195312 416 155.299804688 416 162.950195312 c 0
 416 178.25 412.599609375 189.299804688 403.25 196.950195312 c 0
 395.599609375 202.900390625 386.25 205.450195312 375.200195312 205.450195312 c 0
 360.75 205.450195312 348.849609375 198.650390625 338.650390625 186.75 c 0
 328.450195312 175.700195312 320.799804688 160.400390625 316.549804688 142.549804688 c 0
 314.849609375 134.049804688 313.150390625 126.400390625 313.150390625 118.75 c 0
 313.150390625 111.099609375 314.849609375 105.150390625 317.400390625 99.2001953125 c 0
 323.349609375 87.2998046875 335.25 80.5 353.950195312 79.650390625 c 2
EndSplineSet
Validated: 524289
EndChar

StartChar: ampersand
Encoding: 38 38 16
Width: 548
VWidth: 901
GlyphClass: 2
Flags: HMW
HStem: 26.5751 58.65 609.675 46.75
VStem: 87.9 60.35<140.476 172.351> 239.2 54.4<511.076 511.926> 381.15 60.35<58.026 80.1251>
LayerCount: 2
Fore
SplineSet
438.099609375 55.4755859375 m 0
 433.849609375 41.875 427.900390625 33.3759765625 421.099609375 30.826171875 c 0
 416.849609375 29.1259765625 413.450195312 27.42578125 410.049804688 27.42578125 c 0
 405.799804688 27.42578125 402.400390625 29.1259765625 399 30.826171875 c 0
 391.349609375 35.92578125 385.400390625 45.2763671875 381.150390625 58.0263671875 c 0
 381.150390625 61.42578125 379.450195312 69.92578125 377.75 83.5263671875 c 0
 376.049804688 97.1259765625 374.349609375 106.475585938 372.650390625 113.276367188 c 2
 368.400390625 133.67578125 l 1
 354.799804688 118.375976562 l 2
 353.099609375 116.67578125 348.849609375 110.725585938 342.049804688 103.92578125 c 2
 326.75 88.6259765625 l 2
 310.599609375 72.4755859375 299.549804688 62.2763671875 292.75 58.0263671875 c 0
 287.650390625 54.6259765625 280.849609375 51.2255859375 273.200195312 46.1259765625 c 0
 265.549804688 41.0263671875 257.900390625 36.7763671875 251.099609375 35.076171875 c 0
 244.299804688 33.3759765625 236.650390625 30.826171875 227.299804688 29.1259765625 c 0
 217.950195312 27.42578125 209.450195312 26.576171875 200.950195312 26.576171875 c 0
 173.75 26.576171875 150.799804688 34.2255859375 132.099609375 48.67578125 c 0
 113.400390625 63.1259765625 99.7998046875 82.67578125 93 107.326171875 c 0
 89.599609375 120.076171875 87.900390625 133.67578125 87.900390625 147.276367188 c 0
 87.900390625 160.875976562 89.599609375 174.475585938 93 188.92578125 c 0
 116.799804688 292.625976562 172.049804688 363.17578125 260.450195312 400.576171875 c 2
 269.799804688 404.826171875 l 1
 256.200195312 442.225585938 248.549804688 464.326171875 246.849609375 468.576171875 c 0
 245.150390625 473.67578125 243.450195312 480.475585938 241.75 487.276367188 c 0
 240.049804688 494.076171875 239.200195312 500.026367188 239.200195312 504.276367188 c 0
 239.200195312 519.576171875 240.900390625 534.875976562 244.299804688 550.17578125 c 0
 248.549804688 568.875976562 257.900390625 588.42578125 273.200195312 606.276367188 c 0
 280.849609375 615.625976562 290.200195312 624.975585938 300.400390625 631.776367188 c 0
 310.599609375 638.576171875 323.349609375 644.526367188 338.650390625 649.625976562 c 0
 353.950195312 654.725585938 369.25 656.42578125 387.099609375 656.42578125 c 0
 401.549804688 656.42578125 415.150390625 654.725585938 427.049804688 649.625976562 c 0
 438.950195312 644.526367188 449.150390625 637.725585938 457.650390625 629.225585938 c 0
 466.150390625 620.725585938 471.25 609.67578125 474.650390625 595.225585938 c 0
 476.255859375 588.403320312 477.102539062 581.012695312 477.102539062 573.142578125 c 0
 477.102539062 564.34375 476.043945312 554.946289062 473.799804688 545.075195312 c 0
 469.549804688 528.075195312 463.599609375 511.924804688 455.950195312 497.475585938 c 0
 448.299804688 483.025390625 440.650390625 470.275390625 432.150390625 460.075195312 c 0
 423.650390625 449.875 413.450195312 440.525390625 401.549804688 431.174804688 c 0
 389.650390625 421.825195312 378.599609375 414.174804688 369.25 409.075195312 c 0
 359.900390625 403.975585938 349.700195312 398.875 336.950195312 392.924804688 c 2
 329.299804688 388.674804688 l 1
 331.849609375 380.174804688 l 2
 337.799804688 362.325195312 348 335.975585938 362.450195312 301.125 c 0
 376.900390625 266.275390625 386.25 244.174804688 390.5 233.125 c 2
 397.299804688 213.575195312 l 1
 410.049804688 232.275390625 420.25 248.424804688 427.049804688 258.625 c 0
 433.849609375 268.825195312 439.799804688 277.325195312 444.049804688 283.275390625 c 0
 448.299804688 289.225585938 451.700195312 294.325195312 453.400390625 296.875 c 0
 465.299804688 310.475585938 474.650390625 318.975585938 482.299804688 321.525390625 c 0
 484 322.375 487.400390625 323.225585938 489.099609375 323.225585938 c 0
 492.5 323.225585938 495.900390625 321.525390625 500.150390625 319.825195312 c 0
 504.400390625 317.275390625 506.099609375 312.174804688 506.099609375 306.225585938 c 0
 506.099609375 295.174804688 500.150390625 282.424804688 490.799804688 267.975585938 c 0
 487.400390625 262.875 477.200195312 251.825195312 460.200195312 233.975585938 c 0
 443.200195312 216.125 427.049804688 199.125 412.599609375 181.275390625 c 1
 416.849609375 167.674804688 422.799804688 149.825195312 428.75 130.275390625 c 0
 434.700195312 110.725585938 438.099609375 97.9755859375 438.950195312 93.7255859375 c 0
 439.799804688 89.4755859375 441.5 83.525390625 441.5 76.7255859375 c 0
 441.5 69.9248046875 439.799804688 63.125 438.099609375 55.4755859375 c 0
369.25 609.67578125 m 0
 348 609.67578125 331 602.026367188 318.25 587.576171875 c 0
 308.049804688 575.67578125 300.400390625 559.526367188 296.150390625 539.975585938 c 0
 294.450195312 532.326171875 293.599609375 523.826171875 293.599609375 515.326171875 c 0
 293.599609375 506.826171875 294.450195312 498.326171875 296.150390625 488.975585938 c 0
 298.700195312 470.276367188 304.650390625 454.125976562 312.299804688 440.526367188 c 2
 316.549804688 433.725585938 l 1
 325.049804688 436.276367188 l 2
 337.799804688 440.526367188 349.700195312 444.776367188 359.049804688 449.026367188 c 0
 368.400390625 453.276367188 377.75 459.225585938 387.099609375 466.875976562 c 0
 396.450195312 474.526367188 404.950195312 483.026367188 410.900390625 494.076171875 c 0
 416.849609375 505.125976562 421.950195312 518.725585938 425.349609375 533.17578125 c 0
 427.049804688 540.826171875 428.75 548.475585938 428.75 555.276367188 c 0
 428.75 569.725585938 424.5 580.776367188 416.849609375 590.125976562 c 0
 404.950195312 602.875976562 388.799804688 609.67578125 369.25 609.67578125 c 0
159.299804688 120.92578125 m 0
 172.049804688 97.1259765625 193.299804688 85.2255859375 221.349609375 85.2255859375 c 0
 234.099609375 85.2255859375 248.549804688 87.7763671875 265.549804688 92.8759765625 c 0
 271.5 94.576171875 278.299804688 98.826171875 285.099609375 103.076171875 c 0
 291.900390625 107.326171875 296.150390625 109.875976562 300.400390625 112.42578125 c 0
 304.650390625 114.975585938 308.900390625 119.225585938 314.849609375 125.17578125 c 0
 320.799804688 131.125976562 325.900390625 135.375976562 327.599609375 137.92578125 c 0
 329.299804688 140.475585938 333.549804688 143.875976562 338.650390625 149.826171875 c 0
 343.75 155.776367188 347.150390625 159.17578125 348 160.026367188 c 2
 352.25 164.276367188 l 1
 347.150390625 189.776367188 342.900390625 209.326171875 339.5 222.076171875 c 0
 335.25 235.67578125 326.75 256.92578125 314.849609375 286.67578125 c 0
 302.950195312 316.42578125 294.450195312 337.67578125 289.349609375 352.125976562 c 2
 285.099609375 362.326171875 l 1
 274.900390625 358.076171875 l 2
 257.049804688 350.42578125 240.900390625 341.076171875 226.450195312 329.17578125 c 0
 212 317.276367188 200.099609375 304.526367188 190.75 290.92578125 c 0
 181.400390625 277.326171875 173.75 262.875976562 167.799804688 248.42578125 c 0
 161.849609375 233.975585938 157.599609375 218.67578125 153.349609375 201.67578125 c 0
 149.950195312 188.92578125 148.25 177.875976562 148.25 166.826171875 c 0
 148.25 148.975585938 151.650390625 133.67578125 159.299804688 120.92578125 c 0
EndSplineSet
Validated: 524289
EndChar

StartChar: quotesingle
Encoding: 39 39 17
Width: 548
VWidth: 941
GlyphClass: 2
Flags: HMW
HStem: 480.65 256.7<262.956 330.106 262.956 330.106>
LayerCount: 2
Fore
SplineSet
330.956054688 737.349609375 m 2
 337.755859375 737.349609375 343.706054688 735.650390625 348.805664062 732.25 c 0
 349.65625 731.400390625 351.356445312 728.849609375 352.206054688 725.450195312 c 0
 353.055664062 722.049804688 352.206054688 717.799804688 351.356445312 711.849609375 c 0
 346.255859375 689.75 338.606445312 654.900390625 326.706054688 608.150390625 c 0
 314.805664062 561.400390625 305.456054688 527.400390625 298.65625 507.849609375 c 0
 295.255859375 498.5 290.15625 490.849609375 283.356445312 486.599609375 c 0
 276.555664062 482.349609375 270.606445312 480.650390625 264.65625 480.650390625 c 2
 262.956054688 480.650390625 l 2
 254.456054688 481.5 247.65625 484.900390625 243.40625 489.150390625 c 0
 241.706054688 490.849609375 240.856445312 493.400390625 240.856445312 496.799804688 c 0
 240.856445312 500.200195312 241.706054688 502.75 242.555664062 507 c 0
 251.055664062 536.75 259.555664062 569.900390625 268.055664062 609 c 0
 276.555664062 648.099609375 284.206054688 682.950195312 290.15625 712.700195312 c 0
 290.15625 717.799804688 291.856445312 722.900390625 295.255859375 726.299804688 c 0
 298.65625 729.700195312 302.055664062 732.25 305.456054688 733.099609375 c 0
 313.106445312 735.650390625 319.90625 737.349609375 325.856445312 737.349609375 c 2
 330.106445312 737.349609375 l 1
 330.956054688 737.349609375 l 2
EndSplineSet
Validated: 524289
EndChar

StartChar: parenleft
Encoding: 40 40 18
Width: 548
VWidth: 901
GlyphClass: 2
Flags: HMW
HStem: -49.925 51<242.1 278.225> 684.475 48.45<418.9 446.95>
VStem: 133.725 60.35<170.65 176.6>
LayerCount: 2
Fore
SplineSet
274.825195312 1.0751953125 m 0
 281.625 1.0751953125 285.875 -0.625 287.575195312 -3.1748046875 c 0
 288.424804688 -4.025390625 290.125 -5.724609375 290.125 -9.125 c 0
 290.125 -12.525390625 288.424804688 -17.625 287.575195312 -25.275390625 c 0
 285.875 -32.0751953125 282.474609375 -37.1748046875 275.674804688 -42.275390625 c 0
 268.875 -47.375 262.924804688 -49.9248046875 257.825195312 -49.9248046875 c 0
 226.375 -49.9248046875 200.025390625 -38.025390625 179.625 -13.375 c 0
 158.375 12.974609375 144.775390625 48.6748046875 137.974609375 95.4248046875 c 0
 135.424804688 116.674804688 133.724609375 138.775390625 133.724609375 161.724609375 c 0
 133.724609375 191.474609375 135.424804688 223.775390625 140.525390625 258.625 c 0
 146.474609375 300.275390625 160.075195312 353.825195312 180.474609375 419.275390625 c 0
 200.875 484.724609375 222.974609375 539.125 247.625 580.775390625 c 0
 258.674804688 598.625 271.424804688 617.325195312 286.724609375 635.174804688 c 0
 302.025390625 653.025390625 318.174804688 669.174804688 336.025390625 683.625 c 0
 353.875 698.075195312 372.575195312 709.974609375 391.275390625 719.325195312 c 0
 409.974609375 728.674804688 426.974609375 732.924804688 443.974609375 732.924804688 c 0
 449.924804688 732.924804688 454.174804688 732.075195312 455.875 730.375 c 0
 457.575195312 728.674804688 459.275390625 725.275390625 459.275390625 721.025390625 c 0
 459.275390625 718.474609375 459.275390625 715.075195312 458.424804688 710.825195312 c 0
 456.724609375 701.474609375 452.474609375 694.674804688 446.525390625 690.424804688 c 0
 440.575195312 686.174804688 434.625 684.474609375 426.974609375 684.474609375 c 0
 410.825195312 684.474609375 396.375 680.224609375 381.075195312 670.875 c 0
 365.775390625 661.525390625 351.325195312 648.775390625 338.575195312 633.474609375 c 0
 313.924804688 604.575195312 292.674804688 568.875 273.974609375 525.525390625 c 0
 259.525390625 495.775390625 245.075195312 454.974609375 230.625 403.125 c 0
 216.174804688 351.275390625 206.825195312 309.625 201.724609375 279.025390625 c 0
 196.625 248.424804688 194.075195312 218.674804688 194.075195312 190.625 c 0
 194.075195312 150.674804688 198.325195312 115.825195312 205.974609375 86.0751953125 c 0
 211.924804688 61.4248046875 221.275390625 41.875 232.325195312 26.5751953125 c 0
 245.075195312 9.5751953125 258.674804688 1.0751953125 274.825195312 1.0751953125 c 0
EndSplineSet
Validated: 524289
EndChar

StartChar: parenright
Encoding: 41 41 19
Width: 548
VWidth: 901
GlyphClass: 2
Flags: HMW
HStem: -49.925 51<162.275 165.675> 684.475 48.45<316.975 342.475>
VStem: 404.1 55.25<520 536.575>
LayerCount: 2
Fore
SplineSet
459.349609375 536.575195312 m 0
 459.349609375 503.424804688 455.950195312 466.025390625 450 423.525390625 c 0
 440.650390625 358.075195312 428.75 304.525390625 415.150390625 263.724609375 c 0
 395.599609375 201.674804688 371.799804688 147.275390625 342.900390625 99.6748046875 c 0
 314 52.0751953125 283.400390625 15.525390625 249.400390625 -10.8251953125 c 0
 215.400390625 -37.1748046875 182.25 -49.9248046875 149.099609375 -49.9248046875 c 0
 144.849609375 -49.9248046875 140.599609375 -48.224609375 137.200195312 -43.974609375 c 0
 135.5 -42.275390625 134.650390625 -38.875 134.650390625 -35.474609375 c 2
 134.650390625 -30.375 l 2
 137.200195312 -17.625 141.450195312 -9.125 146.549804688 -4.875 c 0
 151.650390625 -0.625 158.450195312 1.0751953125 166.099609375 1.0751953125 c 0
 180.549804688 1.0751953125 197.549804688 8.724609375 216.25 24.875 c 0
 234.099609375 39.3251953125 251.099609375 59.724609375 268.950195312 83.525390625 c 0
 286.799804688 107.325195312 302.950195312 135.375 319.950195312 169.375 c 0
 336.950195312 203.375 349.700195312 236.525390625 360.75 271.375 c 0
 370.950195312 303.674804688 381.150390625 347.025390625 390.5 399.724609375 c 0
 399.849609375 452.424804688 404.099609375 494.924804688 404.099609375 527.224609375 c 0
 404.099609375 545.924804688 403.25 563.775390625 400.700195312 581.625 c 0
 398.150390625 599.474609375 393.900390625 614.775390625 387.950195312 630.924804688 c 0
 382 647.075195312 373.5 659.825195312 361.599609375 670.025390625 c 0
 349.700195312 680.224609375 336.099609375 684.474609375 319.950195312 684.474609375 c 0
 314 684.474609375 308.900390625 686.174804688 305.5 689.575195312 c 0
 303.799804688 691.275390625 302.950195312 692.974609375 302.950195312 696.375 c 0
 302.950195312 699.775390625 303.799804688 704.025390625 304.650390625 708.275390625 c 0
 305.5 712.525390625 308.049804688 717.625 310.599609375 721.025390625 c 0
 313.150390625 724.424804688 315.700195312 726.974609375 317.400390625 727.825195312 c 0
 323.349609375 731.224609375 328.450195312 732.924804688 334.400390625 732.924804688 c 0
 350.549804688 732.924804688 365.849609375 728.674804688 380.299804688 720.174804688 c 0
 394.75 711.674804688 406.650390625 700.625 416.849609375 686.174804688 c 0
 427.049804688 671.724609375 436.400390625 655.575195312 443.200195312 637.724609375 c 0
 450 619.875 455.099609375 602.025390625 456.799804688 584.174804688 c 0
 458.5 569.724609375 459.349609375 554.424804688 459.349609375 536.575195312 c 0
EndSplineSet
Validated: 524289
EndChar

StartChar: asterisk
Encoding: 42 42 20
Width: 548
VWidth: 902
GlyphClass: 2
Flags: HMW
HStem: 311.3 68<126.575 145.7> 318.1 60.35<456.8 474.225> 323.2 44.2<374.775 383.275 339.5 398.15>
VStem: 227.3 52.7 312.3 56.1<175.3 199.1>
LayerCount: 2
Fore
SplineSet
334.400390625 161.700195312 m 0x98
 328.450195312 161.700195312 323.349609375 163.400390625 319.099609375 165.950195312 c 0
 317.400390625 166.799804688 314.849609375 168.5 314 170.200195312 c 0
 313.150390625 171.900390625 312.299804688 174.450195312 312.299804688 176.150390625 c 0
 311.450195312 199.099609375 305.5 233.099609375 294.450195312 276.450195312 c 2
 288.5 298.549804688 l 1
 275.75 279.849609375 l 2
 238.349609375 227.150390625 214.549804688 192.299804688 205.200195312 175.299804688 c 0
 202.650390625 170.200195312 198.400390625 165.950195312 194.150390625 163.400390625 c 0
 189.900390625 161.700195312 184.799804688 159.150390625 180.549804688 159.150390625 c 2
 175.450195312 159.150390625 l 2
 173.75 159.150390625 170.349609375 159.150390625 166.950195312 160 c 0
 163.549804688 160.849609375 159.299804688 162.549804688 157.599609375 164.25 c 0
 155.900390625 165.950195312 153.349609375 168.5 152.5 171.900390625 c 0
 151.650390625 175.299804688 150.799804688 177.849609375 150.799804688 180.400390625 c 2
 150.799804688 187.200195312 l 2
 150.799804688 193.150390625 154.200195312 199.099609375 159.299804688 206.75 c 2
 247.700195312 317.25 l 1
 224.75 316.400390625 l 2
 181.400390625 313 149.099609375 311.299804688 128.700195312 311.299804688 c 0
 124.450195312 311.299804688 120.200195312 313 117.650390625 313.849609375 c 0
 115.099609375 314.700195312 112.549804688 317.25 110.849609375 319.799804688 c 0
 108.299804688 324.049804688 106.599609375 328.299804688 106.599609375 333.400390625 c 2
 108.299804688 341.900390625 l 2
 108.299804688 346.150390625 110 350.400390625 111.700195312 354.650390625 c 0
 117.650390625 365.700195312 123.599609375 373.349609375 131.25 376.75 c 0
 135.5 378.450195312 138.900390625 379.299804688 143.150390625 379.299804688 c 2
 145.700195312 379.299804688 l 2
 169.5 377.599609375 209.450195312 374.200195312 266.400390625 369.950195312 c 1
 261.299804688 384.400390625 l 2
 248.549804688 426.049804688 236.650390625 457.5 227.299804688 479.599609375 c 0
 225.599609375 484.700195312 224.75 489.799804688 224.75 494.900390625 c 0
 224.75 500 225.599609375 505.950195312 227.299804688 511.049804688 c 0
 230.700195312 520.400390625 235.799804688 527.200195312 242.599609375 529.75 c 0
 247.700195312 533.150390625 252.799804688 534.849609375 257.900390625 534.849609375 c 0
 262.150390625 534.849609375 267.25 533.150390625 271.5 529.75 c 0
 275.75 526.349609375 279.150390625 521.25 280 515.299804688 c 0
 282.549804688 501.700195312 291.900390625 462.599609375 308.900390625 397.150390625 c 1
 322.5 414.150390625 l 2
 352.25 452.400390625 376.049804688 484.700195312 393.049804688 511.049804688 c 0
 397.299804688 518.700195312 403.25 524.650390625 409.200195312 528.049804688 c 0
 415.150390625 531.450195312 421.099609375 533.150390625 425.349609375 533.150390625 c 0
 429.599609375 533.150390625 433.849609375 531.450195312 436.400390625 528.900390625 c 2
 437.25 528.900390625 l 2
 438.950195312 528.049804688 441.5 525.5 442.349609375 521.25 c 0
 442.349609375 519.549804688 443.200195312 516.150390625 443.200195312 513.599609375 c 0
 443.200195312 502.549804688 439.799804688 492.349609375 431.299804688 483 c 0
 408.349609375 456.650390625 381.150390625 423.5 351.400390625 383.549804688 c 2
 339.5 367.400390625 l 1x38
 359.900390625 367.400390625 l 2
 406.650390625 367.400390625 441.5 370.799804688 463.599609375 376.75 c 0
 467 377.599609375 470.400390625 378.450195312 472.099609375 378.450195312 c 0x58
 476.349609375 378.450195312 479.75 375.900390625 481.450195312 373.349609375 c 0
 484.849609375 369.099609375 487.400390625 364 487.400390625 359.75 c 0
 487.400390625 355.5 485.700195312 349.549804688 482.299804688 341.900390625 c 0
 476.349609375 330.849609375 470.400390625 323.200195312 463.599609375 319.799804688 c 0
 461.900390625 318.950195312 459.349609375 318.099609375 457.650390625 318.099609375 c 0
 455.950195312 318.099609375 454.25 318.950195312 453.400390625 318.950195312 c 0
 439.799804688 321.5 416 323.200195312 380.299804688 323.200195312 c 0x38
 369.25 323.200195312 353.099609375 322.349609375 331.849609375 322.349609375 c 1
 366.700195312 211 l 2
 367.549804688 206.75 368.400390625 201.650390625 368.400390625 196.549804688 c 0
 368.400390625 191.450195312 367.549804688 187.200195312 365.849609375 182.950195312 c 0
 363.299804688 175.299804688 359.049804688 169.349609375 353.950195312 165.950195312 c 0
 348.849609375 162.549804688 342.049804688 161.700195312 334.400390625 161.700195312 c 0x98
EndSplineSet
Validated: 524289
EndChar

StartChar: plus
Encoding: 43 43 21
Width: 548
VWidth: 910
GlyphClass: 2
Flags: HMW
HStem: 374.5 50.15<255.35 280 255.35 280>
LayerCount: 2
Fore
SplineSet
175.450195312 373.650390625 m 2
 166.099609375 373.650390625 159.299804688 375.349609375 157.599609375 379.599609375 c 0
 155.900390625 382.150390625 154.200195312 385.549804688 154.200195312 389.799804688 c 0
 154.200195312 391.5 155.049804688 394.900390625 155.049804688 397.450195312 c 0
 156.75 405.950195312 161 412.75 166.950195312 418.700195312 c 0
 172.900390625 423.799804688 179.700195312 426.349609375 189.049804688 426.349609375 c 2
 191.599609375 426.349609375 l 2
 228.150390625 425.5 254.5 424.650390625 271.5 424.650390625 c 2
 280 424.650390625 l 1
 287.650390625 458.650390625 295.299804688 491.799804688 301.25 524.950195312 c 0
 302.099609375 533.450195312 305.5 540.25 309.75 544.5 c 0
 315.700195312 550.450195312 323.349609375 553 333.549804688 553 c 2
 336.099609375 553 l 2
 342.049804688 553 347.150390625 551.299804688 350.549804688 548.75 c 0
 351.400390625 547.900390625 352.25 545.349609375 352.25 541.950195312 c 0
 352.25 538.549804688 351.400390625 535.150390625 349.700195312 530.049804688 c 0
 340.349609375 496.900390625 331.849609375 461.200195312 322.5 422.950195312 c 1
 422.799804688 422.950195312 l 2
 431.299804688 422.950195312 436.400390625 421.25 437.25 419.549804688 c 0
 438.099609375 417.849609375 439.799804688 415.299804688 439.799804688 411.049804688 c 0
 439.799804688 405.099609375 438.099609375 398.299804688 435.549804688 392.349609375 c 0
 433.849609375 388.950195312 431.299804688 385.549804688 428.75 382.150390625 c 0
 424.5 377.049804688 418.549804688 374.5 410.900390625 374.5 c 2
 410.900390625 374.5 409.200195312 375.349609375 407.5 375.349609375 c 0
 399 375.349609375 387.099609375 376.200195312 370.099609375 376.200195312 c 0
 353.099609375 376.200195312 333.549804688 375.349609375 310.599609375 375.349609375 c 1
 306.349609375 354.950195312 301.25 334.549804688 297 313.299804688 c 0
 292.75 292.049804688 289.349609375 279.299804688 288.5 275.049804688 c 0
 285.950195312 264 281.700195312 257.200195312 277.450195312 252.950195312 c 0
 272.349609375 249.549804688 266.400390625 247 259.599609375 247 c 0
 253.650390625 247 249.400390625 247.849609375 246.849609375 249.549804688 c 0
 244.299804688 251.25 243.450195312 254.650390625 243.450195312 259.75 c 0
 243.450195312 263.150390625 243.450195312 266.549804688 244.299804688 270.799804688 c 2
 268.099609375 374.5 l 1
 255.349609375 374.5 l 1
 175.450195312 373.650390625 l 2
EndSplineSet
Validated: 524289
EndChar

StartChar: comma
Encoding: 44 44 22
Width: 548
VWidth: 845
GlyphClass: 2
Flags: HMW
VStem: 197.55 198.9
LayerCount: 2
Fore
SplineSet
197.549804688 -162.125 m 2
 197.549804688 -159.575195312 l 2
 197.549804688 -154.474609375 200.099609375 -148.525390625 206.049804688 -141.724609375 c 0
 221.349609375 -123.875 246 -85.625 279.150390625 -27.8251953125 c 0
 312.299804688 29.974609375 333.549804688 70.775390625 342.900390625 93.724609375 c 0
 344.599609375 99.6748046875 349.700195312 104.775390625 354.799804688 108.174804688 c 0
 359.900390625 111.575195312 365 113.275390625 369.25 113.275390625 c 2
 370.099609375 113.275390625 l 2
 375.200195312 113.275390625 380.299804688 112.424804688 384.549804688 111.575195312 c 0
 388.799804688 109.875 393.049804688 106.474609375 394.75 101.375 c 0
 395.599609375 99.6748046875 396.450195312 97.125 396.450195312 94.5751953125 c 0
 396.450195312 92.025390625 394.75 86.9248046875 393.049804688 80.974609375 c 0
 382 52.9248046875 360.75 11.275390625 330.150390625 -45.6748046875 c 0
 299.549804688 -102.625 278.299804688 -138.325195312 266.400390625 -151.075195312 c 0
 256.200195312 -162.125 245.150390625 -170.625 232.400390625 -174.875 c 0
 225.599609375 -176.575195312 219.650390625 -178.275390625 214.549804688 -178.275390625 c 0
 212 -178.275390625 208.599609375 -177.424804688 206.900390625 -176.575195312 c 0
 204.349609375 -175.724609375 201.799804688 -173.174804688 200.099609375 -171.474609375 c 0
 198.400390625 -168.924804688 197.549804688 -165.525390625 197.549804688 -162.125 c 2
EndSplineSet
Validated: 524289
EndChar

StartChar: hyphen
Encoding: 45 45 23
Width: 548
VWidth: 893
GlyphClass: 2
Flags: HMW
HStem: 259.875 52.7<197.154 231.154> 267.525 47.6<375.229 398.604>
LayerCount: 2
Fore
SplineSet
216.279296875 312.575195312 m 0x80
 246.029296875 312.575195312 281.729492188 312.575195312 323.379882812 313.424804688 c 0
 365.029296875 314.275390625 388.829101562 315.125 394.779296875 315.125 c 0x40
 402.4296875 315.125 407.529296875 313.424804688 409.229492188 311.724609375 c 0
 410.9296875 308.325195312 411.779296875 303.224609375 410.9296875 296.424804688 c 0
 409.229492188 287.075195312 404.129882812 279.424804688 399.879882812 275.174804688 c 0
 394.779296875 270.075195312 387.979492188 267.525390625 378.629882812 267.525390625 c 0
 371.829101562 267.525390625 344.629882812 265.825195312 297.879882812 263.275390625 c 0
 251.129882812 260.724609375 217.979492188 259.875 200.129882812 259.875 c 0
 194.1796875 259.875 189.079101562 260.724609375 186.529296875 262.424804688 c 0
 183.979492188 264.125 183.129882812 267.525390625 183.129882812 272.625 c 0
 183.129882812 276.025390625 183.979492188 279.424804688 184.829101562 283.674804688 c 0
 185.6796875 293.025390625 189.079101562 300.674804688 193.329101562 304.924804688 c 0
 199.279296875 310.025390625 206.9296875 312.575195312 216.279296875 312.575195312 c 0x80
EndSplineSet
Validated: 524289
EndChar

StartChar: period
Encoding: 46 46 24
Width: 548
VWidth: 859
GlyphClass: 2
Flags: HMW
HStem: 7.75 110.5<268.45 322.85 274.825 322.85>
VStem: 240.825 111.35<41.325 86.375>
LayerCount: 2
Fore
SplineSet
352.174804688 81.7001953125 m 0
 352.174804688 77.4501953125 351.325195312 72.349609375 350.474609375 67.25 c 0
 347.075195312 51.099609375 340.275390625 38.349609375 327.525390625 27.2998046875 c 0
 314.775390625 16.25 299.474609375 9.4501953125 281.625 7.75 c 2
 274.825195312 7.75 l 2
 262.075195312 7.75 253.575195312 12 247.625 20.5 c 0
 243.375 28.150390625 240.825195312 36.650390625 240.825195312 46 c 0
 240.825195312 51.099609375 241.674804688 56.2001953125 242.525390625 61.2998046875 c 0
 245.924804688 76.599609375 255.275390625 89.349609375 269.724609375 100.400390625 c 0
 285.875 112.299804688 300.325195312 118.25 316.474609375 118.25 c 0
 329.224609375 118.25 339.424804688 114 345.375 105.5 c 0
 349.625 98.7001953125 352.174804688 91.0498046875 352.174804688 81.7001953125 c 0
EndSplineSet
Validated: 524289
EndChar

StartChar: slash
Encoding: 47 47 25
Width: 548
VWidth: 901
GlyphClass: 2
Flags: W
LayerCount: 2
Fore
SplineSet
37.8251953125 25.5498046875 m 0
 37.8251953125 28.099609375 38.6748046875 31.5 38.6748046875 34.900390625 c 0
 40.375 49.349609375 47.1748046875 62.099609375 56.525390625 74.849609375 c 0
 165.325195312 210.849609375 258.825195312 331.549804688 337.875 437.799804688 c 0
 388.025390625 502.400390625 441.575195312 576.349609375 498.525390625 658.799804688 c 0
 504.474609375 666.450195312 509.575195312 672.400390625 516.375 675.799804688 c 0
 523.174804688 679.200195312 529.125 681.75 534.224609375 681.75 c 0
 539.325195312 681.75 543.575195312 680.049804688 548.674804688 678.349609375 c 0
 553.775390625 674.950195312 557.174804688 669.849609375 557.174804688 663.049804688 c 0
 557.174804688 655.400390625 551.224609375 645.200195312 543.575195312 632.450195312 c 0
 523.174804688 603.549804688 468.775390625 533 379.525390625 419.950195312 c 0
 290.275390625 306.900390625 235.875 237.200195312 216.325195312 209.150390625 c 0
 203.575195312 191.299804688 183.174804688 161.549804688 154.275390625 119.900390625 c 0
 125.375 78.25 107.525390625 52.75 100.724609375 43.400390625 c 0
 89.6748046875 28.9501953125 76.9248046875 19.599609375 64.1748046875 13.650390625 c 0
 58.224609375 11.9501953125 53.974609375 10.25 50.5751953125 10.25 c 0
 47.1748046875 10.25 43.775390625 11.099609375 42.0751953125 12.7998046875 c 2
 41.224609375 12.7998046875 l 2
 39.525390625 14.5 37.8251953125 19.599609375 37.8251953125 25.5498046875 c 0
EndSplineSet
Validated: 524289
EndChar

StartChar: zero
Encoding: 48 48 26
Width: 548
VWidth: 902
GlyphClass: 2
Flags: HMW
HStem: 41.85 51<225.525 225.95> 603.7 48.45<360.675 361.525>
VStem: 99.725 65.45<165.525 231.4>
LayerCount: 2
Fore
SplineSet
109.075195312 231.400390625 m 0
 109.924804688 237.349609375 112.474609375 251.799804688 117.575195312 273.900390625 c 0
 122.674804688 296 126.924804688 313.849609375 130.325195312 327.450195312 c 0
 133.724609375 341.049804688 138.825195312 358.900390625 144.775390625 381.849609375 c 0
 150.724609375 404.799804688 156.674804688 424.349609375 161.775390625 441.349609375 c 0
 166.875 458.349609375 173.674804688 477.049804688 182.174804688 495.75 c 0
 190.674804688 514.450195312 198.325195312 532.299804688 205.974609375 546.75 c 0
 224.674804688 581.599609375 248.474609375 607.099609375 278.224609375 624.950195312 c 0
 307.974609375 642.799804688 341.974609375 652.150390625 379.375 652.150390625 c 0
 398.075195312 652.150390625 415.924804688 648.75 431.224609375 641.099609375 c 0
 446.525390625 633.450195312 459.275390625 622.400390625 469.474609375 608.799804688 c 0
 479.674804688 595.200195312 486.474609375 577.349609375 490.724609375 554.400390625 c 0
 492.424804688 543.349609375 493.275390625 531.450195312 493.275390625 517.849609375 c 0
 493.275390625 504.25 491.575195312 490.650390625 489.875 473.650390625 c 0
 485.625 445.599609375 478.825195312 413.299804688 471.174804688 377.599609375 c 0
 463.525390625 341.900390625 454.174804688 305.349609375 443.974609375 269.650390625 c 0
 433.775390625 233.950195312 424.424804688 205.900390625 415.075195312 187.200195312 c 0
 398.075195312 151.5 381.075195312 121.75 364.075195312 100.5 c 0
 356.424804688 90.2998046875 349.625 80.9501953125 340.275390625 74.150390625 c 0
 330.924804688 67.349609375 322.424804688 61.400390625 313.924804688 57.150390625 c 0
 305.424804688 52.900390625 296.075195312 49.5 285.875 47.7998046875 c 0
 275.674804688 46.099609375 265.474609375 43.5498046875 255.275390625 42.7001953125 c 0
 245.075195312 41.849609375 233.174804688 41.849609375 218.724609375 41.849609375 c 0
 197.474609375 41.849609375 177.924804688 46.099609375 160.075195312 54.599609375 c 0
 142.224609375 63.099609375 129.474609375 75 119.275390625 91.150390625 c 0
 109.075195312 107.299804688 102.275390625 126.849609375 100.575195312 150.650390625 c 0
 100.575195312 156.599609375 99.724609375 162.549804688 99.724609375 168.5 c 0
 99.724609375 187.200195312 103.125 208.450195312 109.075195312 231.400390625 c 0
280.775390625 575.650390625 m 0
 261.224609375 556.950195312 243.375 527.200195312 226.375 486.400390625 c 0
 220.424804688 471.950195312 214.474609375 454.099609375 209.375 435.400390625 c 0
 204.275390625 416.700195312 198.325195312 393.75 192.375 366.549804688 c 0
 186.424804688 339.349609375 182.174804688 319.799804688 180.474609375 308.75 c 2
 168.575195312 249.25 l 2
 168.575195312 247.549804688 166.875 244.150390625 166.875 239.900390625 c 0
 166.875 235.650390625 165.174804688 232.25 165.174804688 230.549804688 c 2
 152.424804688 188.049804688 l 1
 183.025390625 220.349609375 l 1
 269.724609375 324.900390625 350.474609375 432 427.825195312 541.650390625 c 1
 432.075195312 545.900390625 l 1
 429.525390625 551.849609375 l 2
 421.875 568.849609375 411.674804688 580.75 398.075195312 590.099609375 c 0
 385.325195312 599.450195312 370.025390625 603.700195312 353.025390625 603.700195312 c 0
 324.974609375 603.700195312 300.325195312 594.349609375 280.775390625 575.650390625 c 0
270.575195312 97.099609375 m 0
 281.625 99.650390625 293.525390625 103.900390625 304.575195312 111.549804688 c 0
 327.525390625 125.150390625 347.075195312 151.5 364.924804688 189.75 c 0
 368.325195312 197.400390625 374.275390625 216.950195312 382.775390625 247.549804688 c 0
 392.125 278.150390625 402.325195312 313 412.525390625 352.950195312 c 0
 422.724609375 392.900390625 429.525390625 431.150390625 435.474609375 467.700195312 c 2
 442.275390625 512.75 l 1
 416.775390625 475.349609375 l 1
 337.724609375 351.25 255.275390625 247.549804688 166.875 163.400390625 c 1
 162.625 160 l 1
 163.474609375 154.049804688 l 2
 167.724609375 131.099609375 177.075195312 114.950195312 191.525390625 104.75 c 0
 202.575195312 97.099609375 217.025390625 92.849609375 234.025390625 92.849609375 c 0
 247.625 92.849609375 259.525390625 94.5498046875 270.575195312 97.099609375 c 0
EndSplineSet
Validated: 524289
EndChar

StartChar: one
Encoding: 49 49 27
Width: 548
VWidth: 904
GlyphClass: 2
Flags: HMW
HStem: 56.625 56.95
LayerCount: 2
Fore
SplineSet
469.474609375 94.025390625 m 2
 469.474609375 88.0751953125 l 2
 467.775390625 78.724609375 463.525390625 71.9248046875 457.575195312 65.974609375 c 0
 451.625 60.025390625 442.275390625 56.625 429.525390625 56.625 c 0
 256.974609375 58.3251953125 159.224609375 60.025390625 140.525390625 60.025390625 c 0
 132.875 60.025390625 128.625 61.724609375 126.924804688 65.125 c 0
 125.224609375 67.6748046875 123.525390625 70.224609375 123.525390625 73.625 c 0
 123.525390625 77.025390625 125.224609375 80.4248046875 125.224609375 83.8251953125 c 0
 126.924804688 93.1748046875 129.474609375 100.825195312 135.424804688 106.775390625 c 0
 141.375 112.724609375 149.025390625 115.275390625 158.375 115.275390625 c 0
 182.174804688 115.275390625 222.974609375 114.424804688 279.924804688 113.575195312 c 1
 285.875 141.625 290.974609375 163.724609375 292.674804688 178.174804688 c 0
 292.674804688 182.424804688 295.224609375 196.875 300.325195312 221.525390625 c 2
 312.224609375 276.775390625 l 2
 313.924804688 287.825195312 319.875 309.075195312 326.674804688 339.674804688 c 0
 333.474609375 370.275390625 339.424804688 393.224609375 342.825195312 408.525390625 c 0
 355.575195312 462.924804688 368.325195312 520.724609375 385.325195312 581.075195312 c 1
 362.375 562.375 l 2
 322.424804688 528.375 293.525390625 507.974609375 276.525390625 500.325195312 c 0
 274.825195312 499.474609375 273.125 498.625 271.424804688 498.625 c 0
 268.025390625 498.625 263.775390625 502.025390625 260.375 506.275390625 c 0
 256.125 512.224609375 255.275390625 517.325195312 255.275390625 522.424804688 c 0
 255.275390625 524.125 256.125 525.825195312 256.125 527.525390625 c 0
 256.974609375 535.174804688 259.525390625 541.974609375 263.775390625 547.924804688 c 0
 268.025390625 553.875 273.974609375 559.825195312 283.325195312 567.474609375 c 0
 299.474609375 580.224609375 315.625 594.674804688 333.474609375 609.125 c 2
 373.424804688 642.275390625 l 2
 382.775390625 648.224609375 391.275390625 653.325195312 398.924804688 657.575195312 c 0
 406.575195312 661.825195312 412.525390625 664.375 416.775390625 664.375 c 0
 424.424804688 664.375 432.075195312 660.125 439.724609375 652.474609375 c 0
 445.674804688 646.525390625 449.924804688 641.424804688 449.924804688 637.174804688 c 2
 449.924804688 636.325195312 l 1
 449.924804688 636.325195312 438.025390625 592.125 415.075195312 503.724609375 c 0
 392.125 419.575195312 379.375 371.125 376.825195312 357.525390625 c 0
 364.924804688 300.575195312 354.724609375 252.974609375 347.075195312 215.575195312 c 0
 342.825195312 194.325195312 336.025390625 159.474609375 328.375 111.025390625 c 1
 349.625 111.025390625 378.525390625 110.174804688 412.525390625 109.325195312 c 0
 431.224609375 109.325195312 443.974609375 108.474609375 449.075195312 108.474609375 c 0
 454.174804688 108.474609375 459.275390625 107.625 461.825195312 106.775390625 c 0
 464.375 105.924804688 466.924804688 104.224609375 466.924804688 103.375 c 0
 468.625 101.674804688 469.474609375 98.275390625 469.474609375 94.025390625 c 2
EndSplineSet
Validated: 524289
EndChar

StartChar: two
Encoding: 50 50 28
Width: 548
VWidth: 902
GlyphClass: 2
Flags: HMW
HStem: 48.475 50.15 52.725 54.4<386.175 391.275> 605.225 51<368.75 378.95>
VStem: 447.375 57.8<544.45 547.425>
LayerCount: 2
Fore
SplineSet
234.875 48.474609375 m 0xb0
 211.924804688 47.625 187.275390625 46.775390625 160.924804688 46.775390625 c 0
 134.575195312 46.775390625 114.174804688 47.625 99.724609375 49.3251953125 c 0
 96.3251953125 49.3251953125 94.625 51.875 92.9248046875 53.5751953125 c 0
 90.375 56.974609375 87.8251953125 62.9248046875 87.8251953125 72.275390625 c 0
 87.8251953125 85.025390625 92.0751953125 101.174804688 96.3251953125 121.575195312 c 0
 102.275390625 144.525390625 111.625 169.174804688 126.924804688 194.674804688 c 0
 142.224609375 220.174804688 161.775390625 245.674804688 186.424804688 270.325195312 c 0
 209.375 294.125 232.325195312 313.674804688 256.974609375 328.125 c 0
 315.625 362.974609375 355.575195312 386.775390625 373.424804688 400.375 c 0
 398.075195312 419.075195312 416.775390625 440.325195312 427.825195312 462.424804688 c 0
 433.775390625 474.325195312 439.724609375 489.625 443.974609375 508.325195312 c 0
 445.674804688 519.375 447.375 528.724609375 447.375 538.075195312 c 0
 447.375 556.775390625 442.275390625 571.224609375 432.075195312 582.275390625 c 0
 417.625 597.575195312 393.825195312 605.224609375 364.075195312 605.224609375 c 0
 343.674804688 605.224609375 324.125 598.424804688 302.875 583.974609375 c 0
 281.625 569.525390625 264.625 554.224609375 251.025390625 536.375 c 0
 239.974609375 522.775390625 231.474609375 515.125 226.375 515.125 c 2
 222.974609375 515.125 l 2
 222.125 515.125 220.424804688 515.125 218.724609375 515.974609375 c 0
 217.025390625 516.825195312 212.775390625 519.375 208.525390625 521.075195312 c 0
 204.275390625 523.625 203.424804688 527.875 203.424804688 533.825195312 c 0
 203.424804688 538.924804688 208.525390625 549.125 216.174804688 565.275390625 c 0
 222.125 575.474609375 230.625 585.674804688 241.674804688 595.875 c 0
 252.724609375 606.075195312 265.474609375 615.424804688 279.924804688 624.775390625 c 0
 294.375 634.125 310.525390625 641.775390625 327.525390625 647.724609375 c 0
 344.525390625 653.674804688 360.674804688 656.224609375 376.825195312 656.224609375 c 0
 429.525390625 656.224609375 465.224609375 643.474609375 486.474609375 617.125 c 0
 499.224609375 600.974609375 505.174804688 579.724609375 505.174804688 552.525390625 c 0
 505.174804688 536.375 503.474609375 518.525390625 499.224609375 498.974609375 c 0
 488.174804688 453.924804688 468.625 418.224609375 441.424804688 391.025390625 c 0
 421.025390625 370.625 388.724609375 347.674804688 345.375 323.025390625 c 0
 331.775390625 314.525390625 314.775390625 304.325195312 291.825195312 291.575195312 c 0
 266.325195312 277.974609375 243.375 261.825195312 224.674804688 242.275390625 c 0
 205.974609375 222.724609375 191.525390625 202.325195312 180.474609375 181.075195312 c 0
 169.424804688 160.674804688 159.224609375 138.575195312 152.424804688 114.775390625 c 2
 149.025390625 102.025390625 l 1
 188.974609375 100.325195312 222.974609375 98.625 251.025390625 98.625 c 0
 272.275390625 98.625 288.424804688 99.474609375 302.025390625 100.325195312 c 0
 315.625 101.174804688 326.674804688 102.025390625 336.025390625 102.875 c 0
 345.375 103.724609375 361.525390625 105.424804688 386.174804688 107.125 c 2x70
 393.825195312 107.125 l 2
 397.224609375 107.125 400.625 107.974609375 404.025390625 107.974609375 c 0
 407.424804688 107.974609375 410.825195312 107.125 412.525390625 107.125 c 0
 413.375 106.275390625 415.075195312 104.575195312 416.775390625 103.724609375 c 2
 416.775390625 100.325195312 l 1
 416.775390625 96.9248046875 l 2
 416.775390625 90.974609375 415.075195312 84.1748046875 412.525390625 77.375 c 0
 409.974609375 70.5751953125 404.875 64.625 399.775390625 59.525390625 c 0
 396.375 55.275390625 392.974609375 52.724609375 389.575195312 52.724609375 c 0
 355.575195312 52.724609375 305.424804688 51.875 234.875 48.474609375 c 0xb0
EndSplineSet
Validated: 524289
EndChar

StartChar: three
Encoding: 51 51 29
Width: 548
VWidth: 902
GlyphClass: 2
Flags: HMW
HStem: 42.15 51<238.775 257.475> 332.85 64.6<264.275 281.7> 604.85 51<347.575 359.475>
VStem: 381.15 62.9<234.675 282.7> 433.85 58.65<549.175 550.025>
LayerCount: 2
Fore
SplineSet
438.099609375 223.200195312 m 0xf0
 425.349609375 167.950195312 399.849609375 123.75 362.450195312 90.599609375 c 0
 326.75 58.2998046875 283.400390625 42.150390625 231.549804688 42.150390625 c 0
 215.400390625 42.150390625 200.099609375 44.7001953125 184.799804688 50.650390625 c 0
 169.5 55.75 156.75 62.5498046875 145.700195312 71.0498046875 c 0
 134.650390625 79.5498046875 125.299804688 89.75 117.650390625 99.9501953125 c 0
 110 110.150390625 104.900390625 120.349609375 103.200195312 129.700195312 c 0
 102.349609375 133.950195312 101.5 138.200195312 101.5 143.299804688 c 0
 101.5 148.400390625 103.200195312 153.5 104.900390625 158.599609375 c 0
 109.150390625 167.099609375 114.25 173.049804688 121.049804688 176.450195312 c 0
 127.849609375 179.849609375 133.799804688 181.549804688 138.049804688 181.549804688 c 0
 139.75 181.549804688 142.299804688 180.700195312 144 180.700195312 c 0
 149.950195312 179 154.200195312 173.900390625 158.450195312 164.549804688 c 0
 166.099609375 145.849609375 178 128.849609375 195 114.400390625 c 0
 210.299804688 99.9501953125 228.150390625 93.150390625 249.400390625 93.150390625 c 0
 280 93.150390625 307.200195312 103.349609375 331 123.75 c 0
 354.799804688 144.150390625 370.950195312 171.349609375 377.75 204.5 c 0
 379.450195312 217.25 381.150390625 229.150390625 381.150390625 240.200195312 c 0
 381.150390625 263.150390625 376.049804688 282.700195312 363.299804688 298 c 0
 344.599609375 320.950195312 308.049804688 332.849609375 255.349609375 332.849609375 c 0
 252.799804688 332.849609375 249.400390625 334.549804688 247.700195312 335.400390625 c 0
 246 336.25 243.450195312 338.799804688 241.75 342.200195312 c 0
 239.200195312 346.450195312 237.5 351.549804688 237.5 357.5 c 0
 237.5 359.200195312 238.349609375 362.599609375 238.349609375 365.150390625 c 0
 240.049804688 375.349609375 244.299804688 383 249.400390625 388.950195312 c 0
 254.5 394.900390625 260.450195312 397.450195312 268.099609375 397.450195312 c 0
 309.75 397.450195312 344.599609375 407.650390625 372.650390625 428.049804688 c 0
 403.25 448.450195312 422.799804688 478.200195312 430.450195312 516.450195312 c 0
 432.150390625 525.799804688 433.849609375 533.450195312 433.849609375 541.099609375 c 0xe8
 433.849609375 558.950195312 427.900390625 572.549804688 415.150390625 583.599609375 c 0
 398.150390625 598.049804688 375.200195312 604.849609375 343.75 604.849609375 c 0
 333.549804688 604.849609375 322.5 602.299804688 310.599609375 598.049804688 c 0
 306.349609375 596.349609375 301.25 592.950195312 296.150390625 589.549804688 c 0
 291.049804688 586.150390625 286.799804688 582.75 284.25 581.049804688 c 0
 281.700195312 579.349609375 278.299804688 574.25 273.200195312 569.150390625 c 2
 262.150390625 558.099609375 l 2
 260.450195312 556.400390625 257.049804688 551.299804688 252.799804688 545.349609375 c 0
 243.450195312 534.299804688 235.799804688 528.349609375 229.849609375 526.650390625 c 0
 228.150390625 526.650390625 226.450195312 525.799804688 224.75 525.799804688 c 0
 220.5 525.799804688 217.099609375 527.5 212.849609375 530.049804688 c 0
 211.150390625 531.75 208.599609375 533.450195312 207.75 535.150390625 c 0
 206.900390625 536.849609375 206.900390625 540.25 206.900390625 542.799804688 c 0
 206.900390625 552.150390625 211.150390625 562.349609375 218.799804688 575.099609375 c 0
 231.549804688 596.349609375 249.400390625 615.049804688 271.5 630.349609375 c 0
 282.549804688 638 296.150390625 644.799804688 310.599609375 649.049804688 c 0
 325.049804688 653.299804688 339.5 655.849609375 355.650390625 655.849609375 c 0
 410.049804688 655.849609375 449.150390625 643.099609375 471.25 618.450195312 c 0
 485.700195312 603.150390625 492.5 582.75 492.5 556.400390625 c 0
 492.5 541.950195312 489.950195312 524.950195312 485.700195312 507.099609375 c 0
 482.299804688 490.950195312 477.200195312 477.349609375 470.400390625 464.599609375 c 0
 463.599609375 451.849609375 455.950195312 441.650390625 447.450195312 433.150390625 c 0
 438.950195312 424.650390625 429.599609375 417 418.549804688 410.200195312 c 0
 407.5 403.400390625 397.299804688 399.150390625 387.099609375 394.900390625 c 0
 377.75 390.650390625 367.549804688 387.25 356.5 385.549804688 c 2
 315.700195312 376.200195312 l 1
 356.5 365.150390625 l 2
 374.349609375 360.900390625 388.799804688 354.950195312 400.700195312 348.150390625 c 0
 412.599609375 341.349609375 422.799804688 332.849609375 430.450195312 321.799804688 c 0
 439.799804688 309.049804688 444.049804688 292.900390625 444.049804688 272.5 c 0
 444.049804688 258.049804688 442.349609375 241.049804688 438.099609375 223.200195312 c 0xf0
EndSplineSet
Validated: 524289
EndChar

StartChar: four
Encoding: 52 52 30
Width: 548
VWidth: 902
GlyphClass: 2
Flags: HMW
HStem: 253.25 46.75<271.075 359.9 348.85 349.7>
VStem: 312.3 42.5 312.3 53.55<67.1 105.35 68.8 105.35>
LayerCount: 2
Fore
SplineSet
318.25 51.7998046875 m 0xa0
 314 56.900390625 312.299804688 62 312.299804688 67.099609375 c 2
 312.299804688 68.7998046875 l 1
 316.549804688 86.650390625 323.349609375 118.950195312 332.700195312 166.549804688 c 2
 349.700195312 253.25 l 1
 305.5 253.25 l 2
 236.650390625 253.25 185.650390625 249.849609375 150.799804688 242.200195312 c 0
 147.400390625 242.200195312 144 241.349609375 141.450195312 241.349609375 c 0
 138.900390625 241.349609375 135.5 241.349609375 133.799804688 242.200195312 c 0
 130.400390625 243.900390625 127.849609375 246.450195312 126.150390625 249 c 0
 124.450195312 254.950195312 122.75 261.75 122.75 269.400390625 c 0
 122.75 273.650390625 124.450195312 278.75 125.299804688 285.549804688 c 0
 126.150390625 292.349609375 128.700195312 299.150390625 132.099609375 305.099609375 c 0
 141.450195312 320.400390625 161 345.900390625 192.450195312 381.599609375 c 0
 222.200195312 417.299804688 257.900390625 460.650390625 300.400390625 513.349609375 c 0
 342.900390625 566.049804688 375.200195312 605.150390625 395.599609375 629.799804688 c 0
 404.099609375 639.150390625 412.599609375 646.799804688 421.099609375 651.900390625 c 0
 429.599609375 657 437.25 658.700195312 443.200195312 658.700195312 c 2
 444.049804688 658.700195312 l 1
 449.150390625 658.700195312 l 2
 455.099609375 658.700195312 461.049804688 657 465.299804688 654.450195312 c 0
 469.549804688 651.900390625 471.25 646.799804688 471.25 640 c 2
 471.25 640 470.400390625 638.299804688 470.400390625 637.450195312 c 0
 469.549804688 617.900390625 464.450195312 587.299804688 456.799804688 546.5 c 0
 449.150390625 505.700195312 442.349609375 470 436.400390625 441.950195312 c 2
 405.799804688 300 l 1
 423.650390625 300 438.099609375 299.150390625 449.150390625 299.150390625 c 0
 457.650390625 299.150390625 462.75 296.599609375 464.450195312 294.900390625 c 0
 466.150390625 291.5 466.150390625 286.400390625 465.299804688 279.599609375 c 0
 463.599609375 270.25 459.349609375 262.599609375 455.099609375 258.349609375 c 0
 450 252.400390625 443.200195312 249.849609375 433 249.849609375 c 0
 422.799804688 249.849609375 410.049804688 250.700195312 395.599609375 251.549804688 c 1
 376.900390625 162.299804688 365.849609375 111.299804688 365.849609375 99.400390625 c 0
 365.849609375 83.25 361.599609375 69.650390625 354.799804688 58.599609375 c 0xc0
 348.849609375 48.400390625 342.049804688 43.2998046875 334.400390625 43.2998046875 c 0
 328.450195312 43.2998046875 323.349609375 45.849609375 318.25 51.7998046875 c 0xa0
418.549804688 596.650390625 m 1
 394.75 571.150390625 l 1
 302.099609375 461.5 235.799804688 375.650390625 196.700195312 314.450195312 c 2
 184.799804688 296.599609375 l 1
 206.049804688 298.299804688 l 2
 233.25 300 266.400390625 300.849609375 303.799804688 300.849609375 c 0
 319.099609375 300.849609375 337.799804688 300 359.900390625 300 c 1
 384.549804688 412.200195312 401.549804688 499.75 412.599609375 562.650390625 c 2
 418.549804688 596.650390625 l 1
EndSplineSet
Validated: 524289
EndChar

StartChar: five
Encoding: 53 53 31
Width: 548
VWidth: 902
GlyphClass: 2
Flags: HMW
HStem: 46.95 51<215.05 229.5> 420.1 54.4<318.325 369.75> 590.1 52.7<460.7 510 496.825 510> 595.2 51.85
VStem: 397.375 59.5<330 374.625>
LayerCount: 2
Fore
SplineSet
450.924804688 306.200195312 m 0xd8
 441.575195312 264.549804688 427.974609375 228 410.974609375 194.849609375 c 0
 394.825195312 161.700195312 376.125 134.5 356.575195312 113.25 c 0
 337.025390625 92 314.924804688 75 291.125 63.9501953125 c 0
 267.325195312 52.900390625 242.674804688 46.9501953125 216.325195312 46.9501953125 c 0
 195.924804688 46.9501953125 176.375 49.5 159.375 54.599609375 c 0
 141.525390625 59.7001953125 127.924804688 66.5 117.724609375 74.150390625 c 0
 107.525390625 81.7998046875 100.724609375 90.2998046875 94.775390625 99.650390625 c 0
 88.8251953125 109 83.724609375 118.349609375 81.1748046875 127.700195312 c 0
 80.3251953125 133.650390625 80.3251953125 138.75 80.3251953125 143.849609375 c 0
 80.3251953125 148.950195312 80.3251953125 154.900390625 82.025390625 159.150390625 c 0
 85.4248046875 165.950195312 91.375 171.049804688 99.025390625 175.299804688 c 0
 108.375 179.549804688 115.174804688 181.25 118.575195312 181.25 c 0
 119.424804688 181.25 121.125 180.400390625 122.825195312 180.400390625 c 0
 124.525390625 180.400390625 127.075195312 179.549804688 127.924804688 177.849609375 c 0
 129.625 174.450195312 132.174804688 169.349609375 134.724609375 163.400390625 c 0
 144.075195312 139.599609375 157.674804688 122.599609375 175.525390625 111.549804688 c 0
 189.974609375 102.200195312 206.125 97.9501953125 223.974609375 97.9501953125 c 0
 262.224609375 97.9501953125 297.924804688 115.799804688 328.525390625 151.5 c 0
 358.275390625 187.200195312 379.525390625 233.099609375 392.275390625 291.75 c 0
 395.674804688 308.75 397.375 323.200195312 397.375 336.799804688 c 0
 397.375 354.650390625 393.974609375 369.950195312 388.025390625 382.700195312 c 0
 382.075195312 396.299804688 373.575195312 406.5 360.825195312 412.450195312 c 0
 350.625 417.549804688 338.724609375 420.099609375 325.125 420.099609375 c 0
 311.525390625 420.099609375 297.075195312 417.549804688 282.625 414.150390625 c 0
 274.125 412.450195312 263.924804688 407.349609375 250.325195312 399.700195312 c 0
 246.924804688 398 241.825195312 394.599609375 235.875 390.349609375 c 0
 229.924804688 386.099609375 225.674804688 382.700195312 223.974609375 381 c 0
 222.275390625 379.299804688 214.625 371.650390625 201.875 360.599609375 c 0
 192.525390625 352.950195312 181.474609375 347.849609375 169.575195312 347 c 0
 168.724609375 347 167.875 346.150390625 167.025390625 346.150390625 c 0
 162.775390625 346.150390625 158.525390625 347.849609375 154.275390625 349.549804688 c 0
 148.325195312 352.099609375 145.775390625 361.450195312 145.775390625 377.599609375 c 0
 145.775390625 388.650390625 147.474609375 402.25 150.875 419.25 c 0
 154.275390625 436.25 158.525390625 454.099609375 163.625 471.950195312 c 0
 168.724609375 489.799804688 174.674804688 509.349609375 180.625 530.599609375 c 0
 186.575195312 551.849609375 189.974609375 567.150390625 191.674804688 578.200195312 c 1
 190.825195312 581.599609375 l 2
 189.125 585 188.275390625 589.25 188.275390625 594.349609375 c 0
 188.275390625 596.049804688 189.125 599.450195312 189.125 601.150390625 c 0
 189.125 609.650390625 191.674804688 617.299804688 195.075195312 624.099609375 c 0
 198.474609375 630.900390625 201.875 636 206.974609375 640.25 c 0
 212.075195312 644.5 217.174804688 647.049804688 221.424804688 647.049804688 c 0
 239.275390625 647.049804688 280.075195312 646.200195312 346.375 645.349609375 c 0
 415.224609375 644.5 468.775390625 643.650390625 506.174804688 643.650390625 c 0
 507.025390625 643.650390625 508.724609375 642.799804688 509.575195312 642.799804688 c 0xe8
 510.424804688 642.799804688 511.275390625 641.099609375 511.275390625 640.25 c 0
 512.974609375 636 514.674804688 631.75 514.674804688 626.650390625 c 2
 514.674804688 623.25 l 2
 514.674804688 616.450195312 512.125 610.5 510.424804688 604.549804688 c 0
 509.575195312 602 507.875 599.450195312 507.025390625 597.75 c 0
 506.174804688 596.049804688 504.474609375 593.5 502.775390625 592.650390625 c 0
 501.075195312 591.799804688 499.375 590.099609375 497.674804688 590.099609375 c 0
 495.974609375 590.099609375 492.575195312 588.400390625 490.025390625 588.400390625 c 2
 484.075195312 588.400390625 l 2
 483.224609375 588.400390625 479.825195312 589.25 475.575195312 589.25 c 0
 471.325195312 589.25 467.075195312 590.099609375 462.825195312 590.099609375 c 0
 458.575195312 590.099609375 447.525390625 590.950195312 429.674804688 592.650390625 c 0
 411.825195312 594.349609375 395.674804688 596.049804688 382.075195312 596.900390625 c 0
 368.474609375 597.75 350.625 598.599609375 325.974609375 598.599609375 c 0
 301.325195312 598.599609375 272.424804688 596.900390625 240.974609375 595.200195312 c 1
 238.424804688 584.150390625 234.174804688 565.450195312 227.375 538.25 c 0
 220.575195312 511.049804688 216.325195312 491.5 213.775390625 478.75 c 0
 211.224609375 466 206.125 437.950195312 197.625 394.599609375 c 1
 218.875 417.549804688 l 2
 235.875 434.549804688 255.424804688 447.299804688 280.075195312 458.349609375 c 0
 304.724609375 469.400390625 331.924804688 474.5 359.974609375 474.5 c 0
 379.525390625 474.5 396.525390625 470.25 410.125 461.75 c 0
 425.424804688 454.099609375 434.775390625 442.200195312 442.424804688 427.75 c 0
 451.775390625 409.900390625 456.875 387.799804688 456.875 361.450195312 c 0
 456.875 343.599609375 455.174804688 324.900390625 450.924804688 306.200195312 c 0xd8
EndSplineSet
Validated: 524289
EndChar

StartChar: six
Encoding: 54 54 32
Width: 548
VWidth: 903
GlyphClass: 2
Flags: HMW
HStem: 45.125 51<230.275 259.6> 397.875 54.4<313.575 370.525>
VStem: 116.8 49.3<212.15 216.825> 408.35 60.35<307.775 357.925>
LayerCount: 2
Fore
SplineSet
458.5 264.424804688 m 0
 451.700195312 234.674804688 439.799804688 204.924804688 423.650390625 177.724609375 c 0
 407.5 150.525390625 389.650390625 126.724609375 370.099609375 108.025390625 c 0
 352.25 89.3251953125 332.700195312 73.1748046875 310.599609375 62.125 c 0
 288.5 51.0751953125 266.400390625 45.125 244.299804688 45.125 c 0
 216.25 45.125 191.599609375 51.0751953125 172.049804688 63.8251953125 c 0
 152.5 76.5751953125 138.900390625 94.4248046875 130.400390625 117.375 c 0
 121.900390625 140.325195312 116.799804688 167.525390625 116.799804688 198.974609375 c 0
 116.799804688 234.674804688 122.75 274.625 133.799804688 319.674804688 c 0
 144.849609375 368.125 159.299804688 411.474609375 177.150390625 448.875 c 0
 195 486.275390625 213.700195312 518.575195312 232.400390625 544.924804688 c 0
 250.25 571.275390625 270.650390625 593.375 292.75 611.224609375 c 0
 314.849609375 629.075195312 338.650390625 642.674804688 362.450195312 652.025390625 c 0
 387.950195312 661.375 416 667.325195312 447.450195312 669.875 c 2
 453.400390625 669.875 l 2
 461.049804688 669.875 467.849609375 668.174804688 472.099609375 665.625 c 0
 473.799804688 664.775390625 474.650390625 662.224609375 475.5 660.525390625 c 0
 476.349609375 658.825195312 477.200195312 656.275390625 477.200195312 655.424804688 c 2
 477.200195312 652.025390625 l 2
 477.200195312 647.775390625 472.950195312 641.825195312 465.299804688 635.025390625 c 0
 457.650390625 628.224609375 450.849609375 623.125 443.200195312 621.424804688 c 0
 437.25 620.575195312 427.900390625 618.025390625 415.150390625 615.474609375 c 0
 402.400390625 612.924804688 391.349609375 609.525390625 382 606.974609375 c 0
 373.5 604.424804688 363.299804688 600.174804688 352.25 595.075195312 c 0
 329.299804688 584.025390625 303.799804688 564.474609375 277.450195312 535.575195312 c 0
 263.849609375 520.275390625 250.25 499.875 235.799804688 473.525390625 c 0
 221.349609375 447.174804688 210.299804688 424.224609375 202.650390625 403.825195312 c 2
 187.349609375 361.325195312 l 1
 219.650390625 392.775390625 l 2
 237.5 412.325195312 258.75 427.625 282.549804688 437.825195312 c 0
 306.349609375 448.025390625 332.700195312 452.275390625 359.900390625 452.275390625 c 0
 381.150390625 452.275390625 399.849609375 449.724609375 416 442.924804688 c 0
 432.150390625 436.125 443.200195312 425.924804688 452.549804688 411.474609375 c 0
 463.599609375 394.474609375 468.700195312 372.375 468.700195312 343.474609375 c 0
 468.700195312 320.525390625 465.299804688 294.174804688 458.5 264.424804688 c 0
251.950195312 374.924804688 m 0
 227.299804688 359.625 204.349609375 340.075195312 183.950195312 316.275390625 c 2
 182.25 314.575195312 l 1
 175.450195312 288.224609375 170.349609375 266.974609375 168.650390625 250.825195312 c 0
 166.950195312 241.474609375 166.099609375 231.275390625 166.099609375 221.075195312 c 0
 166.099609375 203.224609375 168.650390625 186.224609375 173.75 169.224609375 c 0
 178 155.625 183.099609375 142.875 190.75 131.825195312 c 0
 198.400390625 120.775390625 207.75 112.275390625 220.5 105.474609375 c 0
 231.549804688 99.525390625 244.299804688 96.125 257.900390625 96.125 c 2
 259.599609375 96.125 l 2
 278.299804688 96.125 298.700195312 103.775390625 317.400390625 119.924804688 c 0
 336.099609375 136.075195312 353.099609375 154.775390625 367.549804688 178.575195312 c 0
 383.700195312 202.375 393.900390625 226.174804688 399.849609375 250.825195312 c 0
 405.799804688 276.325195312 408.349609375 298.424804688 408.349609375 317.125 c 0
 408.349609375 338.375 404.099609375 355.375 395.599609375 367.275390625 c 0
 387.099609375 378.325195312 376.900390625 386.825195312 365.849609375 391.075195312 c 0
 354.799804688 395.325195312 342.049804688 397.875 325.900390625 397.875 c 0
 301.25 397.875 276.599609375 390.224609375 251.950195312 374.924804688 c 0
EndSplineSet
Validated: 524289
EndChar

StartChar: seven
Encoding: 55 55 33
Width: 548
VWidth: 901
GlyphClass: 2
Flags: HMW
HStem: 590.725 57.8
LayerCount: 2
Fore
SplineSet
501.924804688 588.174804688 m 0
 490.875 571.174804688 471.325195312 545.674804688 444.125 511.674804688 c 0
 417.775390625 477.674804688 389.724609375 441.974609375 363.375 406.275390625 c 0
 337.025390625 370.575195312 303.025390625 322.974609375 263.075195312 263.474609375 c 0
 223.125 203.974609375 183.174804688 142.775390625 143.224609375 79.875 c 0
 133.875 65.4248046875 124.525390625 55.224609375 114.325195312 49.275390625 c 0
 106.674804688 45.025390625 100.724609375 42.474609375 94.775390625 42.474609375 c 2
 90.525390625 42.474609375 l 2
 87.125 43.3251953125 83.724609375 45.875 82.025390625 48.4248046875 c 0
 80.3251953125 50.974609375 79.474609375 54.375 79.474609375 59.474609375 c 0
 79.474609375 64.5751953125 82.025390625 72.224609375 87.125 83.275390625 c 0
 127.075195312 141.075195312 168.724609375 198.875 210.375 256.674804688 c 0
 250.325195312 314.474609375 284.325195312 359.525390625 310.674804688 394.375 c 0
 337.025390625 429.224609375 359.974609375 462.375 382.924804688 495.525390625 c 0
 405.875 528.674804688 423.724609375 555.025390625 434.775390625 575.424804688 c 2
 441.575195312 589.875 l 1
 424.575195312 590.724609375 l 2
 403.325195312 591.150390625 381.650390625 591.362304688 359.231445312 591.362304688 c 0
 336.8125 591.362304688 313.650390625 591.150390625 289.424804688 590.724609375 c 0
 240.974609375 589.875 208.674804688 586.474609375 191.674804688 582.224609375 c 0
 189.974609375 582.224609375 188.275390625 581.375 187.424804688 581.375 c 0
 186.575195312 581.375 184.875 582.224609375 184.025390625 582.224609375 c 0
 182.325195312 583.075195312 179.775390625 585.625 178.924804688 587.325195312 c 0
 177.224609375 593.275390625 175.525390625 600.924804688 176.375 611.125 c 0
 178.075195312 617.924804688 182.325195312 623.875 186.575195312 628.974609375 c 0
 190.825195312 634.075195312 196.775390625 638.325195312 207.825195312 640.025390625 c 0
 234.174804688 645.974609375 278.375 648.525390625 337.875 648.525390625 c 0
 356.575195312 648.525390625 394.825195312 646.825195312 450.924804688 644.275390625 c 0
 478.125 643.424804688 492.575195312 642.575195312 494.275390625 642.575195312 c 0
 502.775390625 642.575195312 508.724609375 639.174804688 512.974609375 631.525390625 c 0
 513.825195312 629.825195312 515.525390625 626.424804688 515.525390625 623.875 c 0
 515.525390625 621.325195312 514.674804688 618.775390625 514.674804688 617.075195312 c 0
 513.825195312 609.424804688 509.575195312 599.224609375 501.924804688 588.174804688 c 0
EndSplineSet
Validated: 524289
EndChar

StartChar: eight
Encoding: 56 56 34
Width: 548
VWidth: 901
GlyphClass: 2
Flags: HMW
HStem: 38.15 51.85<244.725 248.55> 611.05 40.8<344.175 378.175 356.5 378.175>
VStem: 102.35 49.3<155.875 191.15> 193.3 51 405.8 56.95<236.625 263.825> 438.95 52.7<519.25 549.85>
LayerCount: 2
Fore
SplineSet
462.75 259.150390625 m 0xf8
 462.75 249.799804688 461.049804688 239.599609375 458.5 227.700195312 c 0
 450 190.299804688 433 155.450195312 406.650390625 124 c 0
 392.200195312 107 378.599609375 93.400390625 362.450195312 80.650390625 c 0
 346.299804688 67.900390625 327.599609375 57.7001953125 305.5 50.0498046875 c 0
 283.400390625 42.400390625 260.450195312 38.150390625 236.650390625 38.150390625 c 0
 212 38.150390625 189.900390625 41.5498046875 172.049804688 49.2001953125 c 0
 154.200195312 56.849609375 139.75 65.349609375 130.400390625 76.400390625 c 0
 121.049804688 87.4501953125 113.400390625 101.049804688 109.150390625 117.200195312 c 0
 104.900390625 133.349609375 102.349609375 147.799804688 102.349609375 163.950195312 c 0
 102.349609375 180.099609375 104.049804688 197.950195312 108.299804688 216.650390625 c 0
 112.549804688 234.5 121.049804688 253.200195312 134.650390625 274.450195312 c 0
 148.25 295.700195312 166.099609375 315.25 186.5 333.099609375 c 0
 205.200195312 351.799804688 225.599609375 364.549804688 244.299804688 371.349609375 c 2
 264.700195312 378.150390625 l 1
 246 390.049804688 l 2
 225.599609375 402.799804688 211.150390625 418.950195312 202.650390625 440.200195312 c 0
 196.700195312 453.799804688 193.299804688 467.400390625 193.299804688 481 c 0
 193.299804688 488.650390625 194.150390625 496.299804688 195.849609375 503.099609375 c 0
 197.549804688 509.900390625 200.099609375 516.700195312 202.650390625 524.349609375 c 0
 204.349609375 532 208.599609375 539.650390625 213.700195312 549.849609375 c 0
 218.799804688 560.049804688 223.049804688 569.400390625 229 578.75 c 0
 234.950195312 588.099609375 243.450195312 596.599609375 252.799804688 605.950195312 c 0
 262.150390625 615.299804688 271.5 622.950195312 282.549804688 629.75 c 0
 293.599609375 636.549804688 306.349609375 641.650390625 321.650390625 645.900390625 c 0
 336.950195312 650.150390625 352.25 651.849609375 369.25 651.849609375 c 0
 387.099609375 651.849609375 402.400390625 650.150390625 417.700195312 645.900390625 c 0
 433 641.650390625 444.900390625 636.549804688 453.400390625 630.599609375 c 0
 461.900390625 624.650390625 468.700195312 616.150390625 474.650390625 607.650390625 c 0
 480.599609375 599.150390625 485.700195312 590.650390625 487.400390625 582.150390625 c 0
 489.950195312 571.099609375 491.650390625 557.5 491.650390625 542.200195312 c 0xf4
 491.650390625 530.299804688 489.950195312 517.549804688 487.400390625 504.799804688 c 0
 486.549804688 498.849609375 484 492.900390625 481.450195312 486.950195312 c 0
 478.900390625 481 475.5 475.900390625 472.099609375 470.799804688 c 0
 468.700195312 465.700195312 463.599609375 460.599609375 458.5 455.5 c 0
 453.400390625 450.400390625 448.299804688 446.150390625 444.049804688 441.900390625 c 0
 437.25 435.950195312 423.650390625 426.599609375 404.099609375 413.849609375 c 2
 365.849609375 388.349609375 l 1
 381.150390625 379.849609375 l 2
 397.299804688 371.349609375 410.900390625 362 421.950195312 350.950195312 c 0
 433 339.900390625 441.5 329.700195312 447.450195312 319.5 c 0
 453.400390625 309.299804688 457.650390625 299.950195312 459.349609375 288.900390625 c 0
 461.049804688 277.849609375 462.75 268.5 462.75 259.150390625 c 0xf8
404.950195312 594.049804688 m 0
 390.5 605.099609375 375.200195312 611.049804688 357.349609375 611.049804688 c 2
 356.5 611.049804688 l 2
 331.849609375 611.049804688 309.75 600.849609375 287.650390625 580.450195312 c 0
 265.549804688 560.049804688 251.950195312 536.25 246.849609375 511.599609375 c 0
 245.150390625 505.650390625 244.299804688 499.700195312 244.299804688 494.599609375 c 0
 244.299804688 478.450195312 249.400390625 464.849609375 259.599609375 452.099609375 c 0
 272.349609375 436.799804688 294.450195312 421.5 325.900390625 406.200195312 c 2
 329.299804688 404.5 l 1
 332.700195312 405.349609375 l 1
 355.650390625 415.549804688 376.900390625 429.150390625 397.299804688 447 c 0
 420.25 464.849609375 433 481.849609375 436.400390625 498.849609375 c 0
 438.099609375 506.5 438.950195312 515 438.950195312 523.5 c 0
 438.950195312 532 437.25 541.349609375 434.700195312 550.700195312 c 0
 429.599609375 568.549804688 419.400390625 583 404.950195312 594.049804688 c 0
160.150390625 148.650390625 m 0
 169.5 129.950195312 182.25 114.650390625 200.099609375 105.299804688 c 0
 217.099609375 95.099609375 234.950195312 90 254.5 90 c 0
 268.950195312 90 283.400390625 93.400390625 298.700195312 98.5 c 0
 314 103.599609375 328.450195312 111.25 342.049804688 120.599609375 c 0
 355.650390625 129.950195312 367.549804688 142.700195312 378.599609375 158.849609375 c 0
 389.650390625 175 397.299804688 192 401.549804688 209.849609375 c 0
 404.099609375 220.900390625 405.799804688 231.950195312 405.799804688 241.299804688 c 0xf8
 405.799804688 249.799804688 404.099609375 259.150390625 401.549804688 270.200195312 c 0
 399 281.25 394.75 291.450195312 387.950195312 301.650390625 c 0
 382 311.849609375 372.650390625 322.049804688 360.75 332.25 c 0
 348.849609375 342.450195312 334.400390625 351.799804688 316.549804688 360.299804688 c 2
 314 362 l 1
 310.599609375 361.150390625 l 2
 273.200195312 350.099609375 240.049804688 330.549804688 212 302.5 c 0
 181.400390625 274.450195312 161.849609375 244.700195312 154.200195312 212.400390625 c 0
 152.5 203.900390625 151.650390625 195.400390625 151.650390625 186.900390625 c 0
 151.650390625 173.299804688 154.200195312 160.549804688 160.150390625 148.650390625 c 0
EndSplineSet
Validated: 524289
EndChar

StartChar: nine
Encoding: 57 57 35
Width: 548
VWidth: 903
GlyphClass: 2
Flags: HMW
HStem: 264.5 54.4<243.525 297.925> 620.65 51<335.325 374 344.675 374>
VStem: 141.525 57.8<404.325 416.65> 438.175 48.45<497.825 504.625>
LayerCount: 2
Fore
SplineSet
467.075195312 378.400390625 m 0
 456.025390625 334.200195312 441.575195312 294.25 423.724609375 258.549804688 c 0
 405.875 222.849609375 385.474609375 191.400390625 365.075195312 166.75 c 0
 345.525390625 142.099609375 323.424804688 120.849609375 299.625 103 c 0
 275.825195312 85.150390625 251.174804688 72.400390625 225.674804688 63.0498046875 c 0
 198.474609375 53.7001953125 169.575195312 47.75 138.125 45.2001953125 c 0
 136.424804688 45.2001953125 134.724609375 44.349609375 133.025390625 44.349609375 c 0
 125.375 44.349609375 119.424804688 46.900390625 114.325195312 49.4501953125 c 0
 112.625 50.2998046875 110.075195312 52 109.224609375 53.7001953125 c 0
 108.375 55.400390625 108.375 58.7998046875 108.375 62.2001953125 c 0
 108.375 67.2998046875 112.625 72.400390625 119.424804688 79.2001953125 c 0
 126.224609375 86 134.724609375 91.099609375 142.375 92.7998046875 c 0
 148.325195312 94.5 157.674804688 97.0498046875 171.275390625 100.450195312 c 0
 184.875 103.849609375 198.474609375 106.400390625 209.525390625 108.950195312 c 0
 218.875 111.5 230.775390625 115.75 243.525390625 120.849609375 c 0
 271.575195312 131.900390625 297.075195312 150.599609375 321.724609375 176.950195312 c 0
 337.025390625 193.950195312 350.625 213.5 365.075195312 235.599609375 c 0
 379.525390625 258.549804688 391.424804688 278.950195312 399.075195312 296.799804688 c 2
 417.775390625 343.549804688 l 1
 382.075195312 308.700195312 l 2
 365.924804688 291.700195312 348.075195312 279.799804688 327.674804688 273.849609375 c 0
 307.275390625 267.900390625 282.625 264.5 252.875 264.5 c 0
 234.174804688 264.5 216.325195312 268.75 201.025390625 279.799804688 c 0
 184.025390625 290.849609375 171.275390625 304.450195312 161.924804688 322.299804688 c 0
 152.575195312 340.150390625 145.775390625 361.400390625 143.224609375 385.200195312 c 0
 142.375 392.849609375 141.525390625 400.5 141.525390625 408.150390625 c 0
 141.525390625 425.150390625 143.224609375 441.299804688 147.474609375 458.299804688 c 0
 155.125 488.900390625 165.325195312 517.799804688 181.474609375 544.150390625 c 0
 197.625 570.5 214.625 593.450195312 233.325195312 612.150390625 c 0
 251.174804688 630.849609375 270.724609375 645.299804688 292.825195312 655.5 c 0
 314.924804688 665.700195312 338.724609375 671.650390625 361.674804688 671.650390625 c 0
 386.325195312 671.650390625 407.575195312 666.549804688 425.424804688 657.200195312 c 0
 447.525390625 645.299804688 463.674804688 625.75 473.875 599.400390625 c 0
 482.375 576.450195312 486.625 549.25 486.625 517.799804688 c 0
 486.625 477.849609375 479.825195312 431.099609375 467.075195312 378.400390625 c 0
430.525390625 547.549804688 m 0
 426.275390625 561.150390625 421.174804688 573.049804688 413.525390625 584.099609375 c 0
 405.875 595.150390625 395.674804688 603.650390625 382.924804688 610.450195312 c 0
 371.875 617.25 359.125 620.650390625 345.525390625 620.650390625 c 2
 344.674804688 620.650390625 l 2
 325.974609375 620.650390625 305.575195312 613.849609375 286.025390625 599.400390625 c 0
 266.474609375 584.950195312 250.325195312 566.25 235.875 544.150390625 c 0
 221.424804688 522.049804688 211.224609375 498.25 206.125 473.599609375 c 0
 201.025390625 451.5 199.325195312 431.950195312 199.325195312 414.950195312 c 0
 199.325195312 393.700195312 203.575195312 375 211.224609375 360.549804688 c 0
 225.674804688 332.5 251.174804688 318.900390625 286.875 318.900390625 c 0
 308.974609375 318.900390625 331.924804688 324.849609375 354.875 336.75 c 0
 378.674804688 348.650390625 399.075195312 364.799804688 417.775390625 386.049804688 c 1
 420.325195312 387.75 l 1
 424.575195312 406.450195312 428.825195312 431.950195312 434.775390625 465.950195312 c 0
 436.474609375 475.299804688 438.174804688 485.5 438.174804688 495.700195312 c 0
 438.174804688 513.549804688 435.625 530.549804688 430.525390625 547.549804688 c 0
EndSplineSet
Validated: 524289
EndChar

StartChar: colon
Encoding: 58 58 36
Width: 548
VWidth: 887
GlyphClass: 2
Flags: HMW
HStem: 81.85 111.35<249.825 287.65 253.65 287.65> 308.8 111.35<308.9 339.5 308.9 339.5>
VStem: 224.75 91.8<105.65 166.425 109.05 166.425> 276.6 92.65<329.2 398.05 336 398.05>
LayerCount: 2
Fore
SplineSet
276.599609375 336 m 2xd0
 278.299804688 351.299804688 283.400390625 370.849609375 289.349609375 393.799804688 c 0
 290.200195312 399.75 292.75 404.849609375 296.150390625 408.25 c 0
 299.549804688 411.650390625 304.650390625 414.200195312 309.75 415.900390625 c 0
 318.25 418.450195312 325.900390625 420.150390625 333.549804688 420.150390625 c 2
 339.5 420.150390625 l 2
 348 420.150390625 355.650390625 418.450195312 362.450195312 414.200195312 c 0
 366.700195312 411.650390625 369.25 405.700195312 369.25 398.049804688 c 2
 369.25 393.799804688 l 1
 365.849609375 375.950195312 359.049804688 357.25 349.700195312 336.849609375 c 0
 345.450195312 327.5 339.5 319.849609375 331 315.599609375 c 0
 322.5 311.349609375 316.549804688 308.799804688 310.599609375 308.799804688 c 2
 308.900390625 308.799804688 l 2
 298.700195312 309.650390625 291.049804688 312.200195312 285.099609375 315.599609375 c 0
 281.700195312 317.299804688 279.150390625 319 278.299804688 321.549804688 c 0
 277.450195312 324.099609375 276.599609375 326.650390625 276.599609375 329.200195312 c 2
 276.599609375 336 l 2xd0
224.75 105.650390625 m 2xe0
 224.75 109.049804688 l 1
 229 131.150390625 l 2
 229 132.849609375 231.549804688 137.099609375 232.400390625 141.349609375 c 0
 233.25 145.599609375 235.799804688 154.099609375 240.049804688 166.849609375 c 0
 240.900390625 171.950195312 243.450195312 176.200195312 246.849609375 179.599609375 c 0
 250.25 183 254.5 186.400390625 258.75 188.099609375 c 0
 268.099609375 191.5 275.75 193.200195312 282.549804688 193.200195312 c 2
 287.650390625 193.200195312 l 2
 292.75 193.200195312 297.849609375 192.349609375 302.099609375 190.650390625 c 0
 306.349609375 188.950195312 308.900390625 186.400390625 312.299804688 182.150390625 c 0
 315.700195312 177.900390625 317.400390625 173.650390625 317.400390625 167.700195312 c 2
 317.400390625 167.700195312 316.549804688 166.849609375 316.549804688 166 c 0
 315.700195312 147.299804688 309.75 127.75 300.400390625 108.200195312 c 0
 296.150390625 99.7001953125 289.349609375 92.900390625 280 88.650390625 c 0
 270.650390625 84.400390625 263 81.849609375 256.200195312 81.849609375 c 2
 253.650390625 81.849609375 l 2
 246 81.849609375 238.349609375 85.25 231.549804688 90.349609375 c 0
 227.299804688 94.599609375 224.75 99.7001953125 224.75 105.650390625 c 2xe0
EndSplineSet
Validated: 524289
EndChar

StartChar: semicolon
Encoding: 59 59 37
Width: 548
VWidth: 864
GlyphClass: 2
Flags: HMW
HStem: 250.075 111.35<356.575 385.475 356.575 385.475>
VStem: 323.425 92.65<274.725 339.325 278.125 339.325>
LayerCount: 2
Fore
SplineSet
385.474609375 361.424804688 m 2
 393.125 361.424804688 401.625 359.724609375 409.275390625 355.474609375 c 0
 410.974609375 354.625 413.525390625 352.924804688 414.375 349.525390625 c 0
 415.224609375 346.125 416.075195312 342.724609375 416.075195312 339.325195312 c 2
 416.075195312 335.075195312 l 1
 412.674804688 317.224609375 405.875 298.525390625 396.525390625 278.125 c 0
 392.275390625 268.775390625 385.474609375 261.125 377.825195312 256.875 c 0
 370.174804688 252.625 363.375 250.075195312 357.424804688 250.075195312 c 2
 356.575195312 250.075195312 l 2
 342.974609375 251.775390625 332.775390625 256.875 326.825195312 264.525390625 c 0
 325.125 267.075195312 323.424804688 270.474609375 323.424804688 274.724609375 c 2
 323.424804688 278.125 l 2
 325.125 293.424804688 329.375 312.974609375 335.325195312 335.924804688 c 0
 337.025390625 341.025390625 340.424804688 346.125 343.825195312 349.525390625 c 0
 347.224609375 352.924804688 352.325195312 355.474609375 357.424804688 357.174804688 c 0
 362.525390625 358.875 366.775390625 360.575195312 371.025390625 360.575195312 c 0
 375.275390625 360.575195312 379.525390625 361.424804688 381.224609375 361.424804688 c 2
 385.474609375 361.424804688 l 2
341.275390625 80.0751953125 m 0
 336.174804688 62.224609375 302.174804688 -10.875 239.275390625 -140.075195312 c 0
 235.025390625 -149.424804688 229.075195312 -156.224609375 222.275390625 -160.474609375 c 0
 215.474609375 -164.724609375 209.525390625 -166.424804688 203.575195312 -166.424804688 c 2
 201.875 -166.424804688 l 2
 194.224609375 -166.424804688 187.424804688 -163.875 182.325195312 -158.775390625 c 0
 180.625 -157.075195312 178.924804688 -153.674804688 178.924804688 -150.275390625 c 0
 178.924804688 -146.875 179.775390625 -144.325195312 180.625 -140.924804688 c 0
 184.875 -128.174804688 197.625 -95.025390625 219.724609375 -42.3251953125 c 0
 241.825195312 10.375 258.825195312 49.474609375 271.575195312 77.525390625 c 0
 274.974609375 85.1748046875 277.525390625 91.125 280.924804688 95.375 c 0
 284.325195312 99.625 288.575195312 102.174804688 290.275390625 103.025390625 c 0
 296.224609375 104.724609375 301.325195312 105.575195312 305.575195312 105.575195312 c 0
 306.424804688 105.575195312 308.974609375 104.724609375 310.674804688 104.724609375 c 0
 320.025390625 104.724609375 328.525390625 103.025390625 336.174804688 98.775390625 c 0
 340.424804688 97.0751953125 342.974609375 92.8251953125 342.974609375 88.5751953125 c 0
 342.974609375 86.875 342.125 83.474609375 341.275390625 80.0751953125 c 0
EndSplineSet
Validated: 524289
EndChar

StartChar: less
Encoding: 60 60 38
Width: 548
VWidth: 902
GlyphClass: 2
Flags: HMW
HStem: 630.5 17G<487.4 492.5>
LayerCount: 2
Fore
SplineSet
512.049804688 621.150390625 m 0
 512.049804688 616.049804688 509.5 610.950195312 505.25 605 c 0
 497.599609375 595.650390625 483.150390625 584.599609375 463.599609375 571.849609375 c 0
 429.599609375 549.75 376.049804688 514.049804688 304.650390625 463.049804688 c 0
 233.25 412.049804688 183.099609375 378.049804688 156.75 360.200195312 c 1
 165.25 351.700195312 l 2
 182.25 334.700195312 200.099609375 313.450195312 219.650390625 289.650390625 c 0
 239.200195312 265.849609375 256.200195312 244.599609375 270.650390625 225.049804688 c 0
 285.099609375 205.5 300.400390625 184.25 318.25 163.849609375 c 0
 336.099609375 143.450195312 352.25 127.299804688 366.700195312 115.400390625 c 0
 383.700195312 101.799804688 391.349609375 90.75 391.349609375 82.25 c 0
 391.349609375 79.7001953125 389.650390625 75.4501953125 387.099609375 69.5 c 0
 384.549804688 65.25 381.150390625 61 376.049804688 58.4501953125 c 0
 370.950195312 55.900390625 364.150390625 53.349609375 356.5 52.5 c 2
 351.400390625 52.5 l 2
 345.450195312 52.5 338.650390625 54.2001953125 331 56.75 c 0
 319.950195312 61 307.200195312 70.349609375 291.900390625 84.7998046875 c 0
 276.599609375 99.25 260.450195312 117.950195312 242.599609375 139.200195312 c 0
 224.75 160.450195312 208.599609375 181.700195312 191.599609375 203.799804688 c 0
 174.599609375 225.900390625 155.900390625 248 136.349609375 271.799804688 c 0
 116.799804688 295.599609375 100.650390625 314.299804688 86.2001953125 327.900390625 c 0
 83.650390625 330.450195312 81.9501953125 335.549804688 81.9501953125 342.349609375 c 0
 81.9501953125 350.849609375 83.650390625 359.349609375 87.900390625 367 c 0
 92.150390625 374.650390625 96.400390625 379.75 102.349609375 383.150390625 c 0
 138.049804688 407.799804688 180.549804688 438.400390625 229 474.099609375 c 0
 277.450195312 509.799804688 322.5 542.099609375 362.450195312 571 c 0
 402.400390625 599.900390625 437.25 622.849609375 467 639.849609375 c 0
 476.349609375 644.950195312 484 647.5 490.799804688 647.5 c 0
 494.200195312 647.5 497.599609375 647.5 499.299804688 645.799804688 c 0
 506.099609375 640.700195312 510.349609375 633.900390625 511.200195312 626.25 c 0
 511.200195312 624.549804688 512.049804688 622.849609375 512.049804688 621.150390625 c 0
EndSplineSet
Validated: 524289
EndChar

StartChar: equal
Encoding: 61 61 39
Width: 548
VWidth: 908
GlyphClass: 2
Flags: HMW
HStem: 278.275 42.5 278.275 49.3 444.875 51.85<203 207.25>
LayerCount: 2
Fore
SplineSet
207.674804688 496.725585938 m 2x20
 209.375 496.725585938 l 2
 240.24609375 495.729492188 274.033203125 495.317382812 310.737304688 495.317382812 c 0
 336.69140625 495.317382812 364.104492188 495.5234375 392.974609375 495.875 c 0
 420.174804688 495.875 435.474609375 496.725585938 441.424804688 496.725585938 c 0
 449.924804688 496.725585938 455.875 495.875 456.724609375 494.174804688 c 0
 457.575195312 492.475585938 458.424804688 489.075195312 458.424804688 484.825195312 c 0
 458.424804688 478.875 456.724609375 472.075195312 454.174804688 465.275390625 c 0
 450.775390625 457.625 446.525390625 451.674804688 440.575195312 449.975585938 c 0
 438.025390625 449.125 435.474609375 448.275390625 433.775390625 448.275390625 c 2
 427.825195312 448.275390625 l 2
 415.924804688 448.275390625 404.875 449.125 394.674804688 449.125 c 2
 365.775390625 449.125 l 1
 278.224609375 446.575195312 l 2
 242.525390625 445.725585938 216.174804688 444.875 198.325195312 444.875 c 0
 188.974609375 444.875 181.325195312 447.424804688 177.075195312 451.674804688 c 0
 174.525390625 454.225585938 172.825195312 457.625 172.825195312 461.875 c 0
 172.825195312 463.575195312 173.674804688 466.125 173.674804688 467.825195312 c 0
 175.375 476.325195312 180.474609375 483.125 186.424804688 489.075195312 c 0
 192.375 494.174804688 198.325195312 496.725585938 207.674804688 496.725585938 c 2x20
173.674804688 327.576171875 m 2x60
 190.674804688 327.576171875 210.224609375 326.725585938 234.025390625 326.725585938 c 0
 257.825195312 326.725585938 285.875 328.42578125 319.875 328.42578125 c 2
 403.174804688 330.125976562 l 2
 412.525390625 330.125976562 417.625 328.42578125 418.474609375 326.725585938 c 0
 420.174804688 324.17578125 420.174804688 319.076171875 419.325195312 311.42578125 c 0
 417.625 302.92578125 415.075195312 296.125976562 410.825195312 290.17578125 c 0
 409.125 286.776367188 405.724609375 284.225585938 402.325195312 283.375976562 c 0
 398.924804688 282.526367188 396.375 282.526367188 394.674804688 282.526367188 c 2
 388.724609375 282.526367188 l 2
 375.974609375 282.526367188 361.525390625 283.375976562 344.525390625 283.375976562 c 0
 327.525390625 283.375976562 292.674804688 281.67578125 238.275390625 279.975585938 c 0
 200.875 279.125976562 172.825195312 278.276367188 155.825195312 278.276367188 c 0
 146.474609375 278.276367188 139.674804688 279.975585938 137.125 284.225585938 c 0
 135.424804688 286.776367188 134.575195312 290.17578125 134.575195312 294.42578125 c 0
 134.575195312 296.975585938 135.424804688 300.375976562 135.424804688 302.92578125 c 0
 136.275390625 309.725585938 140.525390625 315.67578125 147.325195312 320.776367188 c 0xa0
 154.125 325.875976562 161.775390625 327.576171875 171.974609375 327.576171875 c 2
 173.674804688 327.576171875 l 2x60
EndSplineSet
Validated: 524289
EndChar

StartChar: greater
Encoding: 62 62 40
Width: 548
VWidth: 903
GlyphClass: 2
Flags: HMW
HStem: 637.5 17G<237.5 242.6 242.6 245.575>
LayerCount: 2
Fore
SplineSet
242.599609375 654.5 m 2
 248.549804688 654.5 255.349609375 652.799804688 263 650.25 c 0
 274.049804688 646 286.799804688 636.650390625 302.950195312 622.200195312 c 0
 319.099609375 607.75 334.400390625 589.900390625 351.400390625 568.650390625 c 0
 368.400390625 547.400390625 385.400390625 525.299804688 402.400390625 503.200195312 c 0
 419.400390625 481.099609375 438.099609375 459 456.799804688 435.200195312 c 0
 475.5 411.400390625 493.349609375 392.700195312 507.799804688 379.099609375 c 0
 510.349609375 376.549804688 512.049804688 371.450195312 512.049804688 364.650390625 c 0
 512.049804688 356.150390625 510.349609375 347.650390625 506.099609375 340 c 0
 501.849609375 332.349609375 497.599609375 327.25 491.650390625 323.849609375 c 0
 455.950195312 300.049804688 413.450195312 269.450195312 365 233.75 c 0
 316.549804688 198.049804688 272.349609375 164.900390625 232.400390625 136 c 0
 192.450195312 107.099609375 156.75 84.150390625 127 67.150390625 c 0
 117.650390625 62.0498046875 110 59.5 103.200195312 59.5 c 0
 98.9501953125 59.5 96.400390625 59.5 94.7001953125 61.2001953125 c 0
 91.2998046875 63.75 87.900390625 67.150390625 86.2001953125 70.5498046875 c 0
 84.5 73.9501953125 82.7998046875 75.650390625 82.7998046875 79.0498046875 c 0
 82.7998046875 82.4501953125 81.9501953125 85 81.9501953125 85.849609375 c 0
 81.9501953125 90.9501953125 84.5 96.0498046875 88.75 102 c 0
 96.400390625 111.349609375 110 122.400390625 130.400390625 135.150390625 c 0
 165.25 157.25 218.799804688 192.950195312 290.200195312 243.950195312 c 0
 361.599609375 294.950195312 411.75 328.950195312 438.099609375 346.799804688 c 1
 428.75 355.299804688 l 2
 411.75 372.299804688 394.75 393.549804688 375.200195312 417.349609375 c 0
 355.650390625 441.150390625 338.650390625 462.400390625 324.200195312 481.950195312 c 0
 309.75 501.5 293.599609375 522.75 275.75 543.150390625 c 0
 257.900390625 563.549804688 242.599609375 579.700195312 227.299804688 591.599609375 c 0
 210.299804688 605.200195312 202.650390625 616.25 202.650390625 624.75 c 0
 202.650390625 629 204.349609375 633.25 206.900390625 637.5 c 0
 209.450195312 641.75 213.700195312 646 218.799804688 648.549804688 c 0
 223.900390625 651.099609375 229.849609375 653.650390625 237.5 654.5 c 2
 242.599609375 654.5 l 2
EndSplineSet
Validated: 524289
EndChar

StartChar: question
Encoding: 63 63 41
Width: 548
VWidth: 903
GlyphClass: 2
Flags: HMW
HStem: 51.4 110.5<163.125 217.525 169.5 217.525> 605.6 51<319.1 330.15>
VStem: 134.65 112.2<84.975 130.025> 400.7 58.65<544.825 547.8>
LayerCount: 2
Fore
SplineSet
459.349609375 552.900390625 m 0
 459.349609375 536.75 456.799804688 518.900390625 452.549804688 499.349609375 c 0
 449.150390625 484.900390625 443.200195312 472.150390625 436.400390625 460.25 c 0
 429.599609375 448.349609375 421.950195312 438.150390625 413.450195312 429.650390625 c 0
 404.950195312 421.150390625 394.75 413.5 383.700195312 405.849609375 c 0
 372.650390625 398.200195312 361.599609375 389.700195312 349.700195312 382.049804688 c 0
 337.799804688 374.400390625 327.599609375 365.900390625 316.549804688 356.549804688 c 0
 305.5 347.200195312 296.150390625 336.150390625 285.950195312 323.400390625 c 0
 275.75 310.650390625 268.099609375 296.200195312 262.150390625 280.049804688 c 0
 257.049804688 267.299804688 250.25 257.099609375 242.599609375 250.299804688 c 0
 238.349609375 246.049804688 233.25 244.349609375 227.299804688 244.349609375 c 0
 225.599609375 244.349609375 222.200195312 246.049804688 217.950195312 246.049804688 c 0
 213.700195312 246.900390625 209.450195312 249.450195312 206.900390625 251.150390625 c 0
 202.650390625 254.549804688 200.950195312 258.799804688 200.950195312 264.75 c 0
 200.950195312 273.25 204.349609375 284.299804688 210.299804688 297.049804688 c 0
 217.099609375 311.5 225.599609375 325.099609375 235.799804688 337.849609375 c 0
 246 350.599609375 254.5 362.5 264.700195312 371.849609375 c 0
 274.900390625 381.200195312 285.950195312 390.549804688 297 399.049804688 c 0
 308.049804688 407.549804688 319.099609375 416.049804688 329.299804688 423.700195312 c 0
 339.5 431.349609375 349.700195312 439 359.049804688 447.5 c 0
 368.400390625 456 376.049804688 465.349609375 382.849609375 475.549804688 c 0
 389.650390625 485.75 394.75 496.799804688 397.299804688 507.849609375 c 0
 399.849609375 518.900390625 400.700195312 529.099609375 400.700195312 538.450195312 c 0
 400.700195312 557.150390625 395.599609375 571.599609375 385.400390625 582.650390625 c 0
 370.099609375 597.950195312 346.299804688 605.599609375 314 605.599609375 c 0
 305.5 605.599609375 297 603.900390625 287.650390625 599.650390625 c 0
 278.299804688 595.400390625 269.799804688 591.150390625 263 586.049804688 c 0
 256.200195312 580.950195312 248.549804688 574.150390625 240.049804688 566.5 c 0
 231.549804688 558.849609375 224.75 552.049804688 220.5 546.950195312 c 0
 216.25 541.849609375 210.299804688 535.049804688 203.5 527.400390625 c 0
 192.450195312 514.650390625 183.950195312 507 178 507 c 0
 177.150390625 507 174.599609375 506.150390625 173.75 506.150390625 c 0
 172.900390625 506.150390625 170.349609375 507 168.650390625 507.849609375 c 0
 166.950195312 508.700195312 162.700195312 510.400390625 158.450195312 512.099609375 c 0
 154.200195312 514.650390625 151.650390625 518.900390625 151.650390625 524.849609375 c 0
 151.650390625 532.5 155.900390625 542.700195312 165.25 556.299804688 c 0
 182.25 579.25 204.349609375 601.349609375 230.700195312 621.75 c 0
 244.299804688 631.950195312 259.599609375 640.450195312 276.599609375 647.25 c 0
 293.599609375 654.049804688 310.599609375 656.599609375 327.599609375 656.599609375 c 0
 381.150390625 656.599609375 418.549804688 643.849609375 439.799804688 617.5 c 0
 452.549804688 601.349609375 459.349609375 580.099609375 459.349609375 552.900390625 c 0
246.849609375 125.349609375 m 0
 246.849609375 121.099609375 246 116 245.150390625 110.900390625 c 0
 241.75 94.75 234.099609375 82 221.349609375 70.9501953125 c 0
 208.599609375 59.900390625 193.299804688 53.099609375 176.299804688 51.400390625 c 2
 169.5 51.400390625 l 2
 156.75 51.400390625 148.25 55.650390625 142.299804688 64.150390625 c 0
 137.200195312 71.7998046875 134.650390625 80.2998046875 134.650390625 89.650390625 c 0
 134.650390625 93.900390625 135.5 99 136.349609375 104.950195312 c 0
 140.599609375 120.25 149.099609375 133 163.549804688 144.049804688 c 0
 178.849609375 155.950195312 194.150390625 161.900390625 211.150390625 161.900390625 c 0
 223.900390625 161.900390625 234.099609375 157.650390625 240.049804688 149.150390625 c 0
 244.299804688 142.349609375 246.849609375 134.700195312 246.849609375 125.349609375 c 0
EndSplineSet
Validated: 524289
EndChar

StartChar: at
Encoding: 64 64 42
Width: 548
VWidth: 892
GlyphClass: 2
Flags: HMW
HStem: -56.475 51.85<195 235.375 207.75 235.375> 139.875 45.05<376.475 402.825> 153.475 47.6<261.725 268.525> 377.875 44.2<319.95 345.025 319.95 345.025> 574.225 55.25<364.575 395.6 376.05 389.65>
VStem: 76.85 51<127.975 143.7> 188.2 45.05<211.275 237.625> 345.45 28.05 473.8 43.35<433.975 496.45>
LayerCount: 2
Fore
SplineSet
408.349609375 84.625 m 2xdf80
 408.349609375 82.9248046875 406.650390625 78.6748046875 404.950195312 73.5751953125 c 0
 403.25 68.474609375 399.849609375 61.6748046875 394.75 53.1748046875 c 0
 390.5 45.525390625 386.25 37.875 382 31.9248046875 c 0
 377.75 25.974609375 372.650390625 19.1748046875 365.849609375 10.6748046875 c 0
 359.049804688 2.1748046875 352.25 -3.775390625 345.450195312 -9.724609375 c 0
 338.650390625 -15.6748046875 331 -22.474609375 320.799804688 -28.4248046875 c 0
 310.599609375 -34.375 300.400390625 -39.474609375 290.200195312 -43.724609375 c 0
 280 -47.974609375 267.25 -51.375 253.650390625 -53.0751953125 c 0
 240.049804688 -54.775390625 226.450195312 -56.474609375 212 -56.474609375 c 2
 207.75 -56.474609375 l 2
 182.25 -56.474609375 159.299804688 -49.6748046875 140.599609375 -36.0751953125 c 0
 121.900390625 -22.474609375 106.599609375 -3.775390625 95.5498046875 20.875 c 0
 82.7998046875 49.775390625 76.849609375 85.474609375 76.849609375 127.125 c 0
 76.849609375 160.275390625 80.25 195.974609375 89.599609375 234.224609375 c 0
 101.5 283.525390625 115.950195312 330.275390625 132.950195312 372.775390625 c 0
 149.950195312 415.275390625 167.799804688 451.825195312 187.349609375 483.275390625 c 0
 206.900390625 514.724609375 229.849609375 541.075195312 251.950195312 563.174804688 c 0
 274.049804688 585.275390625 297 602.275390625 319.950195312 613.325195312 c 0
 342.900390625 624.375 365 629.474609375 387.099609375 629.474609375 c 0
 404.099609375 629.474609375 419.400390625 628.625 432.150390625 626.075195312 c 0
 444.900390625 623.525390625 457.650390625 618.424804688 467.849609375 611.625 c 0
 478.049804688 604.825195312 486.549804688 597.174804688 493.349609375 586.974609375 c 0
 500.150390625 576.775390625 506.099609375 562.325195312 510.349609375 545.325195312 c 0
 514.599609375 528.325195312 517.150390625 507.924804688 517.150390625 484.974609375 c 0
 517.150390625 436.525390625 507.799804688 372.775390625 489.950195312 293.724609375 c 0
 480.599609375 253.775390625 467 218.075195312 449.150390625 188.325195312 c 0
 439.799804688 173.025390625 429.599609375 161.125 418.549804688 152.625 c 0
 407.5 144.125 395.599609375 139.875 383.700195312 139.875 c 0
 369.25 139.875 359.049804688 144.125 353.099609375 151.775390625 c 0
 348 158.575195312 345.450195312 168.775390625 345.450195312 181.525390625 c 0
 345.450195312 186.625 345.450195312 192.575195312 346.299804688 199.375 c 2
 353.950195312 256.325195312 l 1
 326.75 206.174804688 l 2
 308.049804688 170.474609375 283.400390625 153.474609375 253.650390625 153.474609375 c 0xbf80
 226.450195312 153.474609375 207.75 161.974609375 197.549804688 179.825195312 c 0
 191.599609375 190.025390625 188.200195312 202.775390625 188.200195312 219.775390625 c 0
 188.200195312 234.224609375 190.75 251.224609375 195 270.775390625 c 0
 199.25 290.325195312 206.049804688 308.174804688 214.549804688 326.025390625 c 0
 223.049804688 343.875 231.549804688 357.474609375 241.75 369.375 c 0
 251.950195312 381.275390625 263 391.474609375 274.049804688 399.974609375 c 0
 285.099609375 408.474609375 297 413.575195312 308.049804688 416.974609375 c 0
 319.099609375 420.375 329.299804688 422.075195312 338.650390625 422.075195312 c 0
 351.400390625 422.075195312 364.150390625 419.525390625 376.049804688 413.575195312 c 0
 385.400390625 409.325195312 392.200195312 404.224609375 396.450195312 397.424804688 c 0
 397.299804688 394.875 398.150390625 392.325195312 398.150390625 390.625 c 0
 398.150390625 388.924804688 397.299804688 387.224609375 396.450195312 385.525390625 c 0
 391.349609375 377.875 386.25 373.625 381.150390625 371.924804688 c 0
 376.900390625 371.075195312 372.650390625 370.224609375 370.099609375 370.224609375 c 0
 365.849609375 370.224609375 356.5 371.924804688 342.900390625 376.174804688 c 0
 336.950195312 377.025390625 331.849609375 377.875 328.450195312 377.875 c 2
 319.950195312 377.875 l 2
 311.450195312 377.025390625 302.950195312 373.625 294.450195312 368.525390625 c 0
 285.950195312 363.424804688 278.299804688 358.325195312 271.5 350.674804688 c 0
 264.700195312 343.025390625 257.900390625 334.525390625 251.950195312 322.625 c 0
 246 310.724609375 241.75 297.974609375 238.349609375 283.525390625 c 0
 234.950195312 269.075195312 233.25 257.174804688 233.25 247.825195312 c 2
 233.25 237.625 l 2
 233.25 227.424804688 236.650390625 218.924804688 241.75 212.125 c 0
 247.700195312 204.474609375 256.200195312 201.075195312 267.25 201.075195312 c 0
 286.799804688 201.075195312 302.950195312 208.724609375 315.700195312 225.724609375 c 0
 326.75 241.025390625 336.950195312 264.825195312 345.450195312 298.825195312 c 0
 346.299804688 303.924804688 353.099609375 309.025390625 364.150390625 313.275390625 c 0
 372.650390625 316.674804688 379.450195312 318.375 385.400390625 318.375 c 0
 388.799804688 318.375 392.200195312 317.525390625 393.900390625 316.674804688 c 2
 394.75 315.825195312 l 1
 394.75 315.825195312 393.900390625 314.125 393.900390625 312.424804688 c 0
 383.700195312 281.825195312 376.900390625 258.025390625 375.200195312 240.174804688 c 0
 374.349609375 231.674804688 373.5 224.025390625 373.5 217.224609375 c 0
 373.5 210.424804688 374.349609375 205.325195312 376.049804688 201.075195312 c 0
 377.75 195.125 382 190.875 386.25 188.325195312 c 0
 390.5 186.625 394.75 184.924804688 399 184.924804688 c 0xdf80
 406.650390625 184.924804688 414.299804688 190.025390625 421.099609375 201.075195312 c 0xbf80
 426.200195312 209.575195312 431.299804688 219.775390625 435.549804688 232.525390625 c 0
 443.200195312 253.775390625 449.150390625 274.174804688 453.400390625 292.025390625 c 0
 459.349609375 320.924804688 465.299804688 348.974609375 468.700195312 375.325195312 c 0
 472.099609375 401.674804688 473.799804688 424.625 473.799804688 443.325195312 c 0
 473.799804688 458.625 472.099609375 473.075195312 469.549804688 486.674804688 c 0
 467 500.275390625 464.450195312 512.174804688 461.049804688 521.525390625 c 0
 457.650390625 530.875 452.549804688 539.375 445.75 546.174804688 c 0
 438.950195312 552.974609375 433 558.924804688 427.049804688 562.325195312 c 0
 421.099609375 565.724609375 415.150390625 569.125 407.5 570.825195312 c 0
 399.849609375 572.525390625 393.900390625 574.224609375 389.650390625 574.224609375 c 2
 376.049804688 574.224609375 l 2
 353.099609375 574.224609375 330.150390625 567.424804688 307.200195312 552.125 c 0
 284.25 536.825195312 262.150390625 516.424804688 241.75 490.075195312 c 0
 221.349609375 463.724609375 202.650390625 431.424804688 185.650390625 394.025390625 c 0
 168.650390625 356.625 155.049804688 314.974609375 144.849609375 269.924804688 c 0
 133.799804688 219.775390625 127.849609375 175.575195312 127.849609375 138.174804688 c 0
 127.849609375 117.775390625 129.549804688 100.775390625 132.950195312 86.3251953125 c 0
 138.049804688 65.9248046875 145.700195312 48.0751953125 155.049804688 33.625 c 0
 164.400390625 19.1748046875 175.450195312 9.8251953125 187.349609375 3.875 c 0
 199.25 -2.0751953125 213.700195312 -4.625 228.150390625 -4.625 c 0
 242.599609375 -4.625 257.049804688 -2.9248046875 269.799804688 -0.375 c 0
 282.549804688 2.1748046875 292.75 6.4248046875 302.099609375 10.6748046875 c 0
 311.450195312 14.9248046875 319.950195312 20.875 329.299804688 27.6748046875 c 0
 338.650390625 34.474609375 345.450195312 42.125 350.549804688 48.0751953125 c 0
 355.650390625 54.025390625 362.450195312 61.6748046875 369.25 70.1748046875 c 0
 373.5 76.125 376.900390625 80.375 380.299804688 83.775390625 c 0
 384.549804688 88.875 387.950195312 92.275390625 389.650390625 93.125 c 0
 391.349609375 93.125 393.049804688 94.8251953125 394.75 95.6748046875 c 0
 396.450195312 96.525390625 399 96.525390625 400.700195312 95.6748046875 c 0
 402.400390625 94.8251953125 404.950195312 93.125 405.799804688 92.275390625 c 0
 406.650390625 91.4248046875 408.349609375 88.025390625 408.349609375 86.3251953125 c 2
 408.349609375 84.625 l 2xdf80
394.75 315.825195312 m 1024
EndSplineSet
Validated: 524289
EndChar

StartChar: A
Encoding: 65 65 43
Width: 548
VWidth: 905
GlyphClass: 2
Flags: HMW
HStem: 290.4 36.55<419.325 419.325 419.325 427.825>
VStem: 423.575 61.2<111.9 162.9> 427.825 48.45 439.725 52.7
LayerCount: 2
Fore
SplineSet
416.775390625 290.400390625 m 1xa0
 353.025390625 287.849609375 293.525390625 281.049804688 240.825195312 270.849609375 c 1
 212.775390625 222.400390625 183.875 167.150390625 154.125 105.099609375 c 0
 146.474609375 89.7998046875 138.825195312 79.599609375 129.474609375 75.349609375 c 0
 125.224609375 73.650390625 120.125 71.9501953125 116.724609375 71.9501953125 c 0
 113.325195312 71.9501953125 110.775390625 72.7998046875 108.224609375 73.650390625 c 0
 105.674804688 74.5 103.125 77.0498046875 102.275390625 79.599609375 c 0
 101.424804688 82.150390625 100.575195312 85.5498046875 100.575195312 88.9501953125 c 0
 100.575195312 97.4501953125 104.825195312 109.349609375 111.625 124.650390625 c 0
 119.275390625 142.5 144.775390625 189.25 190.674804688 264.049804688 c 1
 188.974609375 273.400390625 186.424804688 275.099609375 184.724609375 270 c 1
 180.474609375 272.549804688 178.775390625 275.950195312 178.775390625 279.349609375 c 0
 178.775390625 280.200195312 179.625 281.900390625 179.625 283.599609375 c 0
 180.474609375 289.549804688 183.875 295.5 191.525390625 301.450195312 c 0
 199.174804688 307.400390625 208.525390625 311.650390625 217.875 315.049804688 c 1
 218.724609375 322.700195312 220.424804688 323.549804688 221.275390625 316.75 c 1
 313.924804688 479.950195312 382.775390625 588.75 427.825195312 643.150390625 c 0
 437.174804688 654.200195312 445.674804688 661 451.625 665.25 c 0
 457.575195312 669.5 463.525390625 672.049804688 468.625 672.049804688 c 2
 469.474609375 672.049804688 l 1
 472.875 672.049804688 l 2
 478.825195312 672.049804688 483.075195312 670.349609375 487.325195312 667.799804688 c 0
 490.724609375 666.099609375 492.424804688 661 492.424804688 655.049804688 c 2x90
 492.424804688 650.799804688 l 1
 486.474609375 580.25 483.075195312 480.799804688 479.674804688 351.599609375 c 0
 477.974609375 301.450195312 476.275390625 260.650390625 476.275390625 226.650390625 c 0xa0
 476.275390625 172.25 478.825195312 139.099609375 482.224609375 127.200195312 c 0
 483.924804688 122.099609375 484.775390625 117 484.775390625 113.599609375 c 0xc0
 484.775390625 110.200195312 483.924804688 106.799804688 483.075195312 103.400390625 c 0
 480.525390625 95.75 475.424804688 90.650390625 471.174804688 85.5498046875 c 0
 466.924804688 80.4501953125 461.825195312 76.2001953125 455.875 74.5 c 0
 451.625 72.7998046875 449.075195312 71.9501953125 446.525390625 71.9501953125 c 0
 443.125 71.9501953125 438.875 72.7998046875 436.325195312 74.5 c 0
 430.375 77.900390625 426.125 87.25 424.424804688 101.700195312 c 0
 424.424804688 108.5 423.575195312 124.650390625 423.575195312 150.150390625 c 0
 423.575195312 175.650390625 426.125 223.25 427.825195312 290.400390625 c 1
 424.424804688 298.049804688 421.025390625 298.049804688 416.775390625 290.400390625 c 1xa0
420.174804688 574.299804688 m 2
 388.724609375 536.049804688 341.125 455.299804688 277.375 331.200195312 c 1
 268.875 313.349609375 l 1
 287.575195312 315.900390625 l 2
 336.875 321.849609375 380.224609375 326.099609375 419.325195312 326.950195312 c 2
 429.525390625 327.799804688 l 1
 439.724609375 597.25 l 1
 420.174804688 574.299804688 l 2
EndSplineSet
Validated: 524289
EndChar

StartChar: B
Encoding: 66 66 44
Width: 548
VWidth: 899
GlyphClass: 2
Flags: HMW
HStem: 313.03 39.95<276.6 280 280 280.85> 595.23 36.55<341.2 355.65 355.65 358.2>
VStem: 412.6 61.2<228.88 232.705 228.88 232.705> 448.3 52.7<503.005 507.255>
LayerCount: 2
Fore
SplineSet
472.099609375 220.380859375 m 2xd0
 467.849609375 199.98046875 458.5 179.580078125 444.049804688 160.030273438 c 0
 429.599609375 140.48046875 410.900390625 121.780273438 389.650390625 104.780273438 c 0
 369.25 87.7802734375 343.75 73.330078125 314.849609375 61.4306640625 c 0
 285.950195312 49.5302734375 255.349609375 41.0302734375 222.200195312 37.630859375 c 1
 216.940429688 33.3271484375 211.681640625 31.17578125 206.421875 31.17578125 c 2
 194.150390625 35.080078125 l 1
 188.890625 30.77734375 183.900390625 28.6259765625 178.876953125 28.6259765625 c 0
 174.96875 28.6259765625 171.041015625 29.927734375 166.950195312 32.5302734375 c 0
 149.950195312 30.830078125 138.049804688 29.98046875 129.549804688 29.98046875 c 0
 124.450195312 29.98046875 119.349609375 30.830078125 114.25 31.6806640625 c 2
 112.549804688 31.6806640625 l 1
 110 31.6806640625 l 2
 103.200195312 31.6806640625 98.099609375 34.23046875 95.5498046875 38.48046875 c 0
 93.849609375 40.1806640625 93 43.580078125 93 47.830078125 c 0
 93 52.080078125 93.849609375 56.330078125 95.5498046875 61.4306640625 c 0
 103.200195312 85.23046875 114.25 130.280273438 128.700195312 197.430664062 c 0
 143.150390625 264.580078125 157.599609375 334.280273438 171.200195312 405.680664062 c 0
 178.849609375 443.080078125 184.799804688 468.580078125 187.349609375 481.330078125 c 0
 189.900390625 494.080078125 194.150390625 511.930664062 200.099609375 534.030273438 c 0
 204.349609375 541.680664062 207.75 556.98046875 212 579.080078125 c 0
 214.549804688 592.680664062 219.650390625 602.880859375 226.450195312 608.830078125 c 0
 233.25 614.780273438 240.049804688 618.180664062 247.700195312 618.180664062 c 2
 251.099609375 618.180664062 l 1
 251.950195312 618.180664062 l 2
 261.299804688 620.73046875 269.799804688 623.280273438 278.299804688 624.98046875 c 0
 294.450195312 628.380859375 308.900390625 630.930664062 323.349609375 630.930664062 c 0
 331 630.930664062 336.950195312 631.780273438 341.200195312 631.780273438 c 2
 355.650390625 631.780273438 l 1
 364.150390625 631.780273438 l 2
 395.599609375 631.780273438 422.799804688 625.830078125 445.75 612.23046875 c 0
 468.700195312 598.630859375 484 579.930664062 493.349609375 555.280273438 c 0
 498.450195312 540.830078125 501 526.380859375 501 509.380859375 c 0
 501 496.630859375 499.299804688 482.180664062 495.900390625 467.73046875 c 0
 489.099609375 436.280273438 476.349609375 409.080078125 457.650390625 386.98046875 c 0
 438.950195312 364.880859375 416.849609375 348.73046875 392.200195312 338.530273438 c 1
 384.549804688 329.180664062 377.75 325.780273438 370.099609375 329.180664062 c 1
 375.590820312 321.859375 380.64453125 318.041015625 385.887695312 318.041015625 c 0
 387.950195312 318.041015625 390.041015625 318.630859375 392.200195312 319.830078125 c 0
 406.650390625 313.880859375 421.099609375 304.530273438 434.700195312 293.48046875 c 0
 448.299804688 282.430664062 458.5 269.680664062 466.150390625 255.23046875 c 0
 471.25 245.880859375 473.799804688 236.530273438 473.799804688 228.880859375 c 2xe0
 472.099609375 220.380859375 l 2xd0
268.099609375 584.180664062 m 2
 263 582.48046875 l 1
 247.700195312 519.580078125 237.5 475.380859375 231.549804688 449.030273438 c 0
 225.599609375 422.680664062 219.650390625 391.23046875 212 355.530273438 c 1
 241.75 353.830078125 266.400390625 352.98046875 286.799804688 352.98046875 c 0
 302.099609375 352.98046875 316.549804688 354.680664062 329.299804688 357.23046875 c 0
 342.049804688 359.780273438 353.950195312 363.180664062 363.299804688 368.280273438 c 0
 372.650390625 373.380859375 382 379.330078125 390.5 386.98046875 c 0
 399 394.630859375 406.650390625 401.430664062 412.599609375 409.080078125 c 0
 418.549804688 416.73046875 423.650390625 424.380859375 427.900390625 432.880859375 c 0
 432.150390625 441.380859375 435.549804688 449.880859375 438.099609375 456.680664062 c 0
 440.650390625 463.48046875 444.049804688 471.130859375 445.75 479.630859375 c 0
 447.450195312 488.130859375 448.299804688 495.780273438 448.299804688 503.430664062 c 0xd0
 448.299804688 511.080078125 447.450195312 517.030273438 446.599609375 522.98046875 c 0
 444.049804688 537.430664062 438.950195312 548.48046875 431.299804688 557.830078125 c 0
 423.650390625 567.180664062 415.150390625 573.98046875 404.099609375 579.930664062 c 0
 387.099609375 590.130859375 368.400390625 595.23046875 348 595.23046875 c 0
 321.650390625 595.23046875 294.450195312 591.830078125 268.099609375 584.180664062 c 2
385.400390625 271.380859375 m 0
 376.049804688 279.880859375 362.450195312 287.530273438 344.599609375 295.180664062 c 0
 326.75 302.830078125 305.5 308.780273438 280.849609375 313.030273438 c 1
 280 313.030273438 l 2
 244.299804688 313.030273438 219.650390625 311.330078125 203.5 311.330078125 c 1
 184.799804688 214.430664062 170.349609375 142.180664062 161 95.4306640625 c 1
 175.450195312 96.2802734375 189.049804688 97.130859375 201.799804688 97.130859375 c 0
 214.549804688 97.130859375 223.900390625 97.98046875 229.849609375 97.98046875 c 0
 252.799804688 98.830078125 274.900390625 103.930664062 297 112.430664062 c 0
 319.099609375 120.930664062 337.799804688 129.430664062 353.099609375 141.330078125 c 0
 368.400390625 153.23046875 381.150390625 165.98046875 391.349609375 178.73046875 c 0
 402.400390625 191.48046875 409.200195312 204.23046875 411.75 216.130859375 c 0
 411.75 218.680664062 412.599609375 222.080078125 412.599609375 224.630859375 c 0xe0
 412.599609375 240.780273438 403.25 256.080078125 385.400390625 271.380859375 c 0
EndSplineSet
Validated: 524289
EndChar

StartChar: C
Encoding: 67 67 45
Width: 548
VWidth: 903
GlyphClass: 2
Flags: HMW
HStem: 26.9 56.95<180.55 223.05 189.9 223.05> 609.15 50.15<404.1 407.925> 649.1 17.85G
VStem: 65.8 65.45<160.775 215.175>
LayerCount: 2
Fore
SplineSet
195.849609375 26.900390625 m 2xd0
 189.900390625 26.900390625 l 2
 171.200195312 26.900390625 154.200195312 30.2998046875 138.049804688 37.9501953125 c 0
 121.900390625 45.599609375 109.150390625 54.9501953125 98.9501953125 67.7001953125 c 0
 88.75 80.4501953125 81.099609375 94.900390625 75.150390625 112.75 c 0
 69.2001953125 130.599609375 65.7998046875 150.150390625 65.7998046875 171.400390625 c 0
 65.7998046875 188.400390625 67.5 205.400390625 71.75 223.25 c 0
 81.099609375 264.900390625 93.849609375 305.700195312 110.849609375 344.799804688 c 0
 127.849609375 383.900390625 145.700195312 420.450195312 166.099609375 451.900390625 c 0
 184.799804688 483.349609375 205.200195312 512.25 227.299804688 538.599609375 c 0
 249.400390625 564.950195312 271.5 586.200195312 292.75 604.049804688 c 0
 314 621.900390625 336.099609375 635.5 356.5 644.849609375 c 0
 376.900390625 654.200195312 395.599609375 659.299804688 412.599609375 659.299804688 c 0
 430.450195312 659.299804688 445.75 656.75 460.200195312 652.5 c 1
 462.75 657.599609375 466.150390625 656.75 468.700195312 649.099609375 c 1xb0
 470.400390625 658.450195312 472.099609375 661.849609375 472.950195312 657.599609375 c 1
 476.349609375 665.25 480.599609375 671.200195312 486.549804688 675.450195312 c 0
 492.5 679.700195312 497.599609375 682.25 503.549804688 682.25 c 2
 507.799804688 683.099609375 l 2
 512.049804688 683.099609375 516.299804688 681.400390625 520.549804688 678 c 0
 525.650390625 673.75 528.200195312 667.799804688 528.200195312 659.299804688 c 0
 528.200195312 645.700195312 526.5 629.549804688 523.099609375 610.849609375 c 0
 522.25 603.200195312 520.549804688 593 517.150390625 581.099609375 c 0
 513.75 569.200195312 511.200195312 561.549804688 511.200195312 559.849609375 c 0
 509.5 548.799804688 502.700195312 537.75 493.349609375 526.700195312 c 0
 484 515.650390625 476.349609375 509.700195312 470.400390625 509.700195312 c 2
 466.150390625 509.700195312 l 2
 460.200195312 509.700195312 455.099609375 511.400390625 450.849609375 515.650390625 c 0
 447.450195312 518.200195312 445.75 522.450195312 445.75 527.549804688 c 0
 445.75 528.400390625 446.599609375 530.950195312 446.599609375 533.5 c 0
 447.450195312 538.599609375 451.700195312 553.049804688 457.650390625 576.849609375 c 0
 456.799804688 582.799804688 455.099609375 584.5 453.400390625 581.099609375 c 1
 450.849609375 582.799804688 445.75 587.900390625 438.099609375 594.700195312 c 0
 436.400390625 596.400390625 433 598.950195312 428.75 601.5 c 0
 421.099609375 606.599609375 412.599609375 609.150390625 403.25 609.150390625 c 0
 386.25 609.150390625 366.700195312 603.200195312 346.299804688 590.450195312 c 0
 325.900390625 577.700195312 305.5 559.849609375 285.099609375 537.75 c 0
 264.700195312 515.650390625 243.450195312 490.150390625 224.75 462.099609375 c 0
 206.049804688 434.049804688 188.200195312 400.900390625 172.900390625 365.200195312 c 0
 155.900390625 329.5 144 292.099609375 136.349609375 256.400390625 c 0
 132.950195312 239.400390625 131.25 223.25 131.25 207.099609375 c 0
 131.25 196.900390625 132.099609375 186.700195312 133.799804688 176.5 c 0
 137.200195312 150.150390625 145.700195312 128.049804688 161 111.049804688 c 0
 175.450195312 93.2001953125 193.299804688 83.849609375 214.549804688 83.849609375 c 0
 231.549804688 83.849609375 246.849609375 85.5498046875 263.849609375 89.7998046875 c 0
 280.849609375 94.0498046875 295.299804688 99.150390625 308.900390625 105.950195312 c 0
 322.5 112.75 334.400390625 117.849609375 344.599609375 124.650390625 c 0
 354.799804688 131.450195312 364.150390625 138.25 373.5 145.900390625 c 0
 380.299804688 150.150390625 386.25 154.400390625 390.5 156.099609375 c 0
 394.75 157.799804688 399 159.5 403.25 159.5 c 0
 405.799804688 159.5 408.349609375 158.650390625 410.049804688 156.950195312 c 0
 413.450195312 152.700195312 415.150390625 149.299804688 415.150390625 145.049804688 c 0
 415.150390625 135.700195312 408.349609375 122.950195312 393.900390625 107.650390625 c 0
 342.900390625 54.099609375 277.450195312 26.900390625 195.849609375 26.900390625 c 2xd0
EndSplineSet
Validated: 524289
EndChar

StartChar: D
Encoding: 68 68 46
Width: 548
VWidth: 902
GlyphClass: 2
Flags: HMW
HStem: 26.1031 51.85<267.675 307.2 278.3 307.2> 657.653 17.85G<264.7 268.1 264.7 264.7>
VStem: 264.7 3.4<637.253 637.253 657.653 657.653> 450.85 55.25<342.303 374.603>
LayerCount: 2
Fore
SplineSet
268.099609375 657.653320312 m 1
 264.700195312 657.653320312 l 1
 265.549804688 669.552734375 267.25 674.653320312 268.099609375 672.953125 c 2
 268.099609375 657.653320312 l 1
268.099609375 636.403320312 m 1
 277.450195312 635.552734375 288.5 633.002929688 299.549804688 630.453125 c 0
 314 627.052734375 327.599609375 622.802734375 342.049804688 616.853515625 c 0
 356.5 610.903320312 370.950195312 602.403320312 387.099609375 592.203125 c 0
 403.25 582.002929688 417.700195312 570.103515625 432.150390625 556.502929688 c 0
 446.599609375 542.903320312 458.5 525.903320312 470.400390625 505.502929688 c 0
 482.299804688 485.103515625 490.799804688 463.853515625 496.75 440.903320312 c 0
 502.700195312 417.953125 506.099609375 390.752929688 506.099609375 361.002929688 c 0
 506.099609375 323.603515625 501.849609375 283.653320312 491.650390625 241.153320312 c 0
 486.549804688 222.453125 479.75 202.052734375 470.400390625 182.502929688 c 0
 461.049804688 162.953125 450 143.403320312 435.549804688 124.703125 c 0
 421.099609375 106.002929688 406.650390625 89.0029296875 390.5 74.552734375 c 0
 375.200195312 60.103515625 358.200195312 47.353515625 340.349609375 38.853515625 c 0
 322.5 30.353515625 302.950195312 26.103515625 285.099609375 26.103515625 c 2
 278.299804688 26.103515625 l 2
 257.049804688 26.103515625 235.799804688 27.802734375 214.549804688 29.5029296875 c 0
 193.299804688 31.203125 176.299804688 34.603515625 162.700195312 38.0029296875 c 0
 149.099609375 41.4033203125 136.349609375 44.802734375 125.299804688 48.203125 c 0
 114.25 51.603515625 107.450195312 52.453125 104.900390625 52.453125 c 0
 98.099609375 52.453125 93 55.0029296875 90.4501953125 59.2529296875 c 0
 88.75 60.953125 87.900390625 65.203125 87.900390625 69.453125 c 0
 87.900390625 73.703125 88.75 77.953125 90.4501953125 83.052734375 c 0
 98.099609375 110.252929688 110 158.703125 126.150390625 228.403320312 c 0
 142.299804688 298.103515625 156.75 372.903320312 172.900390625 453.653320312 c 0
 178.849609375 485.103515625 183.950195312 505.502929688 186.5 515.703125 c 0
 189.049804688 525.903320312 192.450195312 541.203125 197.549804688 562.453125 c 0
 202.650390625 583.703125 206.049804688 596.453125 206.900390625 600.703125 c 0
 209.450195312 613.453125 214.549804688 623.653320312 221.349609375 629.603515625 c 0
 228.150390625 635.552734375 234.950195312 638.953125 242.599609375 638.953125 c 0
 249.400390625 638.953125 257.049804688 638.103515625 264.700195312 637.252929688 c 1
 260.450195312 608.353515625 255.349609375 586.252929688 250.25 571.802734375 c 0
 232.400390625 498.703125 216.25 420.502929688 201.799804688 339.752929688 c 0
 195 296.403320312 188.200195312 259.002929688 180.549804688 229.252929688 c 0
 170.349609375 180.802734375 162.700195312 140.853515625 156.75 111.103515625 c 0
 158.450195312 103.453125 161.849609375 101.752929688 163.549804688 107.703125 c 1
 183.099609375 96.6533203125 203.5 89.0029296875 224.75 84.7529296875 c 0
 246 80.5029296875 271.5 77.953125 299.549804688 77.953125 c 0
 314.849609375 77.953125 330.150390625 83.052734375 345.450195312 94.953125 c 0
 360.75 106.853515625 374.349609375 121.302734375 386.25 139.153320312 c 0
 398.150390625 157.002929688 408.349609375 175.703125 418.549804688 196.103515625 c 0
 428.75 216.502929688 436.400390625 237.752929688 440.650390625 257.302734375 c 0
 447.450195312 286.203125 450.849609375 313.403320312 450.849609375 338.903320312 c 0
 450.849609375 410.302734375 426.200195312 468.103515625 375.200195312 511.453125 c 0
 353.950195312 530.153320312 320.799804688 550.552734375 277.450195312 571.802734375 c 1
 277.450195312 576.052734375 l 1
 274.900390625 576.052734375 l 1
 274.900390625 576.903320312 l 1
 273.200195312 576.903320312 l 1
 273.200195312 577.752929688 l 1
 271.5 577.752929688 l 1
 271.5 578.603515625 l 1
 268.099609375 578.603515625 l 1
 268.099609375 636.403320312 l 1
EndSplineSet
Validated: 524289
EndChar

StartChar: E
Encoding: 69 69 47
Width: 548
VWidth: 899
GlyphClass: 2
Flags: HMW
HStem: 32.5 53.55<129.475 197.9> 44.4 56.1<358.55 398.075 364.075 398.075> 314.7 52.7<177.925 210.225> 331.7 48.45<425.7 450.775> 572.25 50.15<385.325 403.6 364.925 409.125>
VStem: 63.175 65.45<72.875 112.825>
LayerCount: 2
Fore
SplineSet
374.275390625 44.400390625 m 2x4c
 364.075195312 44.400390625 l 2
 353.025390625 44.400390625 335.174804688 43.5498046875 308.825195312 41.849609375 c 0
 228.075195312 35.900390625 170.275390625 32.5 137.974609375 32.5 c 0xac
 120.974609375 32.5 109.075195312 33.349609375 98.025390625 34.2001953125 c 0
 88.6748046875 34.2001953125 81.025390625 40.150390625 73.375 49.5 c 0
 67.4248046875 57.150390625 63.1748046875 67.349609375 63.1748046875 78.400390625 c 0
 63.1748046875 89.4501953125 69.125 118.349609375 80.1748046875 165.099609375 c 0
 88.6748046875 202.5 98.025390625 243.299804688 109.075195312 286.650390625 c 0
 120.125 330 129.474609375 379.299804688 140.525390625 432.849609375 c 0
 147.325195312 466.849609375 152.424804688 488.950195312 154.974609375 500 c 0
 157.525390625 511.049804688 161.775390625 527.200195312 167.724609375 548.450195312 c 0
 173.674804688 569.700195312 176.224609375 582.450195312 177.075195312 588.400390625 c 0
 180.474609375 601.150390625 185.575195312 610.5 192.375 617.299804688 c 0
 199.174804688 624.099609375 206.825195312 627.5 214.474609375 627.5 c 1
 215.325195312 620.700195312 217.025390625 620.700195312 217.875 627.5 c 0
 221.275390625 627.5 223.825195312 626.650390625 226.375 625.799804688 c 0
 228.924804688 624.950195312 231.474609375 622.400390625 232.325195312 619 c 0
 233.174804688 609.650390625 234.875 607.099609375 235.724609375 611.349609375 c 1
 237.424804688 605.400390625 239.974609375 605.400390625 241.674804688 613.049804688 c 1
 282.474609375 619 334.325195312 622.400390625 395.525390625 622.400390625 c 0
 411.674804688 622.400390625 425.275390625 621.549804688 439.724609375 621.549804688 c 0
 470.325195312 620.700195312 494.125 618.150390625 511.974609375 616.450195312 c 0
 521.325195312 614.75 527.275390625 612.200195312 528.974609375 609.650390625 c 0
 528.974609375 608.799804688 529.825195312 606.25 529.825195312 604.549804688 c 0
 529.825195312 602.849609375 528.974609375 599.450195312 528.974609375 596.049804688 c 0
 528.974609375 592.650390625 527.275390625 588.400390625 525.575195312 585 c 0
 521.325195312 577.349609375 517.075195312 571.400390625 511.125 569.700195312 c 0
 508.575195312 568 506.025390625 567.150390625 504.325195312 567.150390625 c 0
 502.625 567.150390625 500.924804688 568 499.224609375 568 c 0
 462.674804688 570.549804688 426.974609375 572.25 391.275390625 572.25 c 0
 379.375 572.25 366.625 571.400390625 353.875 571.400390625 c 0
 307.125 570.549804688 267.174804688 567.150390625 231.474609375 561.200195312 c 1
 229.775390625 553.549804688 226.375 553.549804688 224.674804688 560.349609375 c 1
 207.674804688 496.599609375 194.075195312 432 180.474609375 366.549804688 c 1
 184.724609375 360.599609375 188.125 360.599609375 192.375 367.400390625 c 1
 228.075195312 367.400390625 278.224609375 369.099609375 340.275390625 373.349609375 c 0
 403.174804688 377.599609375 438.025390625 380.150390625 446.525390625 380.150390625 c 0x1c
 455.025390625 380.150390625 460.125 377.599609375 461.825195312 375.900390625 c 0
 463.525390625 372.5 463.525390625 367.400390625 462.674804688 360.599609375 c 0
 460.974609375 351.25 456.724609375 343.599609375 452.474609375 339.349609375 c 0
 447.375 334.25 439.724609375 331.700195312 430.375 331.700195312 c 0
 421.025390625 331.700195312 381.924804688 329.150390625 314.775390625 323.200195312 c 0
 247.625 317.25 202.575195312 314.700195312 177.924804688 314.700195312 c 1xac
 175.375 307.049804688 171.125 307.049804688 169.424804688 313.849609375 c 1
 160.924804688 276.450195312 154.125 240.75 146.474609375 205.900390625 c 0
 134.575195312 153.200195312 128.625 119.200195312 128.625 106.450195312 c 0
 128.625 103.049804688 129.474609375 97.9501953125 129.474609375 92 c 0
 131.174804688 84.349609375 133.724609375 84.349609375 135.424804688 90.2998046875 c 1
 139.674804688 88.599609375 145.625 86.900390625 154.125 86.900390625 c 0
 161.775390625 86.900390625 173.674804688 86.0498046875 189.825195312 86.0498046875 c 0
 205.974609375 86.0498046875 228.075195312 86.900390625 255.275390625 87.75 c 0
 319.025390625 91.150390625 361.525390625 94.5498046875 381.075195312 98.7998046875 c 0
 387.875 99.650390625 392.974609375 100.5 396.375 100.5 c 0
 399.775390625 100.5 403.174804688 99.650390625 404.875 98.7998046875 c 0
 406.575195312 97.9501953125 408.275390625 96.25 409.125 95.400390625 c 0
 409.974609375 94.5498046875 410.825195312 92 410.825195312 89.4501953125 c 0
 410.825195312 86.900390625 411.674804688 84.349609375 411.674804688 82.650390625 c 0
 411.674804688 80.9501953125 410.825195312 77.5498046875 410.825195312 75.849609375 c 0
 409.125 66.5 404.875 58.849609375 398.075195312 52.0498046875 c 0
 393.825195312 46.099609375 387.025390625 43.5498046875 379.375 43.5498046875 c 0
 377.674804688 43.5498046875 375.974609375 44.400390625 374.275390625 44.400390625 c 2x4c
EndSplineSet
Validated: 524289
EndChar

StartChar: F
Encoding: 70 70 48
Width: 548
VWidth: 900
GlyphClass: 2
Flags: HMW
HStem: 324.65 51<265.579 276.629> 576.25 53.55
LayerCount: 2
Fore
SplineSet
518.029296875 625.549804688 m 0
 527.379882812 624.700195312 532.479492188 622.150390625 533.329101562 620.450195312 c 0
 535.029296875 617.900390625 535.879882812 612.799804688 535.029296875 606 c 0
 533.329101562 598.349609375 528.229492188 590.700195312 522.279296875 584.75 c 0
 517.1796875 578.799804688 510.379882812 576.25 501.029296875 576.25 c 2
 499.329101562 576.25 l 2
 471.279296875 577.950195312 442.379882812 578.799804688 412.629882812 578.799804688 c 0
 357.379882812 578.799804688 296.1796875 575.400390625 229.029296875 569.450195312 c 1
 215.4296875 512.5 206.079101562 473.400390625 200.979492188 451.299804688 c 0
 195.879882812 429.200195312 189.9296875 402 183.129882812 369.700195312 c 1
 187.379882812 363.75 192.479492188 363.75 196.729492188 371.400390625 c 1
 217.979492188 373.950195312 240.9296875 375.650390625 265.579101562 375.650390625 c 2
 283.4296875 375.650390625 l 2
 314.879882812 374.799804688 342.9296875 372.25 368.4296875 369.700195312 c 0
 393.9296875 367.150390625 413.479492188 364.599609375 427.9296875 362.049804688 c 0
 433.029296875 361.200195312 436.4296875 358.650390625 438.979492188 357.799804688 c 0
 441.529296875 356.950195312 444.079101562 355.25 444.079101562 355.25 c 2
 444.9296875 353.549804688 445.779296875 351 445.779296875 347.599609375 c 2
 445.779296875 342.5 l 2
 444.079101562 334.849609375 439.829101562 327.200195312 434.729492188 321.25 c 0
 431.329101562 316.150390625 425.379882812 313.599609375 417.729492188 313.599609375 c 2
 416.029296875 313.599609375 l 2
 401.579101562 316.150390625 379.479492188 319.549804688 352.279296875 321.25 c 0
 325.079101562 322.950195312 293.629882812 324.650390625 259.629882812 324.650390625 c 0
 227.329101562 324.650390625 200.979492188 322.099609375 178.879882812 318.700195312 c 1
 177.1796875 311.049804688 174.629882812 311.049804688 172.9296875 317.849609375 c 1
 155.9296875 226.049804688 138.9296875 141.049804688 121.9296875 62.849609375 c 0
 118.529296875 53.5 112.579101562 45.849609375 104.079101562 39.900390625 c 0
 95.5791015625 33.9501953125 87.0791015625 31.400390625 78.5791015625 31.400390625 c 0
 77.7294921875 31.400390625 76.029296875 32.25 76.029296875 32.25 c 2
 69.2294921875 32.25 64.1298828125 34.7998046875 61.5791015625 39.0498046875 c 0
 59.8798828125 40.75 59.029296875 44.150390625 59.029296875 48.400390625 c 0
 59.029296875 52.650390625 59.8798828125 56.900390625 61.5791015625 62 c 0
 69.2294921875 86.650390625 79.4296875 135.099609375 95.5791015625 205.650390625 c 0
 111.729492188 276.200195312 127.029296875 349.299804688 141.479492188 424.099609375 c 0
 149.129882812 461.5 155.079101562 487.849609375 157.629882812 500.599609375 c 0
 160.1796875 513.349609375 163.579101562 530.349609375 169.529296875 552.450195312 c 0
 173.779296875 560.950195312 178.029296875 576.25 182.279296875 598.349609375 c 0
 184.829101562 611.099609375 189.9296875 621.299804688 196.729492188 627.25 c 0
 203.529296875 633.200195312 211.1796875 636.599609375 218.829101562 636.599609375 c 2
 222.229492188 636.599609375 l 2
 226.479492188 636.599609375 229.029296875 635.75 231.579101562 634.900390625 c 0
 234.129882812 634.049804688 236.6796875 631.5 237.529296875 628.099609375 c 0
 237.529296875 618.75 239.229492188 617.049804688 240.079101562 621.299804688 c 1
 304.6796875 627.25 365.029296875 629.799804688 421.129882812 629.799804688 c 0
 459.379882812 629.799804688 491.6796875 628.099609375 518.029296875 625.549804688 c 0
EndSplineSet
Validated: 524289
EndChar

StartChar: G
Encoding: 71 71 49
Width: 548
VWidth: 901
GlyphClass: 2
Flags: HMW
HStem: 25.625 56.95<181.325 222.975 190.675 222.975> 297.625 50.15<403.6 438.025> 618.075 49.3<407.85 411.25>
VStem: 66.575 66.3<159.5 213.9>
LayerCount: 2
Fore
SplineSet
510.275390625 635.924804688 m 0
 517.075195312 631.674804688 521.325195312 627.424804688 523.025390625 624.875 c 0
 525.575195312 620.625 526.424804688 616.375 526.424804688 611.275390625 c 0
 526.424804688 604.474609375 524.724609375 595.974609375 519.625 586.625 c 0
 517.924804688 581.525390625 511.974609375 577.275390625 506.025390625 574.724609375 c 0
 502.625 573.875 500.075195312 573.025390625 498.375 573.025390625 c 0
 496.674804688 573.025390625 493.275390625 574.724609375 489.875 574.724609375 c 0
 487.325195312 575.575195312 481.375 579.825195312 472.025390625 587.474609375 c 0
 462.674804688 595.125 451.625 601.924804688 439.724609375 607.875 c 0
 427.825195312 614.674804688 416.775390625 618.075195312 405.724609375 618.075195312 c 0
 388.724609375 618.075195312 370.025390625 611.275390625 349.625 598.525390625 c 0
 329.224609375 585.775390625 308.825195312 567.924804688 287.575195312 544.974609375 c 0
 266.325195312 522.025390625 245.075195312 495.674804688 226.375 465.924804688 c 0
 207.674804688 436.174804688 189.825195312 403.025390625 174.525390625 366.474609375 c 0
 157.525390625 329.924804688 144.775390625 292.525390625 137.125 255.125 c 0
 133.724609375 238.125 132.875 221.974609375 132.875 205.825195312 c 0
 132.875 195.625 132.875 185.424804688 134.575195312 175.224609375 c 0
 137.974609375 148.875 148.174804688 127.625 162.625 109.775390625 c 0
 177.924804688 91.9248046875 194.924804688 82.5751953125 216.174804688 82.5751953125 c 0
 229.775390625 82.5751953125 243.375 87.6748046875 258.674804688 97.875 c 0
 273.974609375 108.075195312 289.275390625 119.974609375 302.025390625 134.424804688 c 0
 314.775390625 148.875 327.525390625 164.174804688 340.275390625 182.025390625 c 0
 353.025390625 199.875 364.075195312 217.724609375 373.424804688 234.724609375 c 0
 382.775390625 251.724609375 391.275390625 267.025390625 397.224609375 281.474609375 c 0
 398.924804688 285.724609375 401.474609375 290.825195312 403.174804688 297.625 c 1
 397.224609375 295.924804688 392.125 295.924804688 387.025390625 296.775390625 c 0
 355.575195312 295.075195312 324.974609375 291.674804688 293.525390625 286.575195312 c 0
 262.075195312 281.474609375 239.974609375 275.525390625 226.375 267.875 c 0
 223.825195312 266.174804688 221.275390625 264.474609375 219.575195312 264.474609375 c 0
 217.875 264.474609375 216.174804688 265.325195312 214.474609375 267.025390625 c 0
 211.075195312 270.424804688 208.525390625 274.674804688 208.525390625 279.775390625 c 2
 208.525390625 281.474609375 l 2
 209.375 299.325195312 220.424804688 313.775390625 241.674804688 323.974609375 c 0
 256.125 331.625 286.724609375 338.424804688 331.775390625 342.674804688 c 0
 365.775390625 346.075195312 392.974609375 347.775390625 414.224609375 347.775390625 c 0
 436.325195312 347.775390625 449.075195312 346.924804688 454.174804688 345.224609375 c 2
 459.275390625 341.825195312 l 2
 460.974609375 340.125 462.674804688 337.575195312 462.674804688 333.325195312 c 2
 462.674804688 330.775390625 l 2
 461.825195312 322.275390625 459.275390625 315.474609375 455.875 310.375 c 0
 452.474609375 305.275390625 448.224609375 301.025390625 442.275390625 299.325195312 c 0
 440.575195312 297.625 438.875 297.625 437.174804688 297.625 c 0
 436.325195312 291.674804688 434.625 285.724609375 432.075195312 278.075195312 c 0
 429.525390625 270.424804688 427.825195312 263.625 426.974609375 259.375 c 0
 422.724609375 247.474609375 416.775390625 233.875 409.125 217.724609375 c 0
 401.474609375 201.575195312 391.275390625 185.424804688 379.375 167.575195312 c 0
 367.474609375 149.724609375 354.724609375 131.875 339.424804688 114.875 c 0
 324.125 97.875 308.825195312 82.5751953125 292.674804688 68.974609375 c 0
 276.525390625 55.375 260.375 44.3251953125 242.525390625 36.6748046875 c 0
 224.674804688 29.025390625 208.525390625 25.625 192.375 25.625 c 2
 190.674804688 25.625 l 2
 171.974609375 25.625 154.974609375 29.025390625 138.825195312 36.6748046875 c 0
 122.674804688 44.3251953125 110.775390625 53.6748046875 100.575195312 66.4248046875 c 0
 90.375 79.1748046875 82.724609375 93.625 76.775390625 111.474609375 c 0
 70.8251953125 129.325195312 66.5751953125 148.875 66.5751953125 170.125 c 0
 66.5751953125 187.125 69.125 204.125 73.375 221.974609375 c 0
 83.5751953125 265.325195312 96.3251953125 306.974609375 113.325195312 346.924804688 c 0
 130.325195312 386.875 148.174804688 423.424804688 168.575195312 455.724609375 c 0
 187.275390625 488.025390625 207.674804688 517.775390625 229.775390625 544.974609375 c 0
 251.875 572.174804688 273.125 594.275390625 295.224609375 612.125 c 0
 317.325195312 629.974609375 338.575195312 643.575195312 358.974609375 652.924804688 c 0
 379.375 662.275390625 398.924804688 667.375 416.775390625 667.375 c 0
 435.474609375 667.375 458.424804688 662.275390625 481.375 651.224609375 c 0
 494.125 645.275390625 503.474609375 640.174804688 510.275390625 635.924804688 c 0
EndSplineSet
Validated: 524289
EndChar

StartChar: H
Encoding: 72 72 50
Width: 548
VWidth: 900
GlyphClass: 2
Flags: HMW
HStem: 315.3 52.7<185.575 221.7 185.575 221.7>
LayerCount: 2
Fore
SplineSet
185.575195312 315.299804688 m 1
 183.875 308.5 182.174804688 302.549804688 181.325195312 299.150390625 c 0
 180.474609375 295.75 178.775390625 292.349609375 178.775390625 289.799804688 c 0
 162.625 232.849609375 145.625 157.200195312 126.924804688 62.849609375 c 0
 123.525390625 53.5 117.575195312 45.849609375 109.075195312 39.900390625 c 0
 100.575195312 33.9501953125 91.224609375 31.400390625 83.5751953125 31.400390625 c 0
 82.724609375 31.400390625 81.025390625 32.25 81.025390625 32.25 c 2
 75.0751953125 32.25 69.974609375 34.7998046875 66.5751953125 39.0498046875 c 0
 64.875 40.75 64.025390625 44.150390625 64.025390625 48.400390625 c 0
 64.025390625 52.650390625 64.875 56.900390625 66.5751953125 62 c 0
 70.8251953125 76.4501953125 80.1748046875 114.700195312 94.625 175.900390625 c 0
 102.275390625 208.200195312 114.174804688 260.900390625 132.875 334 c 0
 142.224609375 369.700195312 149.025390625 396.049804688 153.275390625 413.900390625 c 0
 157.525390625 431.75 162.625 457.25 170.275390625 492.099609375 c 0
 176.224609375 521 180.474609375 537.150390625 180.474609375 540.549804688 c 0
 182.174804688 548.200195312 183.875 557.549804688 187.275390625 570.299804688 c 0
 190.674804688 583.049804688 192.375 592.400390625 194.075195312 598.349609375 c 0
 197.474609375 611.099609375 203.424804688 621.299804688 210.224609375 627.25 c 0
 217.025390625 633.200195312 224.674804688 636.599609375 232.325195312 636.599609375 c 1
 232.325195312 629.799804688 234.025390625 629.799804688 234.025390625 636.599609375 c 1
 240.825195312 636.599609375 245.924804688 634.900390625 249.325195312 630.650390625 c 0
 251.025390625 628.099609375 252.724609375 623.849609375 252.724609375 619.599609375 c 0
 252.724609375 615.349609375 251.875 610.25 251.025390625 605.150390625 c 0
 250.174804688 600.049804688 245.924804688 588.150390625 240.825195312 569.450195312 c 0
 235.724609375 550.75 231.474609375 533.75 228.075195312 517.599609375 c 0
 224.674804688 501.450195312 220.424804688 480.200195312 214.474609375 449.599609375 c 0
 208.525390625 419 203.424804688 391.799804688 197.474609375 367.150390625 c 1
 201.724609375 361.200195312 204.275390625 361.200195312 208.525390625 368 c 1
 234.875 368 262.075195312 368.849609375 290.125 372.25 c 0
 318.174804688 375.650390625 342.825195312 379.900390625 365.775390625 383.299804688 c 0
 388.724609375 386.700195312 406.575195312 389.25 419.325195312 390.099609375 c 1
 421.025390625 399.450195312 422.724609375 407.950195312 423.575195312 415.599609375 c 0
 424.424804688 423.25 426.974609375 428.349609375 427.825195312 432.599609375 c 0
 432.924804688 449.599609375 437.174804688 472.549804688 442.275390625 503.150390625 c 0
 444.825195312 514.200195312 449.924804688 531.200195312 455.875 555 c 0
 461.825195312 578.799804688 466.924804688 593.25 467.775390625 598.349609375 c 0
 471.174804688 611.099609375 476.275390625 621.299804688 483.924804688 627.25 c 0
 491.575195312 633.200195312 498.375 636.599609375 506.025390625 636.599609375 c 1
 506.025390625 629.799804688 507.724609375 629.799804688 508.575195312 636.599609375 c 1
 516.224609375 636.599609375 522.174804688 634.900390625 525.575195312 630.650390625 c 0
 527.275390625 628.099609375 528.974609375 623.849609375 528.974609375 619.599609375 c 0
 528.974609375 615.349609375 528.125 608.549804688 526.424804688 600.900390625 c 0
 524.724609375 593.25 519.625 573.700195312 511.125 539.700195312 c 0
 502.625 505.700195312 495.825195312 476.799804688 489.875 451.299804688 c 0
 483.924804688 425.799804688 476.275390625 389.25 466.075195312 341.650390625 c 0
 458.424804688 302.549804688 445.674804688 250.700195312 428.674804688 186.950195312 c 0
 412.525390625 122.349609375 403.174804688 80.7001953125 398.924804688 62.849609375 c 0
 396.375 53.5 390.424804688 45.849609375 382.775390625 39.900390625 c 0
 375.125 33.9501953125 367.474609375 31.400390625 359.825195312 31.400390625 c 0
 358.974609375 31.400390625 357.275390625 32.25 357.275390625 32.25 c 2
 351.325195312 32.25 346.224609375 34.7998046875 343.674804688 39.0498046875 c 0
 342.825195312 40.75 341.125 44.150390625 341.125 48.400390625 c 0
 341.125 52.650390625 341.974609375 56.900390625 343.674804688 62 c 0
 365.775390625 141.049804688 386.174804688 229.450195312 406.575195312 328.049804688 c 1
 406.575195312 326.349609375 409.125 330.599609375 409.974609375 341.650390625 c 1
 405.724609375 334 401.474609375 334 397.224609375 340.799804688 c 1
 388.724609375 340.799804688 357.275390625 336.549804688 304.575195312 328.049804688 c 0
 251.875 319.549804688 212.775390625 315.299804688 191.525390625 315.299804688 c 2
 185.575195312 315.299804688 l 1
EndSplineSet
Validated: 524289
EndChar

StartChar: I
Encoding: 73 73 51
Width: 548
VWidth: 900
GlyphClass: 2
Flags: HMW
HStem: 38.3343 47.6<76.075 95.625> 45.1343 45.05<290.701 292.4 271.575 305.151> 581.484 50.15<216.75 218.025 218.025 222.275 216.75 254.575>
LayerCount: 2
Fore
SplineSet
325.125 44.2841796875 m 0x60
 321.724609375 44.2841796875 312.375976562 45.134765625 297.92578125 45.134765625 c 0
 283.475585938 45.134765625 264.775390625 44.2841796875 240.125976562 43.4345703125 c 1
 222.493164062 38.900390625 204.860351562 36.45703125 187.228515625 36.45703125 c 2
 150.875 40.0341796875 l 1
 116.875 39.1845703125 93.9248046875 38.333984375 82.025390625 38.333984375 c 0xa0
 70.125 38.333984375 63.3251953125 40.0341796875 59.9248046875 43.4345703125 c 0
 58.224609375 45.134765625 57.375 48.5341796875 57.375 51.083984375 c 0
 57.375 52.7841796875 58.224609375 55.333984375 58.224609375 57.0341796875 c 0
 59.0751953125 64.6845703125 62.474609375 72.333984375 68.4248046875 77.4345703125 c 0
 74.375 82.5341796875 84.5751953125 85.9345703125 95.625 85.9345703125 c 0
 118.575195312 86.7841796875 158.525390625 88.484375 216.325195312 90.1845703125 c 1x60
 243.525390625 191.333984375 267.325195312 296.734375 288.575195312 405.534179688 c 0
 293.674804688 431.034179688 296.224609375 445.484375 296.224609375 449.734375 c 0
 297.924804688 459.083984375 302.174804688 476.083984375 308.125 502.434570312 c 0
 309.825195312 510.083984375 312.375 521.984375 316.625 538.984375 c 0
 320.875 555.984375 325.125 566.184570312 325.125 568.734375 c 1
 325.125 566.184570312 326.825195312 569.583984375 327.674804688 580.634765625 c 1
 297.075195312 580.634765625 272.424804688 581.484375 254.575195312 581.484375 c 2
 218.025390625 581.484375 l 2
 211.224609375 581.484375 206.125 580.634765625 206.125 580.634765625 c 2
 197.625 580.634765625 191.674804688 582.333984375 189.125 586.583984375 c 0
 187.424804688 588.284179688 186.575195312 591.684570312 186.575195312 595.934570312 c 2
 186.575195312 601.884765625 l 2
 187.424804688 609.534179688 191.674804688 616.333984375 197.625 622.284179688 c 0
 203.575195312 628.234375 211.224609375 631.634765625 222.275390625 631.634765625 c 0
 263.924804688 632.484375 302.174804688 633.333984375 337.875 633.333984375 c 0
 408.424804688 633.333984375 467.924804688 630.784179688 517.224609375 624.833984375 c 0
 524.025390625 624.833984375 529.125 622.284179688 532.525390625 619.734375 c 0
 535.924804688 617.184570312 537.625 613.784179688 537.625 608.684570312 c 0
 537.625 606.984375 536.775390625 604.434570312 536.775390625 602.734375 c 0
 535.075195312 595.083984375 529.974609375 586.583984375 523.174804688 578.934570312 c 0
 520.625 575.534179688 517.224609375 572.984375 512.974609375 571.284179688 c 0
 510.424804688 570.434570312 507.875 569.583984375 506.174804688 569.583984375 c 0
 504.474609375 569.583984375 503.625 570.434570312 501.924804688 570.434570312 c 0
 487.474609375 572.134765625 446.674804688 575.534179688 381.224609375 579.784179688 c 1
 376.974609375 556.833984375 373.575195312 541.534179688 370.174804688 533.034179688 c 0
 356.575195312 478.634765625 343.825195312 420.833984375 332.775390625 360.484375 c 0
 325.125 320.534179688 314.075195312 269.534179688 299.625 210.034179688 c 0
 285.174804688 150.534179688 275.825195312 110.583984375 271.575195312 90.1845703125 c 1
 282.625 90.1845703125 l 2
 302.174804688 90.1845703125 342.125 89.333984375 400.775390625 89.333984375 c 0
 408.424804688 89.333984375 414.375 87.634765625 415.224609375 85.9345703125 c 0xa0
 416.075195312 84.234375 416.924804688 80.833984375 416.924804688 76.583984375 c 2
 416.924804688 69.7841796875 l 2
 415.224609375 61.2841796875 410.974609375 54.484375 406.724609375 48.5341796875 c 0
 405.025390625 45.134765625 402.474609375 43.4345703125 399.924804688 42.583984375 c 0
 397.375 41.734375 394.825195312 40.0341796875 393.125 40.0341796875 c 0
 391.424804688 40.0341796875 388.875 40.884765625 387.174804688 40.884765625 c 0
 374.424804688 42.583984375 354.875 44.2841796875 325.125 44.2841796875 c 0x60
EndSplineSet
Validated: 524289
EndChar

StartChar: J
Encoding: 74 74 52
Width: 548
VWidth: 898
GlyphClass: 2
Flags: HMW
HStem: 19.075 65.45<202.575 208.95> 568.175 55.25<492.425 507.725> 580.075 50.15<205.975 209.375 209.375 211.075 205.975 258.675>
VStem: 69.125 53.55<176.325 193.75 184.4 186.1>
LayerCount: 2
Fore
SplineSet
228.924804688 93.025390625 m 0xb0
 234.025390625 98.974609375 239.125 107.474609375 245.075195312 119.375 c 0
 256.125 144.025390625 268.875 183.974609375 281.625 239.224609375 c 0
 284.174804688 250.275390625 293.525390625 290.224609375 307.125 359.924804688 c 0
 320.724609375 427.075195312 335.174804688 500.174804688 353.025390625 578.375 c 1
 313.075195312 580.075195312 282.474609375 580.075195312 258.674804688 580.075195312 c 2
 209.375 580.075195312 l 2
 200.025390625 580.075195312 195.775390625 579.224609375 195.775390625 579.224609375 c 2
 187.275390625 579.224609375 181.325195312 580.924804688 178.775390625 585.174804688 c 0
 177.075195312 586.875 174.525390625 590.275390625 174.525390625 594.525390625 c 0
 174.525390625 596.224609375 175.375 598.775390625 175.375 600.474609375 c 0
 176.224609375 608.125 180.474609375 614.924804688 186.424804688 620.875 c 0
 192.375 626.825195312 200.875 630.224609375 211.075195312 630.224609375 c 0
 252.724609375 631.075195312 290.974609375 631.924804688 325.825195312 631.924804688 c 0
 395.525390625 631.924804688 455.025390625 629.375 504.325195312 623.424804688 c 0xd0
 511.125 623.424804688 516.224609375 620.875 519.625 618.325195312 c 0
 523.025390625 615.775390625 523.875 612.375 523.875 607.275390625 c 0
 523.875 605.575195312 523.025390625 603.025390625 523.025390625 601.325195312 c 0
 521.325195312 593.674804688 517.075195312 585.174804688 510.275390625 577.525390625 c 0
 506.875 574.125 504.325195312 571.575195312 500.075195312 569.875 c 0
 498.375 569.025390625 494.974609375 568.174804688 493.275390625 568.174804688 c 0
 491.575195312 568.174804688 489.025390625 569.025390625 487.325195312 569.025390625 c 0
 469.474609375 571.575195312 440.575195312 574.974609375 397.224609375 576.674804688 c 1
 392.125 554.575195312 386.174804688 527.375 380.224609375 493.375 c 0
 375.125 455.974609375 369.174804688 425.375 363.224609375 402.424804688 c 0
 358.125 375.224609375 352.174804688 345.474609375 345.375 311.474609375 c 0
 338.575195312 277.474609375 331.775390625 248.575195312 324.974609375 223.924804688 c 0
 310.525390625 172.924804688 295.224609375 132.125 280.775390625 101.525390625 c 0
 266.325195312 70.9248046875 253.575195312 48.8251953125 240.825195312 36.9248046875 c 0
 228.075195312 25.025390625 215.325195312 19.0751953125 202.575195312 19.0751953125 c 0
 187.275390625 19.0751953125 171.974609375 22.474609375 158.375 28.4248046875 c 0
 143.924804688 34.375 132.025390625 42.875 122.674804688 53.0751953125 c 0
 113.325195312 63.275390625 104.825195312 75.1748046875 97.1748046875 87.9248046875 c 0
 89.525390625 100.674804688 84.4248046875 113.424804688 80.1748046875 126.174804688 c 0
 75.9248046875 138.924804688 72.525390625 149.125 71.6748046875 158.474609375 c 0
 70.8251953125 167.825195312 69.125 172.924804688 69.125 176.325195312 c 2
 69.125 183.974609375 l 2
 69.125 188.224609375 70.8251953125 193.325195312 72.525390625 199.275390625 c 0
 74.224609375 205.224609375 76.775390625 211.174804688 79.3251953125 216.275390625 c 0
 81.875 221.375 85.275390625 226.474609375 90.375 229.875 c 0
 95.474609375 233.275390625 101.424804688 236.674804688 107.375 237.525390625 c 0
 109.924804688 237.525390625 112.474609375 238.375 114.174804688 238.375 c 0
 118.424804688 238.375 121.825195312 236.674804688 123.525390625 234.125 c 0
 125.224609375 231.575195312 126.924804688 227.325195312 126.924804688 223.075195312 c 0
 126.924804688 221.375 126.075195312 217.974609375 126.075195312 215.424804688 c 0
 124.375 207.775390625 122.674804688 198.424804688 122.674804688 189.075195312 c 0
 122.674804688 179.724609375 124.375 169.525390625 126.924804688 157.625 c 0
 129.474609375 145.724609375 133.724609375 133.825195312 139.674804688 122.775390625 c 0
 145.625 111.724609375 155.825195312 103.224609375 168.575195312 95.5751953125 c 0
 180.474609375 87.9248046875 194.075195312 84.525390625 211.075195312 84.525390625 c 0
 217.025390625 84.525390625 223.825195312 87.0751953125 228.924804688 93.025390625 c 0xb0
EndSplineSet
Validated: 524289
EndChar

StartChar: K
Encoding: 75 75 53
Width: 548
VWidth: 902
GlyphClass: 2
Flags: HMW
HStem: 33.65 17.85G<93.4249 98.0999> 643.1 17G<506.949 509.499>
LayerCount: 2
Fore
SplineSet
74.2998046875 60.849609375 m 0
 74.2998046875 63.400390625 75.1494140625 67.650390625 76.8486328125 71.900390625 c 0
 84.4990234375 97.400390625 95.548828125 145.849609375 111.69921875 216.400390625 c 0
 126.999023438 287.799804688 141.44921875 360.900390625 156.749023438 436.549804688 c 0
 164.399414062 473.950195312 170.348632812 499.450195312 172.899414062 512.200195312 c 0
 174.598632812 524.950195312 179.69921875 543.650390625 185.649414062 568.299804688 c 0
 191.598632812 592.099609375 195.848632812 607.400390625 196.69921875 613.349609375 c 0
 200.098632812 628.650390625 205.19921875 639.700195312 211.999023438 647.349609375 c 0
 218.798828125 655 225.598632812 659.25 233.249023438 659.25 c 1
 234.098632812 666.049804688 235.798828125 666.049804688 235.798828125 659.25 c 1
 242.598632812 659.25 247.69921875 656.700195312 251.098632812 649.900390625 c 0
 252.798828125 645.650390625 253.649414062 640.549804688 253.649414062 632.900390625 c 0
 253.649414062 628.650390625 252.798828125 625.25 251.94921875 621 c 0
 249.399414062 607.400390625 242.598632812 577.650390625 231.548828125 531.75 c 0
 220.499023438 485 209.44921875 436.549804688 198.399414062 384.700195312 c 1
 319.098632812 502.849609375 l 2
 353.94921875 539.400390625 387.94921875 571.700195312 423.649414062 598.049804688 c 0
 451.69921875 621.849609375 469.548828125 637.150390625 477.19921875 643.099609375 c 0
 484.848632812 650.75 492.499023438 655.849609375 498.44921875 657.549804688 c 0
 502.69921875 659.25 506.098632812 660.099609375 507.798828125 660.099609375 c 0
 511.19921875 660.099609375 514.598632812 656.700195312 517.149414062 649.900390625 c 0
 518.848632812 645.650390625 519.69921875 640.549804688 519.69921875 634.599609375 c 0
 519.69921875 626.950195312 512.048828125 617.599609375 497.598632812 605.700195312 c 0
 487.399414062 595.5 453.399414062 564.900390625 394.749023438 513.049804688 c 1
 340.348632812 458.650390625 289.348632812 408.5 242.598632812 363.450195312 c 1
 246.848632812 355.799804688 l 2
 258.749023438 336.25 279.999023438 303.950195312 310.598632812 260.599609375 c 0
 341.19921875 214.700195312 366.69921875 175.599609375 387.94921875 142.450195312 c 0
 409.180664062 112.725585938 421.931640625 93.18359375 423.650390625 85.51953125 c 0
 423.551757812 76.4482421875 421.82421875 67.423828125 417.700195312 60 c 0
 414.299804688 52.349609375 410.049804688 45.5498046875 404.099609375 41.2998046875 c 0
 398.150390625 37.0498046875 393.900390625 34.5 389.650390625 34.5 c 0
 382.849609375 34.5 376.900390625 41.2998046875 371.799804688 55.75 c 0
 368.400390625 63.400390625 354.799804688 82.9501953125 331.849609375 114.400390625 c 0
 308.900390625 145.849609375 284.25 181.549804688 257.900390625 218.950195312 c 0
 231.549804688 260.599609375 212.849609375 292.900390625 201.799804688 315.849609375 c 2
 189.900390625 338.799804688 l 1
 180.549804688 295.450195312 l 1
 137.200195312 72.75 l 2
 133.799804688 60 127.849609375 50.650390625 119.349609375 43.849609375 c 0
 110.849609375 37.0498046875 102.349609375 33.650390625 93.849609375 33.650390625 c 0
 93 33.650390625 91.2998046875 34.5 91.2998046875 34.5 c 2
 84.5 34.5 79.400390625 37.900390625 76.849609375 45.5498046875 c 0
 75.150390625 49.7998046875 74.2998046875 54.900390625 74.2998046875 60.849609375 c 0
EndSplineSet
Validated: 524289
EndChar

StartChar: L
Encoding: 76 76 54
Width: 548
VWidth: 900
GlyphClass: 2
Flags: HMW
HStem: 37.275 53.5468
LayerCount: 2
Fore
SplineSet
472.977539062 111.224609375 m 0
 475.528320312 103.575195312 476.376953125 95.9248046875 475.52734375 87.4248046875 c 0
 473.827148438 79.775390625 469.577148438 72.974609375 465.327148438 68.724609375 c 0
 461.077148438 64.474609375 452.577148438 60.224609375 440.676757812 58.525390625 c 0
 404.126953125 50.875 353.126953125 45.775390625 287.676757812 42.375 c 0
 220.52734375 38.974609375 169.52734375 37.275390625 135.52734375 37.275390625 c 0
 128.727539062 37.275390625 123.626953125 39.8251953125 121.077148438 44.0751953125 c 0
 119.376953125 45.775390625 118.52734375 49.1748046875 118.52734375 53.4248046875 c 0
 118.52734375 57.6748046875 119.376953125 61.9248046875 121.077148438 67.025390625 c 0
 132.126953125 93.375 142.327148438 125.674804688 153.376953125 164.775390625 c 0
 172.926757812 225.125 190.77734375 283.775390625 206.077148438 339.875 c 0
 213.727539062 366.224609375 223.926757812 412.974609375 236.676757812 480.125 c 0
 249.426757812 547.275390625 256.227539062 584.674804688 257.077148438 590.625 c 0
 260.477539062 604.224609375 265.577148438 614.424804688 272.376953125 620.375 c 0
 279.176757812 626.325195312 285.977539062 629.724609375 292.77734375 629.724609375 c 1
 293.626953125 622.924804688 295.327148438 622.924804688 295.327148438 629.724609375 c 1
 301.27734375 629.724609375 306.376953125 627.174804688 309.77734375 622.924804688 c 0
 311.477539062 621.224609375 312.327148438 617.825195312 312.327148438 612.724609375 c 0
 312.327148438 607.625 311.477539062 602.525390625 310.626953125 598.275390625 c 0
 307.227539062 582.125 302.977539062 560.025390625 296.176757812 531.974609375 c 0
 288.52734375 489.474609375 280.02734375 453.775390625 271.52734375 424.875 c 0
 262.176757812 380.674804688 253.676757812 343.275390625 245.176757812 312.674804688 c 0
 240.077148438 288.875 231.577148438 254.025390625 218.827148438 208.974609375 c 0
 205.227539062 163.924804688 195.876953125 128.224609375 189.926757812 102.724609375 c 0
 189.427734375 96.2275390625 188.633789062 92.375 187.891601562 90.8212890625 c 1
 199.827148438 90.7646484375 207.08203125 89.974609375 211.177734375 89.974609375 c 0
 248.578125 89.974609375 292.778320312 93.375 343.778320312 99.3251953125 c 0
 398.177734375 105.275390625 437.278320312 111.224609375 458.528320312 116.325195312 c 1
 464.477539062 116.325195312 l 2
 468.727539062 116.325195312 471.278320312 114.625 472.977539062 111.224609375 c 0
EndSplineSet
Validated: 524289
EndChar

StartChar: M
Encoding: 77 77 55
Width: 548
VWidth: 901
GlyphClass: 2
Flags: HMW
HStem: 615.944 17G
VStem: 76.775 0.85<39.2187 43.0437> 397.225 52.7<84.6937 122.944 95.3187 111.894>
LayerCount: 2
Fore
SplineSet
244.224609375 45.59375 m 1
 238.275390625 45.59375 234.025390625 47.2939453125 231.474609375 50.693359375 c 0
 228.924804688 54.943359375 226.375 60.8935546875 226.375 67.693359375 c 0
 226.375 94.8935546875 230.625 156.943359375 238.275390625 254.693359375 c 0
 245.924804688 352.443359375 252.724609375 445.943359375 260.375 536.043945312 c 0
 262.075195312 570.043945312 266.325195312 602.34375 268.875 632.943359375 c 1
 260.375 604.893554688 251.025390625 575.143554688 241.674804688 542.84375 c 0
 228.924804688 501.193359375 216.174804688 451.043945312 200.875 394.09375 c 0
 192.375 360.943359375 181.325195312 320.143554688 167.724609375 269.994140625 c 0
 160.075195312 241.943359375 152.424804688 216.443359375 145.625 193.494140625 c 0
 137.125 167.994140625 130.325195312 147.59375 126.075195312 132.293945312 c 0
 121.825195312 117.84375 117.575195312 106.793945312 116.724609375 100.84375 c 0
 113.325195312 82.994140625 107.375 68.5439453125 98.875 58.34375 c 0
 91.224609375 48.1435546875 85.275390625 43.0439453125 77.625 43.0439453125 c 1
 77.625 35.3935546875 76.775390625 35.3935546875 76.775390625 43.0439453125 c 1
 75.9248046875 43.0439453125 74.224609375 44.744140625 73.375 45.59375 c 0
 69.974609375 47.2939453125 67.4248046875 56.6435546875 67.4248046875 72.7939453125 c 0
 67.4248046875 79.59375 69.974609375 88.943359375 72.525390625 100.84375 c 0
 74.224609375 107.643554688 76.775390625 118.693359375 81.875 134.84375 c 0
 86.974609375 151.84375 94.625 173.943359375 103.974609375 202.84375 c 0
 113.325195312 233.443359375 121.825195312 256.393554688 126.075195312 272.543945312 c 2
 166.025390625 401.744140625 l 2
 172.825195312 426.393554688 180.474609375 456.994140625 191.525390625 492.693359375 c 0
 211.924804688 562.393554688 227.224609375 603.193359375 236.575195312 617.643554688 c 0
 242.525390625 628.693359375 249.325195312 637.193359375 258.674804688 642.293945312 c 0
 268.025390625 647.393554688 276.525390625 649.943359375 283.325195312 649.943359375 c 2
 286.724609375 649.943359375 l 1
 287.575195312 649.943359375 l 2
 295.224609375 649.943359375 301.174804688 648.244140625 305.424804688 643.994140625 c 0
 309.674804688 638.893554688 310.525390625 630.393554688 310.525390625 618.494140625 c 2
 310.525390625 611.693359375 l 2
 310.525390625 566.643554688 301.174804688 462.09375 282.474609375 298.893554688 c 0
 273.974609375 219.84375 268.875 167.994140625 267.174804688 142.494140625 c 1
 273.125 133.994140625 279.924804688 132.293945312 285.875 138.244140625 c 1
 307.974609375 222.393554688 328.375 297.193359375 347.924804688 364.34375 c 0
 362.375 412.793945312 378.525390625 461.244140625 396.375 509.693359375 c 0
 414.224609375 557.293945312 427.825195312 593.84375 439.724609375 619.34375 c 0
 443.125 627.84375 448.224609375 634.643554688 454.174804688 639.744140625 c 0
 460.974609375 644.84375 466.924804688 648.244140625 472.025390625 649.09375 c 0
 477.125 649.09375 482.224609375 649.943359375 484.775390625 649.943359375 c 2
 491.575195312 649.943359375 l 1
 494.974609375 649.943359375 l 1
 505.174804688 649.943359375 l 2
 506.875 649.943359375 511.125 649.09375 514.525390625 648.244140625 c 0
 517.924804688 646.543945312 520.474609375 643.994140625 521.325195312 642.293945312 c 0
 522.174804688 640.59375 523.025390625 637.193359375 523.875 632.09375 c 0
 524.724609375 628.693359375 525.575195312 624.443359375 525.575195312 619.34375 c 2
 525.575195312 616.793945312 l 2
 523.875 598.943359375 511.125 515.643554688 486.474609375 366.043945312 c 0
 462.674804688 217.293945312 449.924804688 133.143554688 449.924804688 112.744140625 c 0
 449.924804688 77.8935546875 440.575195312 56.6435546875 423.575195312 48.1435546875 c 0
 420.174804688 46.443359375 417.625 45.59375 415.075195312 45.59375 c 0
 412.525390625 45.59375 408.275390625 47.2939453125 405.724609375 49.84375 c 0
 399.775390625 54.09375 397.224609375 65.994140625 397.224609375 84.693359375 c 2
 397.224609375 88.943359375 l 2
 397.224609375 134.84375 425.275390625 301.443359375 480.525390625 588.744140625 c 1
 474.575195312 597.244140625 466.924804688 598.943359375 460.125 594.693359375 c 1
 426.125 507.994140625 400.625 430.643554688 381.924804688 360.09375 c 0
 363.224609375 294.643554688 344.525390625 231.744140625 324.974609375 173.09375 c 0
 305.424804688 114.443359375 292.674804688 78.744140625 285.875 65.994140625 c 0
 279.924804688 52.3935546875 266.325195312 45.59375 247.625 45.59375 c 1
 246.775390625 38.7939453125 245.075195312 38.7939453125 244.224609375 45.59375 c 1
EndSplineSet
Validated: 524289
EndChar

StartChar: N
Encoding: 78 78 56
Width: 548
VWidth: 901
GlyphClass: 2
Flags: HMW
HStem: 41.175 17.85G<72.6 78.125> 633.625 17G<229.425 231.975 509.925 515.875>
LayerCount: 2
Fore
SplineSet
438.950195312 212.875 m 0
 427.049804688 164.424804688 417.700195312 127.875 410.900390625 104.924804688 c 0
 403.25 81.125 398.150390625 66.6748046875 395.599609375 60.724609375 c 0
 389.650390625 46.275390625 377.75 39.474609375 359.049804688 39.474609375 c 1
 358.200195312 32.6748046875 356.5 32.6748046875 355.650390625 39.474609375 c 1
 349.700195312 39.474609375 345.450195312 41.1748046875 342.900390625 45.4248046875 c 0
 339.5 49.6748046875 336.950195312 55.625 336.950195312 62.4248046875 c 0
 335.25 73.474609375 329.299804688 98.974609375 318.25 137.224609375 c 2
 285.099609375 260.474609375 l 2
 274.049804688 302.125 262.150390625 348.025390625 251.099609375 399.875 c 0
 240.049804688 451.724609375 233.25 495.924804688 229.849609375 531.625 c 0
 228.150390625 557.125 224.75 581.775390625 223.049804688 606.424804688 c 1
 218.799804688 583.474609375 214.549804688 558.825195312 210.299804688 533.325195312 c 0
 200.099609375 471.275390625 189.049804688 412.625 177.150390625 359.075195312 c 0
 164.400390625 304.674804688 150.799804688 249.424804688 136.349609375 193.325195312 c 0
 121.900390625 138.924804688 113.400390625 104.924804688 111.700195312 93.025390625 c 0
 109.150390625 74.3251953125 103.200195312 60.724609375 95.5498046875 53.0751953125 c 0
 88.75 45.4248046875 81.9501953125 41.1748046875 74.2998046875 41.1748046875 c 0
 70.900390625 41.1748046875 68.349609375 42.875 66.650390625 44.5751953125 c 0
 64.9501953125 46.275390625 63.25 53.9248046875 63.25 65.8251953125 c 0
 63.25 72.625 64.9501953125 81.125 67.5 92.1748046875 c 0
 69.2001953125 104.075195312 81.099609375 148.275390625 99.7998046875 224.775390625 c 2
 149.950195312 427.924804688 l 2
 163.549804688 486.575195312 175.450195312 542.674804688 184.799804688 595.375 c 0
 186.5 606.424804688 189.049804688 615.775390625 193.299804688 623.424804688 c 0
 196.700195312 631.924804688 200.950195312 637.875 206.049804688 642.125 c 0
 212 645.525390625 216.25 648.075195312 220.5 648.924804688 c 0
 224.75 649.775390625 228.150390625 650.625 230.700195312 650.625 c 0
 233.25 650.625 236.650390625 649.775390625 238.349609375 649.775390625 c 0
 246 649.775390625 251.950195312 648.075195312 256.200195312 643.825195312 c 0
 259.599609375 639.575195312 262.150390625 631.075195312 262.150390625 619.174804688 c 0
 263.849609375 582.625 278.299804688 512.924804688 303.799804688 410.075195312 c 0
 328.450195312 307.224609375 350.549804688 224.775390625 369.25 161.875 c 0
 372.650390625 149.125 376.049804688 138.075195312 379.450195312 129.575195312 c 1
 382 138.924804688 385.400390625 149.974609375 387.950195312 163.575195312 c 0
 400.700195312 217.125 418.549804688 296.174804688 439.799804688 399.025390625 c 0
 462.75 501.875 475.5 569.025390625 478.900390625 603.025390625 c 0
 480.599609375 615.775390625 484.849609375 626.825195312 491.650390625 636.174804688 c 0
 499.299804688 645.525390625 506.099609375 650.625 513.75 650.625 c 0
 518 650.625 522.25 649.775390625 523.950195312 648.924804688 c 0
 525.650390625 648.075195312 528.200195312 646.375 529.049804688 644.674804688 c 0
 529.900390625 640.424804688 530.75 633.625 530.75 623.424804688 c 0
 530.75 621.724609375 529.900390625 615.775390625 529.049804688 607.275390625 c 0
 529.049804688 597.924804688 518.849609375 552.875 500.150390625 472.125 c 0
 482.299804688 388.825195312 461.900390625 302.125 438.950195312 212.875 c 0
EndSplineSet
Validated: 524289
EndChar

StartChar: O
Encoding: 79 79 57
Width: 548
VWidth: 900
GlyphClass: 2
Flags: HMW
HStem: 29.775 61.2<216.25 217.1> 601.825 37.4<364.15 365.425>
VStem: 96.4 59.5<167.9 204.45> 442.35 55.25<489.625 503.225 489.625 504.075>
LayerCount: 2
Fore
SplineSet
476.349609375 362.125 m 0
 469.549804688 329.825195312 461.049804688 297.525390625 451.700195312 264.375 c 0
 442.349609375 231.224609375 433 205.724609375 423.650390625 187.025390625 c 0
 411.75 160.674804688 399 138.575195312 385.400390625 119.875 c 0
 372.650390625 102.025390625 359.049804688 86.724609375 346.299804688 74.8251953125 c 0
 333.549804688 62.9248046875 319.950195312 54.4248046875 304.650390625 47.625 c 0
 289.349609375 40.8251953125 274.049804688 35.724609375 258.75 33.1748046875 c 0
 243.450195312 30.625 226.450195312 29.775390625 207.75 29.775390625 c 0
 179.700195312 29.775390625 155.049804688 39.974609375 136.349609375 58.6748046875 c 0
 117.650390625 77.375 104.900390625 102.875 98.9501953125 136.025390625 c 0
 97.25 148.775390625 96.400390625 161.525390625 96.400390625 174.275390625 c 0
 96.400390625 187.025390625 99.7998046875 210.825195312 105.75 246.525390625 c 0
 106.599609375 249.075195312 108.299804688 254.174804688 109.150390625 260.974609375 c 0
 115.099609375 286.474609375 119.349609375 306.875 123.599609375 322.174804688 c 0
 127.849609375 337.474609375 132.950195312 357.875 140.599609375 383.375 c 0
 155.049804688 430.974609375 173.75 476.025390625 198.400390625 518.525390625 c 0
 217.099609375 554.224609375 242.599609375 583.125 276.599609375 605.224609375 c 0
 310.599609375 627.325195312 346.299804688 639.224609375 382 639.224609375 c 0
 399.849609375 639.224609375 416.849609375 634.974609375 433 627.325195312 c 0
 449.150390625 619.674804688 461.900390625 608.625 472.950195312 593.325195312 c 0
 484 578.025390625 490.799804688 558.474609375 495.049804688 534.674804688 c 0
 496.75 522.775390625 497.599609375 510.025390625 497.599609375 496.424804688 c 0
 497.599609375 482.825195312 495.900390625 468.375 494.200195312 452.224609375 c 0
 489.950195312 424.174804688 483.150390625 394.424804688 476.349609375 362.125 c 0
263 96.9248046875 m 0
 276.599609375 101.174804688 290.200195312 107.125 303.799804688 115.625 c 0
 317.400390625 124.125 329.299804688 136.025390625 341.200195312 150.474609375 c 0
 353.099609375 164.924804688 363.299804688 181.075195312 372.650390625 199.775390625 c 0
 376.900390625 206.575195312 382.849609375 223.575195312 390.5 251.625 c 0
 398.150390625 278.825195312 407.5 311.125 416.849609375 348.525390625 c 0
 426.200195312 385.924804688 433.849609375 423.325195312 439.799804688 459.025390625 c 0
 441.5 470.075195312 442.349609375 481.125 442.349609375 491.325195312 c 0
 442.349609375 516.825195312 438.099609375 539.775390625 427.049804688 558.474609375 c 0
 417.700195312 574.625 406.650390625 585.674804688 393.049804688 593.325195312 c 0
 383.700195312 599.275390625 371.799804688 601.825195312 359.049804688 601.825195312 c 0
 331 601.825195312 304.650390625 589.924804688 280.849609375 565.275390625 c 0
 257.900390625 542.325195312 238.349609375 510.025390625 221.349609375 468.375 c 0
 198.400390625 413.974609375 179.700195312 349.375 165.25 275.424804688 c 0
 159.299804688 241.424804688 155.900390625 215.075195312 155.900390625 193.825195312 c 0
 155.900390625 169.174804688 159.299804688 148.775390625 165.25 132.625 c 0
 169.5 120.724609375 177.150390625 110.525390625 187.349609375 102.875 c 0
 197.549804688 95.224609375 209.450195312 90.974609375 223.049804688 90.974609375 c 0
 236.650390625 90.974609375 249.400390625 92.6748046875 263 96.9248046875 c 0
EndSplineSet
Validated: 524289
EndChar

StartChar: P
Encoding: 80 80 58
Width: 548
VWidth: 900
GlyphClass: 2
Flags: HMW
HStem: 245.6 58.65<258.25 277.8 256.55 288.85> 595.8 38.25<344.525 383.2>
VStem: 201.725 2.55 453.325 52.7<507.825 508.675>
LayerCount: 2
Fore
SplineSet
253.575195312 588.150390625 m 1
 250.174804688 572 245.075195312 549.049804688 237.424804688 518.450195312 c 0
 229.775390625 487.849609375 222.125 456.400390625 215.325195312 424.099609375 c 0
 208.525390625 391.799804688 200.875 356.950195312 193.224609375 321.25 c 1
 200.875 317.849609375 l 2
 219.575195312 308.5 242.525390625 304.25 270.575195312 304.25 c 0
 285.025390625 304.25 297.775390625 305.950195312 310.525390625 308.5 c 0
 323.275390625 311.049804688 334.325195312 314.450195312 344.525390625 318.700195312 c 0
 354.724609375 322.950195312 363.224609375 328.900390625 371.724609375 335.700195312 c 0
 380.224609375 342.5 388.724609375 349.299804688 394.674804688 356.099609375 c 0
 400.625 362.900390625 406.575195312 371.400390625 412.525390625 380.75 c 0
 418.474609375 390.099609375 422.724609375 397.75 426.125 405.400390625 c 0
 429.525390625 413.049804688 432.924804688 421.549804688 436.325195312 430.900390625 c 0
 439.724609375 440.25 443.125 448.75 444.825195312 454.700195312 c 0
 446.525390625 460.650390625 449.075195312 469.150390625 450.775390625 478.5 c 0
 452.474609375 487.849609375 453.325195312 497.200195312 453.325195312 504.849609375 c 0
 453.325195312 512.5 453.325195312 518.450195312 452.474609375 524.400390625 c 0
 449.924804688 538.849609375 443.974609375 549.900390625 436.325195312 559.25 c 0
 428.674804688 568.599609375 421.025390625 575.400390625 409.974609375 581.349609375 c 0
 400.625 587.299804688 390.424804688 591.549804688 381.075195312 593.25 c 0
 371.724609375 594.950195312 362.375 595.799804688 353.025390625 595.799804688 c 0
 336.025390625 595.799804688 303.724609375 593.25 253.575195312 588.150390625 c 1
115.875 169.950195312 m 0
 121.825195312 188.650390625 126.92578125 214.150390625 132.025390625 246.450195312 c 0
 137.975585938 269.400390625 144.775390625 300 150.725585938 336.549804688 c 0
 158.375976562 372.25 163.475585938 402 168.576171875 425.799804688 c 0
 177.743164062 466.63671875 189.361328125 515.64453125 203.431640625 572.823242188 c 0
 202.880859375 573.341796875 202.180664062 575.944335938 201.724609375 580.5 c 1
 200.875 574.549804688 199.174804688 576.25 199.174804688 583.900390625 c 0
 199.174804688 585.599609375 198.325195312 587.299804688 198.325195312 589 c 0
 198.325195312 590.700195312 199.174804688 594.099609375 200.025390625 595.799804688 c 0
 201.724609375 601.75 204.275390625 606.849609375 208.525390625 611.099609375 c 0
 212.775390625 615.349609375 217.025390625 617.900390625 220.424804688 618.75 c 0
 238.275390625 623 263.775390625 627.25 297.775390625 629.799804688 c 0
 331.775390625 632.349609375 354.724609375 634.049804688 367.474609375 634.049804688 c 0
 398.924804688 634.049804688 427.825195312 628.099609375 450.775390625 615.349609375 c 0
 473.724609375 602.599609375 489.875 583.049804688 499.224609375 558.400390625 c 0
 504.325195312 543.950195312 506.025390625 528.650390625 506.025390625 511.650390625 c 0
 506.025390625 504 505.174804688 488.700195312 501.775390625 465.75 c 0
 494.125 435.150390625 483.075195312 407.099609375 466.924804688 379.900390625 c 0
 450.775390625 352.700195312 433.775390625 328.900390625 413.375 309.349609375 c 0
 394.674804688 289.799804688 372.575195312 273.650390625 348.775390625 262.599609375 c 0
 324.974609375 251.549804688 301.174804688 245.599609375 276.525390625 245.599609375 c 0
 239.974609375 245.599609375 211.075195312 248.150390625 192.375 254.099609375 c 1
 188.125 248.150390625 185.575195312 249.849609375 182.174804688 257.5 c 1
 176.224609375 226.049804688 171.974609375 199.700195312 168.575195312 178.450195312 c 0
 165.174804688 157.200195312 159.224609375 118.950195312 149.875 62 c 0
 148.174804688 53.5 142.224609375 46.7001953125 133.724609375 41.599609375 c 0
 125.224609375 36.5 117.575195312 33.9501953125 109.075195312 33.9501953125 c 0
 100.575195312 33.9501953125 94.625 36.5 90.375 40.75 c 0
 88.6748046875 42.4501953125 86.974609375 45.849609375 86.974609375 49.25 c 0
 86.974609375 52.650390625 88.6748046875 56.0498046875 90.375 62 c 0
 96.3251953125 85.7998046875 104.825195312 121.5 115.875 169.950195312 c 0
EndSplineSet
Validated: 524289
EndChar

StartChar: Q
Encoding: 81 81 59
Width: 548
VWidth: 886
GlyphClass: 2
Flags: HMW
HStem: 2.92507 17G 15.6751 61.2 587.725 37.4
VStem: 98.1001 60.35 244.3 39.1<160.6 203.1> 440.65 55.25
LayerCount: 2
Fore
SplineSet
247.700195312 76.875 m 1x7c
 259.600585938 76.875 l 1
 257.049804688 89.625 l 2
 251.100585938 114.275390625 246.850585938 133.825195312 245.150390625 148.275390625 c 0
 245.150390625 153.375 244.299804688 158.474609375 244.299804688 162.724609375 c 0
 244.299804688 183.974609375 250.25 200.125 263 209.474609375 c 0
 267.25 212.875 271.5 214.575195312 274.900390625 214.575195312 c 0
 276.600585938 214.575195312 277.450195312 214.575195312 279.150390625 212.875 c 0
 280.850585938 211.174804688 283.400390625 206.075195312 283.400390625 200.125 c 0
 285.100585938 172.075195312 292.75 140.625 302.950195312 105.775390625 c 2
 306.350585938 93.025390625 l 1
 315.700195312 99.8251953125 l 2
 341.200195312 117.674804688 362.450195312 145.724609375 376.900390625 183.125 c 0
 381.150390625 191.625 386.25 208.625 393.049804688 234.974609375 c 0
 400.700195312 261.325195312 408.350585938 293.625 417.700195312 332.724609375 c 0
 427.049804688 371.825195312 433.850585938 409.224609375 438.100585938 444.924804688 c 0
 439.799804688 455.974609375 440.650390625 467.025390625 440.650390625 477.224609375 c 0
 440.650390625 505.275390625 435.549804688 528.224609375 424.5 546.924804688 c 0
 416 561.375 405.799804688 572.424804688 392.200195312 579.224609375 c 0
 382.850585938 585.174804688 370.950195312 587.724609375 358.200195312 587.724609375 c 0
 330.150390625 587.724609375 303.799804688 575.825195312 280 552.875 c 0
 256.200195312 529.924804688 237.5 497.625 220.5 455.974609375 c 0
 194.150390625 395.625 175.450195312 331.025390625 164.400390625 260.474609375 c 0
 161 240.075195312 158.450195312 221.375 158.450195312 203.525390625 c 0
 158.450195312 192.474609375 160.150390625 181.424804688 161.850585938 170.375 c 0
 166.100585938 142.325195312 173.75 120.224609375 187.350585938 103.224609375 c 0
 201.799804688 85.375 218.799804688 76.875 240.049804688 76.875 c 2
 247.700195312 76.875 l 1x7c
340.350585938 -143.275390625 m 0
 334.400390625 -141.575195312 330.151367188 -137.32421875 327.600585938 -129.673828125 c 0
 323.350585938 -119.473632812 315.701171875 -99.923828125 305.500976562 -72.7236328125 c 0
 295.30078125 -45.5244140625 285.100585938 -14.923828125 274.05078125 19.92578125 c 1xbc
 272.350585938 12.2763671875 268.100585938 12.2763671875 265.55078125 18.2255859375 c 1
 252.80078125 16.5263671875 239.201171875 15.67578125 224.750976562 15.67578125 c 0
 205.201171875 15.67578125 187.350585938 19.076171875 170.350585938 26.7255859375 c 0
 153.350585938 34.3759765625 140.600585938 44.576171875 130.401367188 57.326171875 c 0
 120.201171875 70.076171875 111.701171875 87.076171875 105.750976562 104.92578125 c 0
 99.80078125 122.776367188 98.1005859375 143.17578125 98.1005859375 165.276367188 c 0
 98.1005859375 187.375976562 99.80078125 210.326171875 104.05078125 233.276367188 c 0
 125.30078125 342.076171875 157.600585938 431.326171875 197.55078125 501.026367188 c 0
 216.250976562 536.725585938 242.600585938 565.625976562 276.600585938 589.42578125 c 0
 310.600585938 613.225585938 345.451171875 625.125976562 381.151367188 625.125976562 c 0
 419.401367188 625.125976562 449.151367188 611.526367188 470.401367188 583.475585938 c 0
 481.451171875 569.026367188 488.250976562 550.326171875 492.500976562 525.67578125 c 0
 494.201171875 512.92578125 495.901367188 499.326171875 495.901367188 484.875976562 c 0
 495.901367188 470.42578125 494.201171875 455.125976562 492.500976562 438.125976562 c 0
 487.401367188 399.026367188 478.05078125 352.276367188 464.451171875 297.026367188 c 0
 450.850585938 241.776367188 436.401367188 198.42578125 423.651367188 167.826171875 c 0
 399.850585938 109.17578125 368.401367188 66.67578125 328.451171875 42.0263671875 c 1
 326.263671875 34.736328125 323.451171875 32.447265625 321.623046875 35.6962890625 c 1
 335.798828125 -0.12890625 349.990234375 -35.1357421875 365 -69.3251953125 c 0
 369.25 -86.3251953125 374.350585938 -95.6748046875 378.600585938 -98.224609375 c 0
 378.600585938 -99.9248046875 379.450195312 -102.474609375 379.450195312 -104.174804688 c 0
 379.450195312 -105.875 379.450195312 -108.424804688 378.600585938 -110.974609375 c 0
 376.900390625 -116.924804688 372.650390625 -122.875 368.400390625 -127.974609375 c 0
 364.150390625 -133.075195312 361.600585938 -138.174804688 358.200195312 -139.875 c 0
 353.950195312 -142.424804688 349.700195312 -144.125 345.450195312 -144.125 c 0
 343.75 -144.125 342.049804688 -143.275390625 340.350585938 -143.275390625 c 0
EndSplineSet
Validated: 524289
EndChar

StartChar: R
Encoding: 82 82 60
Width: 548
VWidth: 899
GlyphClass: 2
Flags: HMW
VStem: 105.75 0.85<32.025 33.725> 258.75 2.55 261.3 3.4<629.575 629.575> 453.4 54.4<440.45 460.425>
LayerCount: 2
Fore
SplineSet
392.200195312 35.4248046875 m 0xd0
 387.099609375 37.125 382.849609375 42.224609375 379.450195312 49.875 c 0
 373.5 62.625 365.849609375 77.0751953125 354.799804688 94.9248046875 c 0
 343.75 112.775390625 331 132.325195312 314.849609375 153.575195312 c 0
 298.700195312 174.825195312 280.849609375 196.075195312 258.75 217.325195312 c 0
 236.650390625 238.575195312 215.400390625 255.575195312 193.299804688 268.325195312 c 0
 191.852539062 266.876953125 190.50390625 266.120117188 189.186523438 266.120117188 c 0
 186.635742188 266.120117188 184.202148438 268.958984375 181.400390625 275.125 c 1
 181.400390625 265.637695312 180.146484375 261.163085938 179.25390625 261.163085938 c 0
 179.107421875 261.163085938 178.970703125 261.284179688 178.849609375 261.525390625 c 1
 172.900390625 228.375 166.099609375 190.125 160.150390625 145.075195312 c 0
 154.200195312 100.025390625 150.799804688 72.8251953125 149.099609375 61.775390625 c 0
 147.400390625 53.275390625 142.299804688 46.474609375 133.799804688 41.375 c 0
 125.299804688 36.275390625 117.650390625 33.724609375 108.299804688 33.724609375 c 2
 106.599609375 33.724609375 l 1
 106.599609375 30.3251953125 106.387695312 28.625 106.174804688 28.625 c 0
 105.962890625 28.625 105.75 30.3251953125 105.75 33.724609375 c 1
 98.099609375 33.724609375 92.150390625 36.275390625 88.75 40.525390625 c 0
 87.900390625 42.224609375 86.2001953125 45.625 86.2001953125 49.025390625 c 0
 86.2001953125 52.4248046875 87.0498046875 56.6748046875 88.75 61.775390625 c 0
 98.099609375 91.525390625 104.900390625 117.025390625 110 138.275390625 c 0
 115.099609375 159.525390625 127 210.525390625 144.849609375 291.275390625 c 0
 146.549804688 303.174804688 152.5 326.125 161.849609375 360.125 c 0
 171.200195312 395.825195312 179.700195312 428.974609375 185.650390625 460.424804688 c 0
 189.049804688 479.125 192.450195312 506.325195312 197.549804688 539.474609375 c 0
 202.650390625 572.625 206.049804688 592.174804688 207.75 598.125 c 1
 163.58203125 448.206054688 141.481445312 373.193359375 141.450195312 373.193359375 c 1
 141.450195312 373.193359375 163.518554688 448.418945312 207.75 598.974609375 c 1
 207.75 596.608398438 207.884765625 595.452148438 208.045898438 595.452148438 c 0
 208.291015625 595.452148438 208.599609375 598.10546875 208.599609375 603.224609375 c 0
 209.450195312 611.724609375 213.700195312 619.375 221.349609375 626.174804688 c 0
 227.299804688 632.974609375 234.950195312 636.375 243.450195312 636.375 c 0
 251.099609375 636.375 256.200195312 634.674804688 258.75 632.125 c 0
 259.228515625 627.822265625 259.975585938 625.669921875 260.537109375 625.669921875 c 0
 260.974609375 625.669921875 261.299804688 626.971679688 261.299804688 629.575195312 c 1
 261.724609375 626.174804688 262.362304688 624.474609375 263 624.474609375 c 0
 263.637695312 624.474609375 264.275390625 626.174804688 264.700195312 629.575195312 c 1xb0
 302.099609375 627.875 336.950195312 621.075195312 366.700195312 611.724609375 c 0
 396.450195312 601.525390625 421.950195312 589.625 440.650390625 576.025390625 c 0
 459.349609375 562.424804688 475.5 546.275390625 486.549804688 528.424804688 c 0
 497.599609375 510.575195312 505.25 494.424804688 506.950195312 476.575195312 c 0
 506.950195312 470.625 507.799804688 463.825195312 507.799804688 457.025390625 c 0
 507.799804688 445.974609375 506.099609375 434.924804688 504.400390625 423.875 c 0
 498.450195312 397.525390625 487.400390625 375.424804688 470.400390625 358.424804688 c 0
 462.75 350.775390625 453.400390625 343.125 442.349609375 336.325195312 c 0
 431.299804688 329.525390625 420.25 324.424804688 408.349609375 320.174804688 c 0
 397.299804688 315.924804688 384.549804688 311.674804688 370.099609375 308.275390625 c 0
 355.650390625 304.875 342.049804688 300.625 327.599609375 298.924804688 c 0
 313.150390625 297.224609375 297 295.525390625 279.150390625 293.825195312 c 1
 273.890625 289.521484375 268.630859375 287.370117188 263.372070312 287.370117188 c 2
 251.099609375 291.275390625 l 1
 258.208984375 279.426757812 266.051757812 274.184570312 273.264648438 274.184570312 c 0
 273.813476562 274.184570312 274.358398438 274.21484375 274.900390625 274.275390625 c 0
 316.549804688 245.375 350.549804688 211.375 378.599609375 173.974609375 c 0
 407.5 136.575195312 425.349609375 104.275390625 431.299804688 77.9248046875 c 1
 431.299804688 75.375 l 2
 431.299804688 68.5751953125 429.599609375 62.625 426.200195312 56.6748046875 c 0
 421.950195312 49.025390625 416 43.9248046875 410.049804688 39.6748046875 c 0
 404.950195312 36.275390625 400.700195312 34.5751953125 396.450195312 34.5751953125 c 0
 395.599609375 34.5751953125 393.900390625 35.4248046875 392.200195312 35.4248046875 c 0xd0
385.400390625 362.674804688 m 0
 395.599609375 366.075195312 404.950195312 370.325195312 414.299804688 376.275390625 c 0
 433 387.325195312 445.75 404.325195312 450.849609375 425.575195312 c 0
 452.549804688 431.525390625 453.400390625 437.474609375 453.400390625 443.424804688 c 0
 453.400390625 455.325195312 450.849609375 467.224609375 444.900390625 478.275390625 c 0
 436.400390625 495.275390625 424.5 508.875 410.049804688 520.775390625 c 0
 396.450195312 532.674804688 380.299804688 543.724609375 362.450195312 553.075195312 c 0
 328.450195312 570.924804688 296.150390625 583.674804688 262.150390625 590.474609375 c 2
 253.650390625 592.174804688 l 1
 244.299804688 543.724609375 236.650390625 504.625 231.549804688 474.875 c 0
 230.700195312 468.924804688 228.150390625 457.875 223.900390625 442.575195312 c 0
 219.650390625 427.275390625 211.150390625 395.825195312 196.700195312 347.375 c 1
 206.900390625 344.825195312 l 2
 212.849609375 343.974609375 221.349609375 343.125 230.700195312 343.125 c 2
 233.25 343.125 l 2
 234.950195312 343.125 243.450195312 343.974609375 259.599609375 344.825195312 c 0
 319.099609375 347.375 360.75 353.325195312 385.400390625 362.674804688 c 0
EndSplineSet
Validated: 524289
EndChar

